SplineFontDB: 3.2
FontName: atascii
FullName: Atari Ascii
FamilyName: Atari ASCII
Weight: Book
Copyright: CC0 1.0 Universal
Version: 1.100
ItalicAngle: 0
UnderlinePosition: -100
UnderlineWidth: 40
Ascent: 700
Descent: 100
InvalidEm: 0
sfntRevision: 0x00011999
LayerCount: 2
Layer: 0 1 "Atr+AOEA-s" 1
Layer: 1 1 "Fore" 0
HasVMetrics: 1
XUID: [1021 999 1154514124 3835549]
StyleMap: 0x0040
FSType: 0
OS2Version: 4
OS2_WeightWidthSlopeOnly: 0
OS2_UseTypoMetrics: 1
CreationTime: 1621268852
ModificationTime: 1675070044
PfmFamily: 81
TTFWeight: 400
TTFWidth: 5
LineGap: 0
VLineGap: 0
Panose: 0 0 0 9 0 0 0 0 0 0
OS2TypoAscent: 700
OS2TypoAOffset: 0
OS2TypoDescent: -100
OS2TypoDOffset: 0
OS2TypoLinegap: 0
OS2WinAscent: 700
OS2WinAOffset: 0
OS2WinDescent: 100
OS2WinDOffset: 0
HheadAscent: 700
HheadAOffset: 0
HheadDescent: -100
HheadDOffset: 0
OS2SubXSize: 520
OS2SubYSize: 480
OS2SubXOff: 0
OS2SubYOff: 60
OS2SupXSize: 520
OS2SupYSize: 480
OS2SupXOff: 0
OS2SupYOff: 280
OS2StrikeYSize: 100
OS2StrikeYPos: 350
OS2CapHeight: 700
OS2XHeight: 500
OS2Vendor: 'DEVR'
OS2CodePages: 00020001.80000000
OS2UnicodeRanges: 00000003.00000000.00000000.00000000
DEI: 91125
ShortTable: maxp 16
  1
  0
  377
  73
  10
  4
  1
  1
  2
  30
  6
  0
  100
  0
  1
  1
EndShort
LangName: 1033 "" "" "Regular" "1.100;DEVR;atascii" "" "Version 1.100" "" "" "Damian Vila Rio" "Damian Vila Rio" "" "https://damianvila.com" "https://damianvila.com" "https://creativecommons.org/publicdomain/zero/1.0/" "http://creativecommons.org/licenses/by-sa/4.0/" "" "Atari ASCII 8x8" "Regular"
Encoding: UnicodeFull
UnicodeInterp: none
NameList: AGL For New Fonts
DisplaySize: -48
AntiAlias: 1
FitToEm: 0
WinInfo: 1113552 38 15
BeginChars: 1114113 377

StartChar: .notdef
Encoding: 1114112 -1 0
Width: 800
GlyphClass: 1
Flags: WO
LayerCount: 2
Fore
SplineSet
528 -100 m 1,0,-1
 274 -100 l 1,1,-1
 274 700 l 1,2,-1
 528 700 l 1,3,-1
 528 -100 l 1,0,-1
466 -45 m 1,4,-1
 466 -18 l 1,5,-1
 385 -18 l 1,6,-1
 441 19 l 1,7,-1
 466 19 l 1,8,-1
 466 46 l 1,9,-1
 334 46 l 1,10,-1
 334 19 l 1,11,-1
 390 19 l 1,12,-1
 334 -18 l 1,13,-1
 334 -45 l 1,14,-1
 466 -45 l 1,4,-1
466 64 m 1,15,-1
 466 154 l 1,16,-1
 334 154 l 1,17,-1
 334 64 l 1,18,-1
 466 64 l 1,15,-1
466 202 m 1,19,-1
 466 293 l 1,20,-1
 386 293 l 1,21,-1
 386 248 l 1,22,-1
 414 248 l 1,23,-1
 414 266 l 1,24,-1
 440 266 l 1,25,-1
 440 229 l 1,26,-1
 360 229 l 1,27,-1
 360 293 l 1,28,-1
 334 293 l 1,29,-1
 334 202 l 1,30,-1
 466 202 l 1,19,-1
466 310 m 1,31,-1
 466 390 l 1,32,-1
 440 390 l 1,33,-1
 440 338 l 1,34,-1
 334 338 l 1,35,-1
 334 310 l 1,36,-1
 466 310 l 1,31,-1
414 356 m 1,37,-1
 414 412 l 1,38,-1
 466 412 l 1,39,-1
 466 438 l 1,40,-1
 334 438 l 1,41,-1
 334 412 l 1,42,-1
 386 412 l 1,43,-1
 386 382 l 1,44,-1
 334 382 l 1,45,-1
 334 356 l 1,46,-1
 414 356 l 1,37,-1
466 460 m 1,47,-1
 466 487 l 1,48,-1
 414 487 l 1,49,-1
 414 543 l 1,50,-1
 334 543 l 1,51,-1
 334 460 l 1,52,-1
 466 460 l 1,47,-1
466 564 m 1,53,-1
 466 590 l 1,54,-1
 414 590 l 1,55,-1
 414 620 l 1,56,-1
 466 620 l 1,57,-1
 466 646 l 1,58,-1
 334 646 l 1,59,-1
 334 620 l 1,60,-1
 386 620 l 1,61,-1
 386 590 l 1,62,-1
 334 590 l 1,63,-1
 334 564 l 1,64,-1
 466 564 l 1,53,-1
360 128 m 1,65,-1
 440 128 l 1,66,-1
 440 90 l 1,67,-1
 360 90 l 1,68,-1
 360 128 l 1,65,-1
360 516 m 1,69,-1
 386 516 l 1,70,-1
 386 487 l 1,71,-1
 360 487 l 1,72,-1
 360 516 l 1,69,-1
EndSplineSet
EndChar

StartChar: A
Encoding: 65 65 2
Width: 800
GlyphClass: 1
Flags: W
LayerCount: 2
Fore
SplineSet
100 400 m 1,0,-1
 200 400 l 1,1,-1
 200 500 l 1,2,-1
 300 500 l 1,3,-1
 300 600 l 1,4,-1
 500 600 l 1,5,-1
 500 500 l 1,6,-1
 600 500 l 1,7,-1
 600 400 l 1,8,-1
 700 400 l 1,9,-1
 700 0 l 1,10,-1
 500 0 l 1,11,-1
 500 100 l 1,12,-1
 300 100 l 1,13,-1
 300 0 l 1,14,-1
 100 0 l 1,15,-1
 100 400 l 1,0,-1
500 200 m 1,16,-1
 500 400 l 1,17,-1
 300 400 l 1,18,-1
 300 200 l 1,19,-1
 500 200 l 1,16,-1
EndSplineSet
EndChar

StartChar: Aacute
Encoding: 193 193 3
Width: 800
GlyphClass: 1
Flags: W
LayerCount: 2
Fore
SplineSet
100 300 m 1,0,-1
 200 300 l 1,1,-1
 200 400 l 1,2,-1
 600 400 l 1,3,-1
 600 300 l 1,4,-1
 700 300 l 1,5,-1
 700 0 l 1,6,-1
 500 0 l 1,7,-1
 500 100 l 1,8,-1
 300 100 l 1,9,-1
 300 0 l 1,10,-1
 100 0 l 1,11,-1
 100 300 l 1,0,-1
500 200 m 1,12,-1
 500 300 l 1,13,-1
 300 300 l 1,14,-1
 300 200 l 1,15,-1
 500 200 l 1,12,-1
300 600 m 1,16,-1
 400 600 l 1,17,-1
 400 700 l 1,18,-1
 600 700 l 1,19,-1
 600 600 l 1,20,-1
 500 600 l 1,21,-1
 500 500 l 1,22,-1
 300 500 l 1,23,-1
 300 600 l 1,16,-1
EndSplineSet
EndChar

StartChar: Acircumflex
Encoding: 194 194 4
Width: 800
GlyphClass: 1
Flags: W
LayerCount: 2
Fore
SplineSet
100 300 m 1,0,-1
 200 300 l 1,1,-1
 200 400 l 1,2,-1
 600 400 l 1,3,-1
 600 300 l 1,4,-1
 700 300 l 1,5,-1
 700 0 l 1,6,-1
 500 0 l 1,7,-1
 500 100 l 1,8,-1
 300 100 l 1,9,-1
 300 0 l 1,10,-1
 100 0 l 1,11,-1
 100 300 l 1,0,-1
100 600 m 1,12,-1
 300 600 l 1,13,-1
 300 500 l 1,14,-1
 100 500 l 1,15,-1
 100 600 l 1,12,-1
500 200 m 1,16,-1
 500 300 l 1,17,-1
 300 300 l 1,18,-1
 300 200 l 1,19,-1
 500 200 l 1,16,-1
300 700 m 1,20,-1
 500 700 l 1,21,-1
 500 600 l 1,22,-1
 300 600 l 1,23,-1
 300 700 l 1,20,-1
500 600 m 1,24,-1
 700 600 l 1,25,-1
 700 500 l 1,26,-1
 500 500 l 1,27,-1
 500 600 l 1,24,-1
EndSplineSet
EndChar

StartChar: Adieresis
Encoding: 196 196 5
Width: 800
GlyphClass: 1
Flags: W
LayerCount: 2
Fore
SplineSet
100 300 m 1,0,-1
 200 300 l 1,1,-1
 200 400 l 1,2,-1
 300 400 l 1,3,-1
 300 500 l 1,4,-1
 500 500 l 1,5,-1
 500 400 l 1,6,-1
 600 400 l 1,7,-1
 600 300 l 1,8,-1
 700 300 l 1,9,-1
 700 0 l 1,10,-1
 500 0 l 1,11,-1
 500 100 l 1,12,-1
 300 100 l 1,13,-1
 300 0 l 1,14,-1
 100 0 l 1,15,-1
 100 300 l 1,0,-1
100 700 m 1,16,-1
 300 700 l 1,17,-1
 300 600 l 1,18,-1
 100 600 l 1,19,-1
 100 700 l 1,16,-1
500 200 m 1,20,-1
 500 300 l 1,21,-1
 300 300 l 1,22,-1
 300 200 l 1,23,-1
 500 200 l 1,20,-1
500 700 m 1,24,-1
 700 700 l 1,25,-1
 700 600 l 1,26,-1
 500 600 l 1,27,-1
 500 700 l 1,24,-1
EndSplineSet
EndChar

StartChar: Agrave
Encoding: 192 192 6
Width: 800
GlyphClass: 1
Flags: W
LayerCount: 2
Fore
SplineSet
100 300 m 1,0,-1
 200 300 l 1,1,-1
 200 400 l 1,2,-1
 600 400 l 1,3,-1
 600 300 l 1,4,-1
 700 300 l 1,5,-1
 700 0 l 1,6,-1
 500 0 l 1,7,-1
 500 100 l 1,8,-1
 300 100 l 1,9,-1
 300 0 l 1,10,-1
 100 0 l 1,11,-1
 100 300 l 1,0,-1
200 700 m 1,12,-1
 400 700 l 1,13,-1
 400 600 l 1,14,-1
 500 600 l 1,15,-1
 500 500 l 1,16,-1
 300 500 l 1,17,-1
 300 600 l 1,18,-1
 200 600 l 1,19,-1
 200 700 l 1,12,-1
500 200 m 1,20,-1
 500 300 l 1,21,-1
 300 300 l 1,22,-1
 300 200 l 1,23,-1
 500 200 l 1,20,-1
EndSplineSet
EndChar

StartChar: Aring
Encoding: 197 197 7
Width: 800
GlyphClass: 1
Flags: W
LayerCount: 2
Fore
SplineSet
100 300 m 1,0,-1
 200 300 l 1,1,-1
 200 400 l 1,2,-1
 300 400 l 1,3,-1
 300 500 l 1,4,-1
 500 500 l 1,5,-1
 500 400 l 1,6,-1
 600 400 l 1,7,-1
 600 300 l 1,8,-1
 700 300 l 1,9,-1
 700 0 l 1,10,-1
 500 0 l 1,11,-1
 500 100 l 1,12,-1
 300 100 l 1,13,-1
 300 0 l 1,14,-1
 100 0 l 1,15,-1
 100 300 l 1,0,-1
500 200 m 1,16,-1
 500 300 l 1,17,-1
 300 300 l 1,18,-1
 300 200 l 1,19,-1
 500 200 l 1,16,-1
300 700 m 1,20,-1
 500 700 l 1,21,-1
 500 600 l 1,22,-1
 300 600 l 1,23,-1
 300 700 l 1,20,-1
EndSplineSet
EndChar

StartChar: Atilde
Encoding: 195 195 8
Width: 800
GlyphClass: 1
Flags: W
LayerCount: 2
Fore
SplineSet
100 300 m 1,0,-1
 200 300 l 1,1,-1
 200 400 l 1,2,-1
 600 400 l 1,3,-1
 600 300 l 1,4,-1
 700 300 l 1,5,-1
 700 0 l 1,6,-1
 500 0 l 1,7,-1
 500 100 l 1,8,-1
 300 100 l 1,9,-1
 300 0 l 1,10,-1
 100 0 l 1,11,-1
 100 300 l 1,0,-1
100 600 m 1,12,-1
 200 600 l 1,13,-1
 200 500 l 1,14,-1
 100 500 l 1,15,-1
 100 600 l 1,12,-1
200 700 m 1,16,-1
 400 700 l 1,17,-1
 400 600 l 1,18,-1
 500 600 l 1,19,-1
 500 500 l 1,20,-1
 300 500 l 1,21,-1
 300 600 l 1,22,-1
 200 600 l 1,23,-1
 200 700 l 1,16,-1
500 200 m 1,24,-1
 500 300 l 1,25,-1
 300 300 l 1,26,-1
 300 200 l 1,27,-1
 500 200 l 1,24,-1
500 700 m 1,28,-1
 600 700 l 1,29,-1
 600 600 l 1,30,-1
 500 600 l 1,31,-1
 500 700 l 1,28,-1
EndSplineSet
EndChar

StartChar: AE
Encoding: 198 198 9
Width: 800
GlyphClass: 1
Flags: W
LayerCount: 2
Fore
SplineSet
300 200 m 1,0,-1
 200 200 l 1,1,-1
 200 0 l 1,2,-1
 0 0 l 1,3,-1
 0 500 l 1,4,-1
 100 500 l 1,5,-1
 100 600 l 1,6,-1
 200 600 l 1,7,-1
 200 700 l 1,8,-1
 800 700 l 1,9,-1
 800 600 l 1,10,-1
 500 600 l 1,11,-1
 500 400 l 1,12,-1
 700 400 l 1,13,-1
 700 300 l 1,14,-1
 500 300 l 1,15,-1
 500 100 l 1,16,-1
 800 100 l 1,17,-1
 800 0 l 1,18,-1
 300 0 l 1,19,-1
 300 200 l 1,0,-1
300 300 m 1,20,-1
 300 500 l 1,21,-1
 200 500 l 1,22,-1
 200 300 l 1,23,-1
 300 300 l 1,20,-1
EndSplineSet
EndChar

StartChar: B
Encoding: 66 66 10
Width: 800
GlyphClass: 1
Flags: W
LayerCount: 2
Fore
SplineSet
100 600 m 1,0,-1
 600 600 l 1,1,-1
 600 500 l 1,2,-1
 700 500 l 1,3,-1
 700 400 l 1,4,-1
 600 400 l 1,5,-1
 600 300 l 1,6,-1
 700 300 l 1,7,-1
 700 100 l 1,8,-1
 600 100 l 1,9,-1
 600 0 l 1,10,-1
 100 0 l 1,11,-1
 100 600 l 1,0,-1
500 100 m 1,12,-1
 500 300 l 1,13,-1
 300 300 l 1,14,-1
 300 100 l 1,15,-1
 500 100 l 1,12,-1
500 400 m 1,16,-1
 500 500 l 1,17,-1
 300 500 l 1,18,-1
 300 400 l 1,19,-1
 500 400 l 1,16,-1
EndSplineSet
EndChar

StartChar: C
Encoding: 67 67 11
Width: 800
GlyphClass: 1
Flags: W
LayerCount: 2
Fore
SplineSet
200 100 m 1,0,-1
 100 100 l 1,1,-1
 100 500 l 1,2,-1
 200 500 l 1,3,-1
 200 600 l 1,4,-1
 600 600 l 1,5,-1
 600 500 l 1,6,-1
 700 500 l 1,7,-1
 700 400 l 1,8,-1
 500 400 l 1,9,-1
 500 500 l 1,10,-1
 300 500 l 1,11,-1
 300 100 l 1,12,-1
 500 100 l 1,13,-1
 500 200 l 1,14,-1
 700 200 l 1,15,-1
 700 100 l 1,16,-1
 600 100 l 1,17,-1
 600 0 l 1,18,-1
 200 0 l 1,19,-1
 200 100 l 1,0,-1
EndSplineSet
EndChar

StartChar: Ccedilla
Encoding: 199 199 12
Width: 800
GlyphClass: 1
Flags: W
LayerCount: 2
Fore
SplineSet
200 0 m 1,0,-1
 400 0 l 1,1,-1
 400 100 l 1,2,-1
 200 100 l 1,3,-1
 200 200 l 1,4,-1
 100 200 l 1,5,-1
 100 500 l 1,6,-1
 200 500 l 1,7,-1
 200 600 l 1,8,-1
 600 600 l 1,9,-1
 600 500 l 1,10,-1
 700 500 l 1,11,-1
 700 400 l 1,12,-1
 500 400 l 1,13,-1
 500 500 l 1,14,-1
 300 500 l 1,15,-1
 300 200 l 1,16,-1
 500 200 l 1,17,-1
 500 300 l 1,18,-1
 700 300 l 1,19,-1
 700 200 l 1,20,-1
 600 200 l 1,21,-1
 600 100 l 1,22,-1
 500 100 l 1,23,-1
 500 -100 l 1,24,-1
 200 -100 l 1,25,-1
 200 0 l 1,0,-1
EndSplineSet
EndChar

StartChar: D
Encoding: 68 68 13
Width: 800
GlyphClass: 1
Flags: W
LayerCount: 2
Fore
SplineSet
100 600 m 1,0,-1
 500 600 l 1,1,-1
 500 500 l 1,2,-1
 600 500 l 1,3,-1
 600 400 l 1,4,-1
 700 400 l 1,5,-1
 700 200 l 1,6,-1
 600 200 l 1,7,-1
 600 100 l 1,8,-1
 500 100 l 1,9,-1
 500 0 l 1,10,-1
 100 0 l 1,11,-1
 100 600 l 1,0,-1
400 100 m 1,12,-1
 400 200 l 1,13,-1
 500 200 l 1,14,-1
 500 400 l 1,15,-1
 400 400 l 1,16,-1
 400 500 l 1,17,-1
 300 500 l 1,18,-1
 300 100 l 1,19,-1
 400 100 l 1,12,-1
EndSplineSet
EndChar

StartChar: Eth
Encoding: 208 208 14
Width: 800
GlyphClass: 1
Flags: W
LayerCount: 2
Fore
SplineSet
100 300 m 1,0,-1
 0 300 l 1,1,-1
 0 400 l 1,2,-1
 100 400 l 1,3,-1
 100 600 l 1,4,-1
 500 600 l 1,5,-1
 500 500 l 1,6,-1
 600 500 l 1,7,-1
 600 400 l 1,8,-1
 700 400 l 1,9,-1
 700 200 l 1,10,-1
 600 200 l 1,11,-1
 600 100 l 1,12,-1
 500 100 l 1,13,-1
 500 0 l 1,14,-1
 100 0 l 1,15,-1
 100 300 l 1,0,-1
400 100 m 1,16,-1
 400 200 l 1,17,-1
 500 200 l 1,18,-1
 500 400 l 1,19,-1
 400 400 l 1,20,-1
 400 500 l 1,21,-1
 300 500 l 1,22,-1
 300 400 l 1,23,-1
 400 400 l 1,24,-1
 400 300 l 1,25,-1
 300 300 l 1,26,-1
 300 100 l 1,27,-1
 400 100 l 1,16,-1
EndSplineSet
EndChar

StartChar: E
Encoding: 69 69 15
Width: 800
GlyphClass: 1
Flags: W
LayerCount: 2
Fore
SplineSet
100 600 m 1,0,-1
 700 600 l 1,1,-1
 700 500 l 1,2,-1
 300 500 l 1,3,-1
 300 400 l 1,4,-1
 600 400 l 1,5,-1
 600 300 l 1,6,-1
 300 300 l 1,7,-1
 300 100 l 1,8,-1
 700 100 l 1,9,-1
 700 0 l 1,10,-1
 100 0 l 1,11,-1
 100 600 l 1,0,-1
EndSplineSet
EndChar

StartChar: Eacute
Encoding: 201 201 16
Width: 800
GlyphClass: 1
Flags: W
LayerCount: 2
Fore
SplineSet
100 400 m 1,0,-1
 700 400 l 1,1,-1
 700 300 l 1,2,-1
 300 300 l 1,3,-1
 300 200 l 1,4,-1
 500 200 l 1,5,-1
 500 100 l 1,6,-1
 700 100 l 1,7,-1
 700 0 l 1,8,-1
 100 0 l 1,9,-1
 100 400 l 1,0,-1
300 600 m 1,10,-1
 400 600 l 1,11,-1
 400 700 l 1,12,-1
 600 700 l 1,13,-1
 600 600 l 1,14,-1
 500 600 l 1,15,-1
 500 500 l 1,16,-1
 300 500 l 1,17,-1
 300 600 l 1,10,-1
EndSplineSet
EndChar

StartChar: Ecircumflex
Encoding: 202 202 17
Width: 800
GlyphClass: 1
Flags: W
LayerCount: 2
Fore
SplineSet
700 400 m 1,0,-1
 700 300 l 1,1,-1
 300 300 l 1,2,-1
 300 200 l 1,3,-1
 500 200 l 1,4,-1
 500 100 l 1,5,-1
 700 100 l 1,6,-1
 700 0 l 1,7,-1
 100 0 l 1,8,-1
 100 400 l 1,9,-1
 700 400 l 1,0,-1
100 600 m 1,10,-1
 300 600 l 1,11,-1
 300 500 l 1,12,-1
 100 500 l 1,13,-1
 100 600 l 1,10,-1
300 700 m 1,14,-1
 500 700 l 1,15,-1
 500 600 l 1,16,-1
 300 600 l 1,17,-1
 300 700 l 1,14,-1
500 600 m 1,18,-1
 700 600 l 1,19,-1
 700 500 l 1,20,-1
 500 500 l 1,21,-1
 500 600 l 1,18,-1
EndSplineSet
EndChar

StartChar: Edieresis
Encoding: 203 203 18
Width: 800
GlyphClass: 1
Flags: W
LayerCount: 2
Fore
SplineSet
100 500 m 1,0,-1
 700 500 l 1,1,-1
 700 400 l 1,2,-1
 300 400 l 1,3,-1
 300 300 l 1,4,-1
 600 300 l 1,5,-1
 600 200 l 1,6,-1
 300 200 l 1,7,-1
 300 100 l 1,8,-1
 700 100 l 1,9,-1
 700 0 l 1,10,-1
 100 0 l 1,11,-1
 100 500 l 1,0,-1
100 700 m 1,12,-1
 300 700 l 1,13,-1
 300 600 l 1,14,-1
 100 600 l 1,15,-1
 100 700 l 1,12,-1
500 700 m 1,16,-1
 700 700 l 1,17,-1
 700 600 l 1,18,-1
 500 600 l 1,19,-1
 500 700 l 1,16,-1
EndSplineSet
EndChar

StartChar: Egrave
Encoding: 200 200 19
Width: 800
GlyphClass: 1
Flags: W
LayerCount: 2
Fore
SplineSet
100 400 m 1,0,-1
 700 400 l 1,1,-1
 700 300 l 1,2,-1
 300 300 l 1,3,-1
 300 200 l 1,4,-1
 500 200 l 1,5,-1
 500 100 l 1,6,-1
 700 100 l 1,7,-1
 700 0 l 1,8,-1
 100 0 l 1,9,-1
 100 400 l 1,0,-1
200 700 m 1,10,-1
 400 700 l 1,11,-1
 400 600 l 1,12,-1
 500 600 l 1,13,-1
 500 500 l 1,14,-1
 300 500 l 1,15,-1
 300 600 l 1,16,-1
 200 600 l 1,17,-1
 200 700 l 1,10,-1
EndSplineSet
EndChar

StartChar: F
Encoding: 70 70 20
Width: 800
GlyphClass: 1
Flags: W
LayerCount: 2
Fore
SplineSet
100 600 m 1,0,-1
 700 600 l 1,1,-1
 700 500 l 1,2,-1
 300 500 l 1,3,-1
 300 400 l 1,4,-1
 600 400 l 1,5,-1
 600 300 l 1,6,-1
 300 300 l 1,7,-1
 300 0 l 1,8,-1
 100 0 l 1,9,-1
 100 600 l 1,0,-1
EndSplineSet
EndChar

StartChar: G
Encoding: 71 71 21
Width: 800
GlyphClass: 1
Flags: W
LayerCount: 2
Fore
SplineSet
200 100 m 1,0,-1
 100 100 l 1,1,-1
 100 500 l 1,2,-1
 200 500 l 1,3,-1
 200 600 l 1,4,-1
 700 600 l 1,5,-1
 700 500 l 1,6,-1
 300 500 l 1,7,-1
 300 100 l 1,8,-1
 500 100 l 1,9,-1
 500 200 l 1,10,-1
 400 200 l 1,11,-1
 400 300 l 1,12,-1
 700 300 l 1,13,-1
 700 0 l 1,14,-1
 200 0 l 1,15,-1
 200 100 l 1,0,-1
EndSplineSet
EndChar

StartChar: H
Encoding: 72 72 22
Width: 800
GlyphClass: 1
Flags: W
LayerCount: 2
Fore
SplineSet
100 600 m 1,0,-1
 300 600 l 1,1,-1
 300 400 l 1,2,-1
 500 400 l 1,3,-1
 500 600 l 1,4,-1
 700 600 l 1,5,-1
 700 0 l 1,6,-1
 500 0 l 1,7,-1
 500 300 l 1,8,-1
 300 300 l 1,9,-1
 300 0 l 1,10,-1
 100 0 l 1,11,-1
 100 600 l 1,0,-1
EndSplineSet
EndChar

StartChar: I
Encoding: 73 73 23
Width: 800
GlyphClass: 1
Flags: W
LayerCount: 2
Fore
SplineSet
100 100 m 1,0,-1
 300 100 l 1,1,-1
 300 500 l 1,2,-1
 100 500 l 1,3,-1
 100 600 l 1,4,-1
 700 600 l 1,5,-1
 700 500 l 1,6,-1
 500 500 l 1,7,-1
 500 100 l 1,8,-1
 700 100 l 1,9,-1
 700 0 l 1,10,-1
 100 0 l 1,11,-1
 100 100 l 1,0,-1
EndSplineSet
EndChar

StartChar: Iacute
Encoding: 205 205 24
Width: 800
GlyphClass: 1
Flags: W
LayerCount: 2
Fore
SplineSet
100 100 m 1,0,-1
 300 100 l 1,1,-1
 300 300 l 1,2,-1
 100 300 l 1,3,-1
 100 400 l 1,4,-1
 700 400 l 1,5,-1
 700 300 l 1,6,-1
 500 300 l 1,7,-1
 500 100 l 1,8,-1
 700 100 l 1,9,-1
 700 0 l 1,10,-1
 100 0 l 1,11,-1
 100 100 l 1,0,-1
300 600 m 1,12,-1
 400 600 l 1,13,-1
 400 700 l 1,14,-1
 600 700 l 1,15,-1
 600 600 l 1,16,-1
 500 600 l 1,17,-1
 500 500 l 1,18,-1
 300 500 l 1,19,-1
 300 600 l 1,12,-1
EndSplineSet
EndChar

StartChar: Icircumflex
Encoding: 206 206 25
Width: 800
GlyphClass: 1
Flags: W
LayerCount: 2
Fore
SplineSet
100 100 m 1,0,-1
 300 100 l 1,1,-1
 300 300 l 1,2,-1
 100 300 l 1,3,-1
 100 400 l 1,4,-1
 700 400 l 1,5,-1
 700 300 l 1,6,-1
 500 300 l 1,7,-1
 500 100 l 1,8,-1
 700 100 l 1,9,-1
 700 0 l 1,10,-1
 100 0 l 1,11,-1
 100 100 l 1,0,-1
100 600 m 1,12,-1
 300 600 l 1,13,-1
 300 500 l 1,14,-1
 100 500 l 1,15,-1
 100 600 l 1,12,-1
300 700 m 1,16,-1
 500 700 l 1,17,-1
 500 600 l 1,18,-1
 300 600 l 1,19,-1
 300 700 l 1,16,-1
500 600 m 1,20,-1
 700 600 l 1,21,-1
 700 500 l 1,22,-1
 500 500 l 1,23,-1
 500 600 l 1,20,-1
EndSplineSet
EndChar

StartChar: Idieresis
Encoding: 207 207 26
Width: 800
GlyphClass: 1
Flags: W
LayerCount: 2
Fore
SplineSet
100 700 m 1,0,-1
 300 700 l 1,1,-1
 300 600 l 1,2,-1
 100 600 l 1,3,-1
 100 700 l 1,0,-1
100 100 m 1,4,-1
 300 100 l 1,5,-1
 300 400 l 1,6,-1
 100 400 l 1,7,-1
 100 500 l 1,8,-1
 700 500 l 1,9,-1
 700 400 l 1,10,-1
 500 400 l 1,11,-1
 500 100 l 1,12,-1
 700 100 l 1,13,-1
 700 0 l 1,14,-1
 100 0 l 1,15,-1
 100 100 l 1,4,-1
500 700 m 1,16,-1
 700 700 l 1,17,-1
 700 600 l 1,18,-1
 500 600 l 1,19,-1
 500 700 l 1,16,-1
EndSplineSet
EndChar

StartChar: Igrave
Encoding: 204 204 27
Width: 800
GlyphClass: 1
Flags: W
LayerCount: 2
Fore
SplineSet
200 700 m 1,0,-1
 400 700 l 1,1,-1
 400 600 l 1,2,-1
 500 600 l 1,3,-1
 500 500 l 1,4,-1
 300 500 l 1,5,-1
 300 600 l 1,6,-1
 200 600 l 1,7,-1
 200 700 l 1,0,-1
100 100 m 1,8,-1
 300 100 l 1,9,-1
 300 300 l 1,10,-1
 100 300 l 1,11,-1
 100 400 l 1,12,-1
 700 400 l 1,13,-1
 700 300 l 1,14,-1
 500 300 l 1,15,-1
 500 100 l 1,16,-1
 700 100 l 1,17,-1
 700 0 l 1,18,-1
 100 0 l 1,19,-1
 100 100 l 1,8,-1
EndSplineSet
EndChar

StartChar: J
Encoding: 74 74 28
Width: 800
GlyphClass: 1
Flags: W
LayerCount: 2
Fore
SplineSet
200 100 m 1,0,-1
 100 100 l 1,1,-1
 100 200 l 1,2,-1
 300 200 l 1,3,-1
 300 100 l 1,4,-1
 500 100 l 1,5,-1
 500 600 l 1,6,-1
 700 600 l 1,7,-1
 700 100 l 1,8,-1
 600 100 l 1,9,-1
 600 0 l 1,10,-1
 200 0 l 1,11,-1
 200 100 l 1,0,-1
EndSplineSet
EndChar

StartChar: K
Encoding: 75 75 29
Width: 800
GlyphClass: 1
Flags: W
LayerCount: 2
Fore
SplineSet
100 600 m 1,0,-1
 300 600 l 1,1,-1
 300 400 l 1,2,-1
 400 400 l 1,3,-1
 400 500 l 1,4,-1
 500 500 l 1,5,-1
 500 600 l 1,6,-1
 700 600 l 1,7,-1
 700 500 l 1,8,-1
 600 500 l 1,9,-1
 600 400 l 1,10,-1
 500 400 l 1,11,-1
 500 200 l 1,12,-1
 600 200 l 1,13,-1
 600 100 l 1,14,-1
 700 100 l 1,15,-1
 700 0 l 1,16,-1
 500 0 l 1,17,-1
 500 100 l 1,18,-1
 400 100 l 1,19,-1
 400 200 l 1,20,-1
 300 200 l 1,21,-1
 300 0 l 1,22,-1
 100 0 l 1,23,-1
 100 600 l 1,0,-1
EndSplineSet
EndChar

StartChar: L
Encoding: 76 76 30
Width: 800
GlyphClass: 1
Flags: W
LayerCount: 2
Fore
SplineSet
100 600 m 1,0,-1
 300 600 l 1,1,-1
 300 100 l 1,2,-1
 700 100 l 1,3,-1
 700 0 l 1,4,-1
 100 0 l 1,5,-1
 100 600 l 1,0,-1
EndSplineSet
EndChar

StartChar: Lslash
Encoding: 321 321 31
Width: 800
GlyphClass: 1
Flags: W
LayerCount: 2
Fore
SplineSet
100 300 m 1,0,-1
 200 300 l 1,1,-1
 200 600 l 1,2,-1
 400 600 l 1,3,-1
 400 400 l 1,4,-1
 500 400 l 1,5,-1
 500 300 l 1,6,-1
 400 300 l 1,7,-1
 400 100 l 1,8,-1
 700 100 l 1,9,-1
 700 0 l 1,10,-1
 200 0 l 1,11,-1
 200 200 l 1,12,-1
 100 200 l 1,13,-1
 100 300 l 1,0,-1
EndSplineSet
EndChar

StartChar: M
Encoding: 77 77 32
Width: 800
GlyphClass: 1
Flags: W
LayerCount: 2
Fore
SplineSet
100 600 m 1,0,-1
 300 600 l 1,1,-1
 300 500 l 1,2,-1
 400 500 l 1,3,-1
 400 400 l 1,4,-1
 500 400 l 1,5,-1
 500 500 l 1,6,-1
 600 500 l 1,7,-1
 600 600 l 1,8,-1
 800 600 l 1,9,-1
 800 0 l 1,10,-1
 600 0 l 1,11,-1
 600 300 l 1,12,-1
 500 300 l 1,13,-1
 500 200 l 1,14,-1
 400 200 l 1,15,-1
 400 300 l 1,16,-1
 300 300 l 1,17,-1
 300 0 l 1,18,-1
 100 0 l 1,19,-1
 100 600 l 1,0,-1
EndSplineSet
EndChar

StartChar: N
Encoding: 78 78 33
Width: 800
GlyphClass: 1
Flags: W
LayerCount: 2
Fore
SplineSet
100 600 m 1,0,-1
 300 600 l 1,1,-1
 300 500 l 1,2,-1
 400 500 l 1,3,-1
 400 400 l 1,4,-1
 500 400 l 1,5,-1
 500 600 l 1,6,-1
 700 600 l 1,7,-1
 700 0 l 1,8,-1
 500 0 l 1,9,-1
 500 100 l 1,10,-1
 400 100 l 1,11,-1
 400 200 l 1,12,-1
 300 200 l 1,13,-1
 300 0 l 1,14,-1
 100 0 l 1,15,-1
 100 600 l 1,0,-1
EndSplineSet
EndChar

StartChar: Ntilde
Encoding: 209 209 34
Width: 800
GlyphClass: 1
Flags: W
LayerCount: 2
Fore
SplineSet
100 400 m 1,0,-1
 300 400 l 1,1,-1
 300 300 l 1,2,-1
 400 300 l 1,3,-1
 400 200 l 1,4,-1
 300 200 l 1,5,-1
 300 0 l 1,6,-1
 100 0 l 1,7,-1
 100 400 l 1,0,-1
100 600 m 1,8,-1
 200 600 l 1,9,-1
 200 500 l 1,10,-1
 100 500 l 1,11,-1
 100 600 l 1,8,-1
200 700 m 1,12,-1
 400 700 l 1,13,-1
 400 600 l 1,14,-1
 500 600 l 1,15,-1
 500 500 l 1,16,-1
 300 500 l 1,17,-1
 300 600 l 1,18,-1
 200 600 l 1,19,-1
 200 700 l 1,12,-1
400 200 m 1,20,-1
 500 200 l 1,21,-1
 500 400 l 1,22,-1
 700 400 l 1,23,-1
 700 0 l 1,24,-1
 500 0 l 1,25,-1
 500 100 l 1,26,-1
 400 100 l 1,27,-1
 400 200 l 1,20,-1
500 700 m 1,28,-1
 600 700 l 1,29,-1
 600 600 l 1,30,-1
 500 600 l 1,31,-1
 500 700 l 1,28,-1
EndSplineSet
EndChar

StartChar: O
Encoding: 79 79 35
Width: 800
GlyphClass: 1
Flags: W
LayerCount: 2
Fore
SplineSet
200 100 m 1,0,-1
 100 100 l 1,1,-1
 100 500 l 1,2,-1
 200 500 l 1,3,-1
 200 600 l 1,4,-1
 600 600 l 1,5,-1
 600 500 l 1,6,-1
 700 500 l 1,7,-1
 700 100 l 1,8,-1
 600 100 l 1,9,-1
 600 0 l 1,10,-1
 200 0 l 1,11,-1
 200 100 l 1,0,-1
500 100 m 1,12,-1
 500 500 l 1,13,-1
 300 500 l 1,14,-1
 300 100 l 1,15,-1
 500 100 l 1,12,-1
EndSplineSet
EndChar

StartChar: Oacute
Encoding: 211 211 36
Width: 800
GlyphClass: 1
Flags: W
LayerCount: 2
Fore
SplineSet
300 600 m 1,0,-1
 400 600 l 1,1,-1
 400 700 l 1,2,-1
 600 700 l 1,3,-1
 600 600 l 1,4,-1
 500 600 l 1,5,-1
 500 500 l 1,6,-1
 300 500 l 1,7,-1
 300 600 l 1,0,-1
100 300 m 1,8,-1
 200 300 l 1,9,-1
 200 400 l 1,10,-1
 600 400 l 1,11,-1
 600 300 l 1,12,-1
 700 300 l 1,13,-1
 700 100 l 1,14,-1
 600 100 l 1,15,-1
 600 0 l 1,16,-1
 200 0 l 1,17,-1
 200 100 l 1,18,-1
 100 100 l 1,19,-1
 100 300 l 1,8,-1
500 100 m 1,20,-1
 500 300 l 1,21,-1
 300 300 l 1,22,-1
 300 100 l 1,23,-1
 500 100 l 1,20,-1
EndSplineSet
EndChar

StartChar: Ocircumflex
Encoding: 212 212 37
Width: 800
GlyphClass: 1
Flags: W
LayerCount: 2
Fore
SplineSet
100 100 m 1,0,-1
 100 300 l 1,1,-1
 200 300 l 1,2,-1
 200 400 l 1,3,-1
 600 400 l 1,4,-1
 600 300 l 1,5,-1
 700 300 l 1,6,-1
 700 100 l 1,7,-1
 600 100 l 1,8,-1
 600 0 l 1,9,-1
 200 0 l 1,10,-1
 200 100 l 1,11,-1
 100 100 l 1,0,-1
100 600 m 1,12,-1
 300 600 l 1,13,-1
 300 500 l 1,14,-1
 100 500 l 1,15,-1
 100 600 l 1,12,-1
500 100 m 1,16,-1
 500 300 l 1,17,-1
 300 300 l 1,18,-1
 300 100 l 1,19,-1
 500 100 l 1,16,-1
300 700 m 1,20,-1
 500 700 l 1,21,-1
 500 600 l 1,22,-1
 300 600 l 1,23,-1
 300 700 l 1,20,-1
500 600 m 1,24,-1
 700 600 l 1,25,-1
 700 500 l 1,26,-1
 500 500 l 1,27,-1
 500 600 l 1,24,-1
EndSplineSet
EndChar

StartChar: Odieresis
Encoding: 214 214 38
Width: 800
GlyphClass: 1
Flags: W
LayerCount: 2
Fore
SplineSet
100 700 m 1,0,-1
 300 700 l 1,1,-1
 300 600 l 1,2,-1
 100 600 l 1,3,-1
 100 700 l 1,0,-1
100 400 m 1,4,-1
 200 400 l 1,5,-1
 200 500 l 1,6,-1
 600 500 l 1,7,-1
 600 400 l 1,8,-1
 700 400 l 1,9,-1
 700 100 l 1,10,-1
 600 100 l 1,11,-1
 600 0 l 1,12,-1
 200 0 l 1,13,-1
 200 100 l 1,14,-1
 100 100 l 1,15,-1
 100 400 l 1,4,-1
500 100 m 1,16,-1
 500 400 l 1,17,-1
 300 400 l 1,18,-1
 300 100 l 1,19,-1
 500 100 l 1,16,-1
500 700 m 1,20,-1
 700 700 l 1,21,-1
 700 600 l 1,22,-1
 500 600 l 1,23,-1
 500 700 l 1,20,-1
EndSplineSet
EndChar

StartChar: Ograve
Encoding: 210 210 39
Width: 800
GlyphClass: 1
Flags: W
LayerCount: 2
Fore
SplineSet
300 600 m 1,0,-1
 200 600 l 1,1,-1
 200 700 l 1,2,-1
 400 700 l 1,3,-1
 400 600 l 1,4,-1
 500 600 l 1,5,-1
 500 500 l 1,6,-1
 300 500 l 1,7,-1
 300 600 l 1,0,-1
100 300 m 1,8,-1
 200 300 l 1,9,-1
 200 400 l 1,10,-1
 600 400 l 1,11,-1
 600 300 l 1,12,-1
 700 300 l 1,13,-1
 700 100 l 1,14,-1
 600 100 l 1,15,-1
 600 0 l 1,16,-1
 200 0 l 1,17,-1
 200 100 l 1,18,-1
 100 100 l 1,19,-1
 100 300 l 1,8,-1
500 100 m 1,20,-1
 500 300 l 1,21,-1
 300 300 l 1,22,-1
 300 100 l 1,23,-1
 500 100 l 1,20,-1
EndSplineSet
EndChar

StartChar: Oslash
Encoding: 216 216 40
Width: 800
GlyphClass: 1
Flags: W
LayerCount: 2
Fore
SplineSet
200 600 m 1,0,-1
 600 600 l 1,1,-1
 600 500 l 1,2,-1
 700 500 l 1,3,-1
 700 100 l 1,4,-1
 600 100 l 1,5,-1
 600 0 l 1,6,-1
 200 0 l 1,7,-1
 200 100 l 1,8,-1
 100 100 l 1,9,-1
 100 500 l 1,10,-1
 200 500 l 1,11,-1
 200 600 l 1,0,-1
100 0 m 1,12,-1
 200 0 l 1,13,-1
 200 -100 l 1,14,-1
 100 -100 l 1,15,-1
 100 0 l 1,12,-1
500 100 m 1,16,-1
 500 300 l 1,17,-1
 400 300 l 1,18,-1
 400 400 l 1,19,-1
 500 400 l 1,20,-1
 500 500 l 1,21,-1
 300 500 l 1,22,-1
 300 300 l 1,23,-1
 400 300 l 1,24,-1
 400 200 l 1,25,-1
 300 200 l 1,26,-1
 300 100 l 1,27,-1
 500 100 l 1,16,-1
600 700 m 1,28,-1
 700 700 l 1,29,-1
 700 600 l 1,30,-1
 600 600 l 1,31,-1
 600 700 l 1,28,-1
EndSplineSet
EndChar

StartChar: Otilde
Encoding: 213 213 41
Width: 800
GlyphClass: 1
Flags: W
LayerCount: 2
Fore
SplineSet
200 100 m 1,0,-1
 100 100 l 1,1,-1
 100 300 l 1,2,-1
 200 300 l 1,3,-1
 200 400 l 1,4,-1
 600 400 l 1,5,-1
 600 300 l 1,6,-1
 700 300 l 1,7,-1
 700 100 l 1,8,-1
 600 100 l 1,9,-1
 600 0 l 1,10,-1
 200 0 l 1,11,-1
 200 100 l 1,0,-1
100 600 m 1,12,-1
 200 600 l 1,13,-1
 200 500 l 1,14,-1
 100 500 l 1,15,-1
 100 600 l 1,12,-1
200 700 m 1,16,-1
 400 700 l 1,17,-1
 400 600 l 1,18,-1
 500 600 l 1,19,-1
 500 500 l 1,20,-1
 300 500 l 1,21,-1
 300 600 l 1,22,-1
 200 600 l 1,23,-1
 200 700 l 1,16,-1
500 100 m 1,24,-1
 500 300 l 1,25,-1
 300 300 l 1,26,-1
 300 100 l 1,27,-1
 500 100 l 1,24,-1
500 700 m 1,28,-1
 600 700 l 1,29,-1
 600 600 l 1,30,-1
 500 600 l 1,31,-1
 500 700 l 1,28,-1
EndSplineSet
EndChar

StartChar: OE
Encoding: 338 338 42
Width: 800
GlyphClass: 1
Flags: W
LayerCount: 2
Fore
SplineSet
100 100 m 1,0,-1
 0 100 l 1,1,-1
 0 600 l 1,2,-1
 100 600 l 1,3,-1
 100 700 l 1,4,-1
 800 700 l 1,5,-1
 800 600 l 1,6,-1
 500 600 l 1,7,-1
 500 400 l 1,8,-1
 700 400 l 1,9,-1
 700 300 l 1,10,-1
 500 300 l 1,11,-1
 500 100 l 1,12,-1
 800 100 l 1,13,-1
 800 0 l 1,14,-1
 100 0 l 1,15,-1
 100 100 l 1,0,-1
300 100 m 1,16,-1
 300 600 l 1,17,-1
 200 600 l 1,18,-1
 200 100 l 1,19,-1
 300 100 l 1,16,-1
EndSplineSet
EndChar

StartChar: P
Encoding: 80 80 43
Width: 800
GlyphClass: 1
Flags: W
LayerCount: 2
Fore
SplineSet
100 600 m 1,0,-1
 600 600 l 1,1,-1
 600 500 l 1,2,-1
 700 500 l 1,3,-1
 700 300 l 1,4,-1
 600 300 l 1,5,-1
 600 200 l 1,6,-1
 300 200 l 1,7,-1
 300 0 l 1,8,-1
 100 0 l 1,9,-1
 100 600 l 1,0,-1
500 300 m 1,10,-1
 500 500 l 1,11,-1
 300 500 l 1,12,-1
 300 300 l 1,13,-1
 500 300 l 1,10,-1
EndSplineSet
EndChar

StartChar: Thorn
Encoding: 222 222 44
Width: 800
GlyphClass: 1
Flags: W
LayerCount: 2
Fore
SplineSet
200 600 m 1,0,-1
 400 600 l 1,1,-1
 400 500 l 1,2,-1
 600 500 l 1,3,-1
 600 400 l 1,4,-1
 700 400 l 1,5,-1
 700 100 l 1,6,-1
 600 100 l 1,7,-1
 600 0 l 1,8,-1
 400 0 l 1,9,-1
 400 -100 l 1,10,-1
 200 -100 l 1,11,-1
 200 600 l 1,0,-1
500 100 m 1,12,-1
 500 400 l 1,13,-1
 400 400 l 1,14,-1
 400 100 l 1,15,-1
 500 100 l 1,12,-1
EndSplineSet
EndChar

StartChar: Q
Encoding: 81 81 45
Width: 800
GlyphClass: 1
Flags: W
LayerCount: 2
Fore
SplineSet
200 100 m 1,0,-1
 100 100 l 1,1,-1
 100 500 l 1,2,-1
 200 500 l 1,3,-1
 200 600 l 1,4,-1
 600 600 l 1,5,-1
 600 500 l 1,6,-1
 700 500 l 1,7,-1
 700 200 l 1,8,-1
 600 200 l 1,9,-1
 600 100 l 1,10,-1
 700 100 l 1,11,-1
 700 0 l 1,12,-1
 500 0 l 1,13,-1
 500 100 l 1,14,-1
 400 100 l 1,15,-1
 400 200 l 1,16,-1
 500 200 l 1,17,-1
 500 500 l 1,18,-1
 300 500 l 1,19,-1
 300 100 l 1,20,-1
 400 100 l 1,21,-1
 400 0 l 1,22,-1
 200 0 l 1,23,-1
 200 100 l 1,0,-1
EndSplineSet
EndChar

StartChar: R
Encoding: 82 82 46
Width: 800
GlyphClass: 1
Flags: W
LayerCount: 2
Fore
SplineSet
100 600 m 1,0,-1
 600 600 l 1,1,-1
 600 500 l 1,2,-1
 700 500 l 1,3,-1
 700 300 l 1,4,-1
 600 300 l 1,5,-1
 600 100 l 1,6,-1
 700 100 l 1,7,-1
 700 0 l 1,8,-1
 500 0 l 1,9,-1
 500 100 l 1,10,-1
 400 100 l 1,11,-1
 400 200 l 1,12,-1
 300 200 l 1,13,-1
 300 0 l 1,14,-1
 100 0 l 1,15,-1
 100 600 l 1,0,-1
500 300 m 1,16,-1
 500 500 l 1,17,-1
 300 500 l 1,18,-1
 300 300 l 1,19,-1
 500 300 l 1,16,-1
EndSplineSet
EndChar

StartChar: S
Encoding: 83 83 47
Width: 800
GlyphClass: 1
Flags: W
LayerCount: 2
Fore
SplineSet
200 100 m 1,0,-1
 500 100 l 1,1,-1
 500 300 l 1,2,-1
 200 300 l 1,3,-1
 200 400 l 1,4,-1
 100 400 l 1,5,-1
 100 500 l 1,6,-1
 200 500 l 1,7,-1
 200 600 l 1,8,-1
 600 600 l 1,9,-1
 600 500 l 1,10,-1
 300 500 l 1,11,-1
 300 400 l 1,12,-1
 600 400 l 1,13,-1
 600 300 l 1,14,-1
 700 300 l 1,15,-1
 700 100 l 1,16,-1
 600 100 l 1,17,-1
 600 0 l 1,18,-1
 200 0 l 1,19,-1
 200 100 l 1,0,-1
EndSplineSet
EndChar

StartChar: Scaron
Encoding: 352 352 48
Width: 800
GlyphClass: 1
Flags: W
LayerCount: 2
Fore
SplineSet
200 700 m 1,0,-1
 300 700 l 1,1,-1
 300 600 l 1,2,-1
 200 600 l 1,3,-1
 200 700 l 1,0,-1
100 400 m 1,4,-1
 200 400 l 1,5,-1
 200 500 l 1,6,-1
 300 500 l 1,7,-1
 300 600 l 1,8,-1
 500 600 l 1,9,-1
 500 500 l 1,10,-1
 600 500 l 1,11,-1
 600 400 l 1,12,-1
 300 400 l 1,13,-1
 300 300 l 1,14,-1
 600 300 l 1,15,-1
 600 200 l 1,16,-1
 700 200 l 1,17,-1
 700 100 l 1,18,-1
 600 100 l 1,19,-1
 600 0 l 1,20,-1
 200 0 l 1,21,-1
 200 100 l 1,22,-1
 500 100 l 1,23,-1
 500 200 l 1,24,-1
 200 200 l 1,25,-1
 200 300 l 1,26,-1
 100 300 l 1,27,-1
 100 400 l 1,4,-1
500 700 m 1,28,-1
 600 700 l 1,29,-1
 600 600 l 1,30,-1
 500 600 l 1,31,-1
 500 700 l 1,28,-1
EndSplineSet
EndChar

StartChar: uni1E9E
Encoding: 7838 7838 49
Width: 800
GlyphClass: 1
Flags: W
LayerCount: 2
Fore
SplineSet
600 600 m 1,0,-1
 600 500 l 1,1,-1
 700 500 l 1,2,-1
 700 400 l 1,3,-1
 600 400 l 1,4,-1
 600 300 l 1,5,-1
 700 300 l 1,6,-1
 700 100 l 1,7,-1
 600 100 l 1,8,-1
 600 0 l 1,9,-1
 400 0 l 1,10,-1
 400 100 l 1,11,-1
 500 100 l 1,12,-1
 500 300 l 1,13,-1
 400 300 l 1,14,-1
 400 400 l 1,15,-1
 500 400 l 1,16,-1
 500 500 l 1,17,-1
 300 500 l 1,18,-1
 300 -100 l 1,19,-1
 100 -100 l 1,20,-1
 100 600 l 1,21,-1
 600 600 l 1,0,-1
EndSplineSet
EndChar

StartChar: T
Encoding: 84 84 50
Width: 800
GlyphClass: 1
Flags: W
LayerCount: 2
Fore
SplineSet
300 500 m 1,0,-1
 100 500 l 1,1,-1
 100 600 l 1,2,-1
 700 600 l 1,3,-1
 700 500 l 1,4,-1
 500 500 l 1,5,-1
 500 0 l 1,6,-1
 300 0 l 1,7,-1
 300 500 l 1,0,-1
EndSplineSet
EndChar

StartChar: U
Encoding: 85 85 51
Width: 800
GlyphClass: 1
Flags: W
LayerCount: 2
Fore
SplineSet
300 600 m 1,0,-1
 300 100 l 1,1,-1
 500 100 l 1,2,-1
 500 600 l 1,3,-1
 700 600 l 1,4,-1
 700 0 l 1,5,-1
 100 0 l 1,6,-1
 100 600 l 1,7,-1
 300 600 l 1,0,-1
EndSplineSet
EndChar

StartChar: Uacute
Encoding: 218 218 52
Width: 800
GlyphClass: 1
Flags: W
LayerCount: 2
Fore
SplineSet
300 500 m 1,0,-1
 300 100 l 1,1,-1
 500 100 l 1,2,-1
 500 500 l 1,3,-1
 700 500 l 1,4,-1
 700 0 l 1,5,-1
 100 0 l 1,6,-1
 100 500 l 1,7,-1
 300 500 l 1,0,-1
300 600 m 1,8,-1
 400 600 l 1,9,-1
 400 700 l 1,10,-1
 600 700 l 1,11,-1
 600 600 l 1,12,-1
 500 600 l 1,13,-1
 500 500 l 1,14,-1
 300 500 l 1,15,-1
 300 600 l 1,8,-1
EndSplineSet
EndChar

StartChar: Ucircumflex
Encoding: 219 219 53
Width: 800
GlyphClass: 1
Flags: W
LayerCount: 2
Fore
SplineSet
100 600 m 1,0,-1
 300 600 l 1,1,-1
 300 500 l 1,2,-1
 100 500 l 1,3,-1
 100 600 l 1,0,-1
100 400 m 1,4,-1
 300 400 l 1,5,-1
 300 100 l 1,6,-1
 500 100 l 1,7,-1
 500 400 l 1,8,-1
 700 400 l 1,9,-1
 700 0 l 1,10,-1
 100 0 l 1,11,-1
 100 400 l 1,4,-1
300 700 m 1,12,-1
 500 700 l 1,13,-1
 500 600 l 1,14,-1
 300 600 l 1,15,-1
 300 700 l 1,12,-1
500 600 m 1,16,-1
 700 600 l 1,17,-1
 700 500 l 1,18,-1
 500 500 l 1,19,-1
 500 600 l 1,16,-1
EndSplineSet
EndChar

StartChar: Udieresis
Encoding: 220 220 54
Width: 800
GlyphClass: 1
Flags: W
LayerCount: 2
Fore
SplineSet
100 700 m 1,0,-1
 300 700 l 1,1,-1
 300 600 l 1,2,-1
 100 600 l 1,3,-1
 100 700 l 1,0,-1
100 500 m 1,4,-1
 300 500 l 1,5,-1
 300 100 l 1,6,-1
 500 100 l 1,7,-1
 500 500 l 1,8,-1
 700 500 l 1,9,-1
 700 0 l 1,10,-1
 100 0 l 1,11,-1
 100 500 l 1,4,-1
500 700 m 1,12,-1
 700 700 l 1,13,-1
 700 600 l 1,14,-1
 500 600 l 1,15,-1
 500 700 l 1,12,-1
EndSplineSet
EndChar

StartChar: Ugrave
Encoding: 217 217 55
Width: 800
GlyphClass: 1
Flags: W
LayerCount: 2
Fore
SplineSet
300 100 m 1,0,-1
 500 100 l 1,1,-1
 500 500 l 1,2,-1
 700 500 l 1,3,-1
 700 0 l 1,4,-1
 100 0 l 1,5,-1
 100 500 l 1,6,-1
 300 500 l 1,7,-1
 300 100 l 1,0,-1
200 700 m 1,8,-1
 400 700 l 1,9,-1
 400 600 l 1,10,-1
 500 600 l 1,11,-1
 500 500 l 1,12,-1
 300 500 l 1,13,-1
 300 600 l 1,14,-1
 200 600 l 1,15,-1
 200 700 l 1,8,-1
EndSplineSet
EndChar

StartChar: V
Encoding: 86 86 56
Width: 800
GlyphClass: 1
Flags: W
LayerCount: 2
Fore
SplineSet
300 100 m 1,0,-1
 200 100 l 1,1,-1
 200 200 l 1,2,-1
 100 200 l 1,3,-1
 100 600 l 1,4,-1
 300 600 l 1,5,-1
 300 200 l 1,6,-1
 500 200 l 1,7,-1
 500 600 l 1,8,-1
 700 600 l 1,9,-1
 700 200 l 1,10,-1
 600 200 l 1,11,-1
 600 100 l 1,12,-1
 500 100 l 1,13,-1
 500 0 l 1,14,-1
 300 0 l 1,15,-1
 300 100 l 1,0,-1
EndSplineSet
EndChar

StartChar: W
Encoding: 87 87 57
Width: 800
GlyphClass: 1
Flags: W
LayerCount: 2
Fore
SplineSet
100 600 m 1,0,-1
 300 600 l 1,1,-1
 300 300 l 1,2,-1
 400 300 l 1,3,-1
 400 400 l 1,4,-1
 500 400 l 1,5,-1
 500 300 l 1,6,-1
 600 300 l 1,7,-1
 600 600 l 1,8,-1
 800 600 l 1,9,-1
 800 0 l 1,10,-1
 600 0 l 1,11,-1
 600 100 l 1,12,-1
 500 100 l 1,13,-1
 500 200 l 1,14,-1
 400 200 l 1,15,-1
 400 100 l 1,16,-1
 300 100 l 1,17,-1
 300 0 l 1,18,-1
 100 0 l 1,19,-1
 100 600 l 1,0,-1
EndSplineSet
EndChar

StartChar: X
Encoding: 88 88 58
Width: 800
GlyphClass: 1
Flags: W
LayerCount: 2
Fore
SplineSet
100 200 m 1,0,-1
 200 200 l 1,1,-1
 200 400 l 1,2,-1
 100 400 l 1,3,-1
 100 600 l 1,4,-1
 300 600 l 1,5,-1
 300 400 l 1,6,-1
 500 400 l 1,7,-1
 500 600 l 1,8,-1
 700 600 l 1,9,-1
 700 400 l 1,10,-1
 600 400 l 1,11,-1
 600 200 l 1,12,-1
 700 200 l 1,13,-1
 700 0 l 1,14,-1
 500 0 l 1,15,-1
 500 200 l 1,16,-1
 300 200 l 1,17,-1
 300 0 l 1,18,-1
 100 0 l 1,19,-1
 100 200 l 1,0,-1
EndSplineSet
EndChar

StartChar: Y
Encoding: 89 89 59
Width: 800
GlyphClass: 1
Flags: W
LayerCount: 2
Fore
SplineSet
300 600 m 1,0,-1
 300 400 l 1,1,-1
 500 400 l 1,2,-1
 500 600 l 1,3,-1
 700 600 l 1,4,-1
 700 400 l 1,5,-1
 600 400 l 1,6,-1
 600 300 l 1,7,-1
 500 300 l 1,8,-1
 500 0 l 1,9,-1
 300 0 l 1,10,-1
 300 300 l 1,11,-1
 200 300 l 1,12,-1
 200 400 l 1,13,-1
 100 400 l 1,14,-1
 100 600 l 1,15,-1
 300 600 l 1,0,-1
EndSplineSet
EndChar

StartChar: Yacute
Encoding: 221 221 60
Width: 800
GlyphClass: 1
Flags: W
LayerCount: 2
Fore
SplineSet
300 500 m 1,0,-1
 300 300 l 1,1,-1
 500 300 l 1,2,-1
 500 500 l 1,3,-1
 700 500 l 1,4,-1
 700 300 l 1,5,-1
 600 300 l 1,6,-1
 600 200 l 1,7,-1
 500 200 l 1,8,-1
 500 0 l 1,9,-1
 300 0 l 1,10,-1
 300 200 l 1,11,-1
 200 200 l 1,12,-1
 200 300 l 1,13,-1
 100 300 l 1,14,-1
 100 500 l 1,15,-1
 300 500 l 1,0,-1
300 600 m 1,16,-1
 400 600 l 1,17,-1
 400 700 l 1,18,-1
 600 700 l 1,19,-1
 600 600 l 1,20,-1
 500 600 l 1,21,-1
 500 500 l 1,22,-1
 300 500 l 1,23,-1
 300 600 l 1,16,-1
EndSplineSet
EndChar

StartChar: Ydieresis
Encoding: 376 376 61
Width: 800
GlyphClass: 1
Flags: W
LayerCount: 2
Fore
SplineSet
300 500 m 1,0,-1
 300 300 l 1,1,-1
 500 300 l 1,2,-1
 500 500 l 1,3,-1
 700 500 l 1,4,-1
 700 300 l 1,5,-1
 600 300 l 1,6,-1
 600 200 l 1,7,-1
 500 200 l 1,8,-1
 500 0 l 1,9,-1
 300 0 l 1,10,-1
 300 200 l 1,11,-1
 200 200 l 1,12,-1
 200 300 l 1,13,-1
 100 300 l 1,14,-1
 100 500 l 1,15,-1
 300 500 l 1,0,-1
100 700 m 1,16,-1
 300 700 l 1,17,-1
 300 600 l 1,18,-1
 100 600 l 1,19,-1
 100 700 l 1,16,-1
500 700 m 1,20,-1
 700 700 l 1,21,-1
 700 600 l 1,22,-1
 500 600 l 1,23,-1
 500 700 l 1,20,-1
EndSplineSet
EndChar

StartChar: Z
Encoding: 90 90 62
Width: 800
GlyphClass: 1
Flags: W
LayerCount: 2
Fore
SplineSet
100 200 m 1,0,-1
 200 200 l 1,1,-1
 200 300 l 1,2,-1
 300 300 l 1,3,-1
 300 400 l 1,4,-1
 400 400 l 1,5,-1
 400 500 l 1,6,-1
 100 500 l 1,7,-1
 100 600 l 1,8,-1
 700 600 l 1,9,-1
 700 500 l 1,10,-1
 600 500 l 1,11,-1
 600 400 l 1,12,-1
 500 400 l 1,13,-1
 500 300 l 1,14,-1
 400 300 l 1,15,-1
 400 200 l 1,16,-1
 300 200 l 1,17,-1
 300 100 l 1,18,-1
 700 100 l 1,19,-1
 700 0 l 1,20,-1
 100 0 l 1,21,-1
 100 200 l 1,0,-1
EndSplineSet
EndChar

StartChar: Zcaron
Encoding: 381 381 63
Width: 800
GlyphClass: 1
Flags: W
LayerCount: 2
Fore
SplineSet
100 100 m 1,0,-1
 200 100 l 1,1,-1
 200 200 l 1,2,-1
 300 200 l 1,3,-1
 300 300 l 1,4,-1
 400 300 l 1,5,-1
 400 400 l 1,6,-1
 100 400 l 1,7,-1
 100 500 l 1,8,-1
 300 500 l 1,9,-1
 300 600 l 1,10,-1
 500 600 l 1,11,-1
 500 500 l 1,12,-1
 700 500 l 1,13,-1
 700 400 l 1,14,-1
 600 400 l 1,15,-1
 600 300 l 1,16,-1
 500 300 l 1,17,-1
 500 200 l 1,18,-1
 400 200 l 1,19,-1
 400 100 l 1,20,-1
 700 100 l 1,21,-1
 700 0 l 1,22,-1
 100 0 l 1,23,-1
 100 100 l 1,0,-1
200 700 m 1,24,-1
 300 700 l 1,25,-1
 300 600 l 1,26,-1
 200 600 l 1,27,-1
 200 700 l 1,24,-1
500 700 m 1,28,-1
 600 700 l 1,29,-1
 600 600 l 1,30,-1
 500 600 l 1,31,-1
 500 700 l 1,28,-1
EndSplineSet
EndChar

StartChar: u0132
Encoding: 306 306 64
Width: 800
GlyphClass: 1
Flags: W
LayerCount: 2
Fore
SplineSet
700 700 m 1,0,-1
 700 0 l 1,1,-1
 600 0 l 1,2,-1
 600 -100 l 1,3,-1
 300 -100 l 1,4,-1
 300 0 l 1,5,-1
 500 0 l 1,6,-1
 500 700 l 1,7,-1
 700 700 l 1,0,-1
0 200 m 1,8,-1
 100 200 l 1,9,-1
 100 600 l 1,10,-1
 0 600 l 1,11,-1
 0 700 l 1,12,-1
 400 700 l 1,13,-1
 400 600 l 1,14,-1
 300 600 l 1,15,-1
 300 200 l 1,16,-1
 400 200 l 1,17,-1
 400 100 l 1,18,-1
 0 100 l 1,19,-1
 0 200 l 1,8,-1
EndSplineSet
EndChar

StartChar: a
Encoding: 97 97 65
Width: 800
GlyphClass: 1
Flags: W
LayerCount: 2
Fore
SplineSet
200 100 m 1,0,-1
 100 100 l 1,1,-1
 100 200 l 1,2,-1
 200 200 l 1,3,-1
 200 300 l 1,4,-1
 500 300 l 1,5,-1
 500 400 l 1,6,-1
 200 400 l 1,7,-1
 200 500 l 1,8,-1
 600 500 l 1,9,-1
 600 400 l 1,10,-1
 700 400 l 1,11,-1
 700 0 l 1,12,-1
 200 0 l 1,13,-1
 200 100 l 1,0,-1
500 100 m 1,14,-1
 500 200 l 1,15,-1
 300 200 l 1,16,-1
 300 100 l 1,17,-1
 500 100 l 1,14,-1
EndSplineSet
EndChar

StartChar: aacute
Encoding: 225 225 66
Width: 800
GlyphClass: 1
Flags: W
LayerCount: 2
Fore
SplineSet
200 100 m 1,0,-1
 100 100 l 1,1,-1
 100 200 l 1,2,-1
 500 200 l 1,3,-1
 500 300 l 1,4,-1
 200 300 l 1,5,-1
 200 400 l 1,6,-1
 600 400 l 1,7,-1
 600 300 l 1,8,-1
 700 300 l 1,9,-1
 700 0 l 1,10,-1
 200 0 l 1,11,-1
 200 100 l 1,0,-1
300 600 m 1,12,-1
 400 600 l 1,13,-1
 400 700 l 1,14,-1
 600 700 l 1,15,-1
 600 600 l 1,16,-1
 500 600 l 1,17,-1
 500 500 l 1,18,-1
 300 500 l 1,19,-1
 300 600 l 1,12,-1
EndSplineSet
EndChar

StartChar: acircumflex
Encoding: 226 226 67
Width: 800
GlyphClass: 1
Flags: W
LayerCount: 2
Fore
SplineSet
200 100 m 1,0,-1
 100 100 l 1,1,-1
 100 200 l 1,2,-1
 500 200 l 1,3,-1
 500 300 l 1,4,-1
 200 300 l 1,5,-1
 200 400 l 1,6,-1
 600 400 l 1,7,-1
 600 300 l 1,8,-1
 700 300 l 1,9,-1
 700 0 l 1,10,-1
 200 0 l 1,11,-1
 200 100 l 1,0,-1
100 600 m 1,12,-1
 300 600 l 1,13,-1
 300 500 l 1,14,-1
 100 500 l 1,15,-1
 100 600 l 1,12,-1
300 700 m 1,16,-1
 500 700 l 1,17,-1
 500 600 l 1,18,-1
 300 600 l 1,19,-1
 300 700 l 1,16,-1
500 600 m 1,20,-1
 700 600 l 1,21,-1
 700 500 l 1,22,-1
 500 500 l 1,23,-1
 500 600 l 1,20,-1
EndSplineSet
EndChar

StartChar: adieresis
Encoding: 228 228 68
Width: 800
GlyphClass: 1
Flags: W
LayerCount: 2
Fore
SplineSet
200 100 m 1,0,-1
 100 100 l 1,1,-1
 100 200 l 1,2,-1
 200 200 l 1,3,-1
 200 300 l 1,4,-1
 500 300 l 1,5,-1
 500 400 l 1,6,-1
 200 400 l 1,7,-1
 200 500 l 1,8,-1
 600 500 l 1,9,-1
 600 400 l 1,10,-1
 700 400 l 1,11,-1
 700 0 l 1,12,-1
 200 0 l 1,13,-1
 200 100 l 1,0,-1
100 700 m 1,14,-1
 300 700 l 1,15,-1
 300 600 l 1,16,-1
 100 600 l 1,17,-1
 100 700 l 1,14,-1
500 100 m 1,18,-1
 500 200 l 1,19,-1
 300 200 l 1,20,-1
 300 100 l 1,21,-1
 500 100 l 1,18,-1
500 700 m 1,22,-1
 700 700 l 1,23,-1
 700 600 l 1,24,-1
 500 600 l 1,25,-1
 500 700 l 1,22,-1
EndSplineSet
EndChar

StartChar: agrave
Encoding: 224 224 69
Width: 800
GlyphClass: 1
Flags: W
LayerCount: 2
Fore
SplineSet
200 100 m 1,0,-1
 100 100 l 1,1,-1
 100 200 l 1,2,-1
 500 200 l 1,3,-1
 500 300 l 1,4,-1
 200 300 l 1,5,-1
 200 400 l 1,6,-1
 600 400 l 1,7,-1
 600 300 l 1,8,-1
 700 300 l 1,9,-1
 700 0 l 1,10,-1
 200 0 l 1,11,-1
 200 100 l 1,0,-1
200 700 m 1,12,-1
 400 700 l 1,13,-1
 400 600 l 1,14,-1
 500 600 l 1,15,-1
 500 500 l 1,16,-1
 300 500 l 1,17,-1
 300 600 l 1,18,-1
 200 600 l 1,19,-1
 200 700 l 1,12,-1
EndSplineSet
EndChar

StartChar: aring
Encoding: 229 229 70
Width: 800
GlyphClass: 1
Flags: W
LayerCount: 2
Fore
SplineSet
200 100 m 1,0,-1
 100 100 l 1,1,-1
 100 200 l 1,2,-1
 500 200 l 1,3,-1
 500 300 l 1,4,-1
 200 300 l 1,5,-1
 200 400 l 1,6,-1
 600 400 l 1,7,-1
 600 300 l 1,8,-1
 700 300 l 1,9,-1
 700 0 l 1,10,-1
 200 0 l 1,11,-1
 200 100 l 1,0,-1
300 700 m 1,12,-1
 500 700 l 1,13,-1
 500 500 l 1,14,-1
 300 500 l 1,15,-1
 300 700 l 1,12,-1
EndSplineSet
EndChar

StartChar: atilde
Encoding: 227 227 71
Width: 800
GlyphClass: 1
Flags: W
LayerCount: 2
Fore
SplineSet
200 100 m 1,0,-1
 100 100 l 1,1,-1
 100 200 l 1,2,-1
 500 200 l 1,3,-1
 500 300 l 1,4,-1
 200 300 l 1,5,-1
 200 400 l 1,6,-1
 600 400 l 1,7,-1
 600 300 l 1,8,-1
 700 300 l 1,9,-1
 700 0 l 1,10,-1
 200 0 l 1,11,-1
 200 100 l 1,0,-1
100 600 m 1,12,-1
 200 600 l 1,13,-1
 200 500 l 1,14,-1
 100 500 l 1,15,-1
 100 600 l 1,12,-1
200 700 m 1,16,-1
 400 700 l 1,17,-1
 400 600 l 1,18,-1
 500 600 l 1,19,-1
 500 500 l 1,20,-1
 300 500 l 1,21,-1
 300 600 l 1,22,-1
 200 600 l 1,23,-1
 200 700 l 1,16,-1
500 700 m 1,24,-1
 600 700 l 1,25,-1
 600 600 l 1,26,-1
 500 600 l 1,27,-1
 500 700 l 1,24,-1
EndSplineSet
EndChar

StartChar: ae
Encoding: 230 230 72
Width: 800
GlyphClass: 1
Flags: W
LayerCount: 2
Fore
SplineSet
100 100 m 1,0,-1
 0 100 l 1,1,-1
 0 200 l 1,2,-1
 100 200 l 1,3,-1
 100 300 l 1,4,-1
 300 300 l 1,5,-1
 300 400 l 1,6,-1
 100 400 l 1,7,-1
 100 500 l 1,8,-1
 700 500 l 1,9,-1
 700 400 l 1,10,-1
 800 400 l 1,11,-1
 800 200 l 1,12,-1
 500 200 l 1,13,-1
 500 100 l 1,14,-1
 700 100 l 1,15,-1
 700 0 l 1,16,-1
 100 0 l 1,17,-1
 100 100 l 1,0,-1
300 100 m 1,18,-1
 300 200 l 1,19,-1
 200 200 l 1,20,-1
 200 100 l 1,21,-1
 300 100 l 1,18,-1
600 300 m 1,22,-1
 600 400 l 1,23,-1
 500 400 l 1,24,-1
 500 300 l 1,25,-1
 600 300 l 1,22,-1
EndSplineSet
EndChar

StartChar: b
Encoding: 98 98 73
Width: 800
GlyphClass: 1
Flags: W
LayerCount: 2
Fore
SplineSet
100 600 m 1,0,-1
 300 600 l 1,1,-1
 300 400 l 1,2,-1
 600 400 l 1,3,-1
 600 300 l 1,4,-1
 700 300 l 1,5,-1
 700 100 l 1,6,-1
 600 100 l 1,7,-1
 600 0 l 1,8,-1
 100 0 l 1,9,-1
 100 600 l 1,0,-1
500 100 m 1,10,-1
 500 300 l 1,11,-1
 300 300 l 1,12,-1
 300 100 l 1,13,-1
 500 100 l 1,10,-1
EndSplineSet
EndChar

StartChar: c
Encoding: 99 99 74
Width: 800
GlyphClass: 1
Flags: W
LayerCount: 2
Fore
SplineSet
200 100 m 1,0,-1
 100 100 l 1,1,-1
 100 400 l 1,2,-1
 200 400 l 1,3,-1
 200 500 l 1,4,-1
 600 500 l 1,5,-1
 600 400 l 1,6,-1
 300 400 l 1,7,-1
 300 100 l 1,8,-1
 600 100 l 1,9,-1
 600 0 l 1,10,-1
 200 0 l 1,11,-1
 200 100 l 1,0,-1
EndSplineSet
EndChar

StartChar: ccedilla
Encoding: 231 231 75
Width: 800
GlyphClass: 1
Flags: W
LayerCount: 2
Fore
SplineSet
300 0 m 1,0,-1
 400 0 l 1,1,-1
 400 100 l 1,2,-1
 200 100 l 1,3,-1
 200 200 l 1,4,-1
 100 200 l 1,5,-1
 100 400 l 1,6,-1
 200 400 l 1,7,-1
 200 500 l 1,8,-1
 600 500 l 1,9,-1
 600 400 l 1,10,-1
 300 400 l 1,11,-1
 300 200 l 1,12,-1
 600 200 l 1,13,-1
 600 100 l 1,14,-1
 500 100 l 1,15,-1
 500 -100 l 1,16,-1
 300 -100 l 1,17,-1
 300 0 l 1,0,-1
EndSplineSet
EndChar

StartChar: d
Encoding: 100 100 76
Width: 800
GlyphClass: 1
Flags: W
LayerCount: 2
Fore
SplineSet
200 300 m 1,0,-1
 200 400 l 1,1,-1
 500 400 l 1,2,-1
 500 600 l 1,3,-1
 700 600 l 1,4,-1
 700 0 l 1,5,-1
 200 0 l 1,6,-1
 200 100 l 1,7,-1
 100 100 l 1,8,-1
 100 300 l 1,9,-1
 200 300 l 1,0,-1
500 100 m 1,10,-1
 500 300 l 1,11,-1
 300 300 l 1,12,-1
 300 100 l 1,13,-1
 500 100 l 1,10,-1
EndSplineSet
EndChar

StartChar: eth
Encoding: 240 240 77
Width: 800
GlyphClass: 1
Flags: W
LayerCount: 2
Fore
SplineSet
200 100 m 1,0,-1
 100 100 l 1,1,-1
 100 300 l 1,2,-1
 200 300 l 1,3,-1
 200 400 l 1,4,-1
 400 400 l 1,5,-1
 400 500 l 1,6,-1
 200 500 l 1,7,-1
 200 600 l 1,8,-1
 300 600 l 1,9,-1
 300 700 l 1,10,-1
 500 700 l 1,11,-1
 500 600 l 1,12,-1
 700 600 l 1,13,-1
 700 500 l 1,14,-1
 600 500 l 1,15,-1
 600 400 l 1,16,-1
 700 400 l 1,17,-1
 700 100 l 1,18,-1
 600 100 l 1,19,-1
 600 0 l 1,20,-1
 200 0 l 1,21,-1
 200 100 l 1,0,-1
500 100 m 1,22,-1
 500 300 l 1,23,-1
 300 300 l 1,24,-1
 300 100 l 1,25,-1
 500 100 l 1,22,-1
EndSplineSet
EndChar

StartChar: e
Encoding: 101 101 78
Width: 800
GlyphClass: 1
Flags: W
LayerCount: 2
Fore
SplineSet
200 100 m 1,0,-1
 100 100 l 1,1,-1
 100 400 l 1,2,-1
 200 400 l 1,3,-1
 200 500 l 1,4,-1
 600 500 l 1,5,-1
 600 400 l 1,6,-1
 700 400 l 1,7,-1
 700 200 l 1,8,-1
 300 200 l 1,9,-1
 300 100 l 1,10,-1
 600 100 l 1,11,-1
 600 0 l 1,12,-1
 200 0 l 1,13,-1
 200 100 l 1,0,-1
500 300 m 1,14,-1
 500 400 l 1,15,-1
 300 400 l 1,16,-1
 300 300 l 1,17,-1
 500 300 l 1,14,-1
EndSplineSet
EndChar

StartChar: eacute
Encoding: 233 233 79
Width: 800
GlyphClass: 1
Flags: W
LayerCount: 2
Fore
SplineSet
200 100 m 1,0,-1
 100 100 l 1,1,-1
 100 300 l 1,2,-1
 200 300 l 1,3,-1
 200 400 l 1,4,-1
 600 400 l 1,5,-1
 600 300 l 1,6,-1
 700 300 l 1,7,-1
 700 200 l 1,8,-1
 300 200 l 1,9,-1
 300 100 l 1,10,-1
 600 100 l 1,11,-1
 600 0 l 1,12,-1
 200 0 l 1,13,-1
 200 100 l 1,0,-1
300 600 m 1,14,-1
 400 600 l 1,15,-1
 400 700 l 1,16,-1
 600 700 l 1,17,-1
 600 600 l 1,18,-1
 500 600 l 1,19,-1
 500 500 l 1,20,-1
 300 500 l 1,21,-1
 300 600 l 1,14,-1
EndSplineSet
EndChar

StartChar: ecircumflex
Encoding: 234 234 80
Width: 800
GlyphClass: 1
Flags: W
LayerCount: 2
Fore
SplineSet
200 100 m 1,0,-1
 100 100 l 1,1,-1
 100 300 l 1,2,-1
 200 300 l 1,3,-1
 200 400 l 1,4,-1
 600 400 l 1,5,-1
 600 300 l 1,6,-1
 700 300 l 1,7,-1
 700 200 l 1,8,-1
 300 200 l 1,9,-1
 300 100 l 1,10,-1
 600 100 l 1,11,-1
 600 0 l 1,12,-1
 200 0 l 1,13,-1
 200 100 l 1,0,-1
100 600 m 1,14,-1
 300 600 l 1,15,-1
 300 500 l 1,16,-1
 100 500 l 1,17,-1
 100 600 l 1,14,-1
300 700 m 1,18,-1
 500 700 l 1,19,-1
 500 600 l 1,20,-1
 300 600 l 1,21,-1
 300 700 l 1,18,-1
500 600 m 1,22,-1
 700 600 l 1,23,-1
 700 500 l 1,24,-1
 500 500 l 1,25,-1
 500 600 l 1,22,-1
EndSplineSet
EndChar

StartChar: edieresis
Encoding: 235 235 81
Width: 800
GlyphClass: 1
Flags: W
LayerCount: 2
Fore
SplineSet
200 100 m 1,0,-1
 100 100 l 1,1,-1
 100 400 l 1,2,-1
 200 400 l 1,3,-1
 200 500 l 1,4,-1
 600 500 l 1,5,-1
 600 400 l 1,6,-1
 700 400 l 1,7,-1
 700 200 l 1,8,-1
 300 200 l 1,9,-1
 300 100 l 1,10,-1
 600 100 l 1,11,-1
 600 0 l 1,12,-1
 200 0 l 1,13,-1
 200 100 l 1,0,-1
100 700 m 1,14,-1
 300 700 l 1,15,-1
 300 600 l 1,16,-1
 100 600 l 1,17,-1
 100 700 l 1,14,-1
500 300 m 1,18,-1
 500 400 l 1,19,-1
 300 400 l 1,20,-1
 300 300 l 1,21,-1
 500 300 l 1,18,-1
500 700 m 1,22,-1
 700 700 l 1,23,-1
 700 600 l 1,24,-1
 500 600 l 1,25,-1
 500 700 l 1,22,-1
EndSplineSet
EndChar

StartChar: egrave
Encoding: 232 232 82
Width: 800
GlyphClass: 1
Flags: W
LayerCount: 2
Fore
SplineSet
200 100 m 1,0,-1
 100 100 l 1,1,-1
 100 300 l 1,2,-1
 200 300 l 1,3,-1
 200 400 l 1,4,-1
 600 400 l 1,5,-1
 600 300 l 1,6,-1
 700 300 l 1,7,-1
 700 200 l 1,8,-1
 300 200 l 1,9,-1
 300 100 l 1,10,-1
 600 100 l 1,11,-1
 600 0 l 1,12,-1
 200 0 l 1,13,-1
 200 100 l 1,0,-1
200 700 m 1,14,-1
 400 700 l 1,15,-1
 400 600 l 1,16,-1
 500 600 l 1,17,-1
 500 500 l 1,18,-1
 300 500 l 1,19,-1
 300 600 l 1,20,-1
 200 600 l 1,21,-1
 200 700 l 1,14,-1
EndSplineSet
EndChar

StartChar: uni0259
Encoding: 601 601 83
AltUni2: 00e01a.ffffffff.0 00e01a.ffffffff.0
Width: 800
GlyphClass: 1
Flags: W
LayerCount: 2
Fore
SplineSet
200 100 m 1,0,-1
 100 100 l 1,1,-1
 100 300 l 1,2,-1
 500 300 l 1,3,-1
 500 400 l 1,4,-1
 200 400 l 1,5,-1
 200 500 l 1,6,-1
 600 500 l 1,7,-1
 600 400 l 1,8,-1
 700 400 l 1,9,-1
 700 100 l 1,10,-1
 600 100 l 1,11,-1
 600 0 l 1,12,-1
 200 0 l 1,13,-1
 200 100 l 1,0,-1
500 100 m 1,14,-1
 500 200 l 1,15,-1
 300 200 l 1,16,-1
 300 100 l 1,17,-1
 500 100 l 1,14,-1
EndSplineSet
EndChar

StartChar: f
Encoding: 102 102 84
Width: 800
GlyphClass: 1
Flags: W
LayerCount: 2
Fore
SplineSet
300 300 m 1,0,-1
 200 300 l 1,1,-1
 200 400 l 1,2,-1
 300 400 l 1,3,-1
 300 500 l 1,4,-1
 400 500 l 1,5,-1
 400 600 l 1,6,-1
 700 600 l 1,7,-1
 700 500 l 1,8,-1
 500 500 l 1,9,-1
 500 400 l 1,10,-1
 700 400 l 1,11,-1
 700 300 l 1,12,-1
 500 300 l 1,13,-1
 500 0 l 1,14,-1
 300 0 l 1,15,-1
 300 300 l 1,0,-1
EndSplineSet
EndChar

StartChar: g
Encoding: 103 103 85
Width: 800
GlyphClass: 1
Flags: W
LayerCount: 2
Fore
SplineSet
100 0 m 1,0,-1
 500 0 l 1,1,-1
 500 100 l 1,2,-1
 200 100 l 1,3,-1
 200 200 l 1,4,-1
 100 200 l 1,5,-1
 100 400 l 1,6,-1
 200 400 l 1,7,-1
 200 500 l 1,8,-1
 700 500 l 1,9,-1
 700 0 l 1,10,-1
 600 0 l 1,11,-1
 600 -100 l 1,12,-1
 100 -100 l 1,13,-1
 100 0 l 1,0,-1
500 200 m 1,14,-1
 500 400 l 1,15,-1
 300 400 l 1,16,-1
 300 200 l 1,17,-1
 500 200 l 1,14,-1
EndSplineSet
EndChar

StartChar: h
Encoding: 104 104 86
Width: 800
GlyphClass: 1
Flags: W
LayerCount: 2
Fore
SplineSet
100 600 m 1,0,-1
 300 600 l 1,1,-1
 300 400 l 1,2,-1
 600 400 l 1,3,-1
 600 300 l 1,4,-1
 700 300 l 1,5,-1
 700 0 l 1,6,-1
 500 0 l 1,7,-1
 500 300 l 1,8,-1
 300 300 l 1,9,-1
 300 0 l 1,10,-1
 100 0 l 1,11,-1
 100 600 l 1,0,-1
EndSplineSet
EndChar

StartChar: i
Encoding: 105 105 87
Width: 800
GlyphClass: 1
Flags: W
LayerCount: 2
Fore
SplineSet
200 100 m 1,0,-1
 300 100 l 1,1,-1
 300 300 l 1,2,-1
 200 300 l 1,3,-1
 200 400 l 1,4,-1
 500 400 l 1,5,-1
 500 100 l 1,6,-1
 600 100 l 1,7,-1
 600 0 l 1,8,-1
 200 0 l 1,9,-1
 200 100 l 1,0,-1
300 600 m 1,10,-1
 500 600 l 1,11,-1
 500 500 l 1,12,-1
 300 500 l 1,13,-1
 300 600 l 1,10,-1
EndSplineSet
EndChar

StartChar: dotlessi
Encoding: 305 305 88
Width: 800
GlyphClass: 1
Flags: W
LayerCount: 2
Fore
SplineSet
200 100 m 1,0,-1
 300 100 l 1,1,-1
 300 300 l 1,2,-1
 200 300 l 1,3,-1
 200 400 l 1,4,-1
 500 400 l 1,5,-1
 500 100 l 1,6,-1
 600 100 l 1,7,-1
 600 0 l 1,8,-1
 200 0 l 1,9,-1
 200 100 l 1,0,-1
EndSplineSet
EndChar

StartChar: iacute
Encoding: 237 237 89
Width: 800
GlyphClass: 1
Flags: W
LayerCount: 2
Fore
SplineSet
200 400 m 1,0,-1
 500 400 l 1,1,-1
 500 100 l 1,2,-1
 600 100 l 1,3,-1
 600 0 l 1,4,-1
 200 0 l 1,5,-1
 200 100 l 1,6,-1
 300 100 l 1,7,-1
 300 300 l 1,8,-1
 200 300 l 1,9,-1
 200 400 l 1,0,-1
300 600 m 1,10,-1
 400 600 l 1,11,-1
 400 700 l 1,12,-1
 600 700 l 1,13,-1
 600 600 l 1,14,-1
 500 600 l 1,15,-1
 500 500 l 1,16,-1
 300 500 l 1,17,-1
 300 600 l 1,10,-1
EndSplineSet
EndChar

StartChar: icircumflex
Encoding: 238 238 90
Width: 800
GlyphClass: 1
Flags: W
LayerCount: 2
Fore
SplineSet
100 600 m 1,0,-1
 300 600 l 1,1,-1
 300 500 l 1,2,-1
 100 500 l 1,3,-1
 100 600 l 1,0,-1
200 100 m 1,4,-1
 300 100 l 1,5,-1
 300 300 l 1,6,-1
 200 300 l 1,7,-1
 200 400 l 1,8,-1
 500 400 l 1,9,-1
 500 100 l 1,10,-1
 600 100 l 1,11,-1
 600 0 l 1,12,-1
 200 0 l 1,13,-1
 200 100 l 1,4,-1
300 700 m 1,14,-1
 500 700 l 1,15,-1
 500 600 l 1,16,-1
 300 600 l 1,17,-1
 300 700 l 1,14,-1
500 600 m 1,18,-1
 700 600 l 1,19,-1
 700 500 l 1,20,-1
 500 500 l 1,21,-1
 500 600 l 1,18,-1
EndSplineSet
EndChar

StartChar: idieresis
Encoding: 239 239 91
Width: 800
GlyphClass: 1
Flags: W
LayerCount: 2
Fore
SplineSet
100 700 m 1,0,-1
 300 700 l 1,1,-1
 300 600 l 1,2,-1
 100 600 l 1,3,-1
 100 700 l 1,0,-1
200 100 m 1,4,-1
 300 100 l 1,5,-1
 300 300 l 1,6,-1
 200 300 l 1,7,-1
 200 400 l 1,8,-1
 500 400 l 1,9,-1
 500 100 l 1,10,-1
 600 100 l 1,11,-1
 600 0 l 1,12,-1
 200 0 l 1,13,-1
 200 100 l 1,4,-1
500 700 m 1,14,-1
 700 700 l 1,15,-1
 700 600 l 1,16,-1
 500 600 l 1,17,-1
 500 700 l 1,14,-1
EndSplineSet
EndChar

StartChar: igrave
Encoding: 236 236 92
Width: 800
GlyphClass: 1
Flags: W
LayerCount: 2
Fore
SplineSet
200 400 m 1,0,-1
 500 400 l 1,1,-1
 500 100 l 1,2,-1
 600 100 l 1,3,-1
 600 0 l 1,4,-1
 200 0 l 1,5,-1
 200 100 l 1,6,-1
 300 100 l 1,7,-1
 300 300 l 1,8,-1
 200 300 l 1,9,-1
 200 400 l 1,0,-1
200 700 m 1,10,-1
 400 700 l 1,11,-1
 400 600 l 1,12,-1
 500 600 l 1,13,-1
 500 500 l 1,14,-1
 300 500 l 1,15,-1
 300 600 l 1,16,-1
 200 600 l 1,17,-1
 200 700 l 1,10,-1
EndSplineSet
EndChar

StartChar: j
Encoding: 106 106 93
Width: 800
GlyphClass: 1
Flags: W
LayerCount: 2
Fore
SplineSet
200 0 m 1,0,-1
 500 0 l 1,1,-1
 500 400 l 1,2,-1
 700 400 l 1,3,-1
 700 0 l 1,4,-1
 600 0 l 1,5,-1
 600 -100 l 1,6,-1
 200 -100 l 1,7,-1
 200 0 l 1,0,-1
500 600 m 1,8,-1
 700 600 l 1,9,-1
 700 500 l 1,10,-1
 500 500 l 1,11,-1
 500 600 l 1,8,-1
EndSplineSet
EndChar

StartChar: k
Encoding: 107 107 94
Width: 800
GlyphClass: 1
Flags: W
LayerCount: 2
Fore
SplineSet
100 600 m 1,0,-1
 300 600 l 1,1,-1
 300 300 l 1,2,-1
 400 300 l 1,3,-1
 400 400 l 1,4,-1
 600 400 l 1,5,-1
 600 300 l 1,6,-1
 500 300 l 1,7,-1
 500 200 l 1,8,-1
 600 200 l 1,9,-1
 600 100 l 1,10,-1
 700 100 l 1,11,-1
 700 0 l 1,12,-1
 500 0 l 1,13,-1
 500 100 l 1,14,-1
 400 100 l 1,15,-1
 400 200 l 1,16,-1
 300 200 l 1,17,-1
 300 0 l 1,18,-1
 100 0 l 1,19,-1
 100 600 l 1,0,-1
EndSplineSet
EndChar

StartChar: l
Encoding: 108 108 95
Width: 800
GlyphClass: 1
Flags: W
LayerCount: 2
Fore
SplineSet
200 100 m 1,0,-1
 300 100 l 1,1,-1
 300 500 l 1,2,-1
 200 500 l 1,3,-1
 200 600 l 1,4,-1
 500 600 l 1,5,-1
 500 100 l 1,6,-1
 600 100 l 1,7,-1
 600 0 l 1,8,-1
 200 0 l 1,9,-1
 200 100 l 1,0,-1
EndSplineSet
EndChar

StartChar: lslash
Encoding: 322 322 96
Width: 800
GlyphClass: 1
Flags: W
LayerCount: 2
Fore
SplineSet
200 600 m 1,0,-1
 500 600 l 1,1,-1
 500 400 l 1,2,-1
 600 400 l 1,3,-1
 600 300 l 1,4,-1
 500 300 l 1,5,-1
 500 100 l 1,6,-1
 600 100 l 1,7,-1
 600 0 l 1,8,-1
 200 0 l 1,9,-1
 200 100 l 1,10,-1
 300 100 l 1,11,-1
 300 200 l 1,12,-1
 200 200 l 1,13,-1
 200 300 l 1,14,-1
 300 300 l 1,15,-1
 300 500 l 1,16,-1
 200 500 l 1,17,-1
 200 600 l 1,0,-1
EndSplineSet
EndChar

StartChar: m
Encoding: 109 109 97
Width: 800
GlyphClass: 1
Flags: W
LayerCount: 2
Fore
SplineSet
100 500 m 1,0,-1
 300 500 l 1,1,-1
 300 400 l 1,2,-1
 500 400 l 1,3,-1
 500 500 l 1,4,-1
 700 500 l 1,5,-1
 700 400 l 1,6,-1
 800 400 l 1,7,-1
 800 0 l 1,8,-1
 600 0 l 1,9,-1
 600 200 l 1,10,-1
 500 200 l 1,11,-1
 500 100 l 1,12,-1
 400 100 l 1,13,-1
 400 200 l 1,14,-1
 300 200 l 1,15,-1
 300 0 l 1,16,-1
 100 0 l 1,17,-1
 100 500 l 1,0,-1
EndSplineSet
EndChar

StartChar: n
Encoding: 110 110 98
Width: 800
GlyphClass: 1
Flags: W
LayerCount: 2
Fore
SplineSet
100 500 m 1,0,-1
 600 500 l 1,1,-1
 600 400 l 1,2,-1
 700 400 l 1,3,-1
 700 0 l 1,4,-1
 500 0 l 1,5,-1
 500 400 l 1,6,-1
 300 400 l 1,7,-1
 300 0 l 1,8,-1
 100 0 l 1,9,-1
 100 500 l 1,0,-1
EndSplineSet
EndChar

StartChar: ntilde
Encoding: 241 241 99
Width: 800
GlyphClass: 1
Flags: W
LayerCount: 2
Fore
SplineSet
200 600 m 1,0,-1
 200 700 l 1,1,-1
 400 700 l 1,2,-1
 400 600 l 1,3,-1
 500 600 l 1,4,-1
 500 500 l 1,5,-1
 300 500 l 1,6,-1
 300 600 l 1,7,-1
 200 600 l 1,0,-1
100 400 m 1,8,-1
 600 400 l 1,9,-1
 600 300 l 1,10,-1
 700 300 l 1,11,-1
 700 0 l 1,12,-1
 500 0 l 1,13,-1
 500 300 l 1,14,-1
 300 300 l 1,15,-1
 300 0 l 1,16,-1
 100 0 l 1,17,-1
 100 400 l 1,8,-1
100 600 m 1,18,-1
 200 600 l 1,19,-1
 200 500 l 1,20,-1
 100 500 l 1,21,-1
 100 600 l 1,18,-1
500 700 m 1,22,-1
 600 700 l 1,23,-1
 600 600 l 1,24,-1
 500 600 l 1,25,-1
 500 700 l 1,22,-1
EndSplineSet
EndChar

StartChar: o
Encoding: 111 111 100
Width: 800
GlyphClass: 1
Flags: W
LayerCount: 2
Fore
SplineSet
200 100 m 1,0,-1
 100 100 l 1,1,-1
 100 400 l 1,2,-1
 200 400 l 1,3,-1
 200 500 l 1,4,-1
 600 500 l 1,5,-1
 600 400 l 1,6,-1
 700 400 l 1,7,-1
 700 100 l 1,8,-1
 600 100 l 1,9,-1
 600 0 l 1,10,-1
 200 0 l 1,11,-1
 200 100 l 1,0,-1
500 100 m 1,12,-1
 500 400 l 1,13,-1
 300 400 l 1,14,-1
 300 100 l 1,15,-1
 500 100 l 1,12,-1
EndSplineSet
EndChar

StartChar: oacute
Encoding: 243 243 101
Width: 800
GlyphClass: 1
Flags: W
LayerCount: 2
Fore
SplineSet
200 400 m 1,0,-1
 600 400 l 1,1,-1
 600 300 l 1,2,-1
 700 300 l 1,3,-1
 700 100 l 1,4,-1
 600 100 l 1,5,-1
 600 0 l 1,6,-1
 200 0 l 1,7,-1
 200 100 l 1,8,-1
 100 100 l 1,9,-1
 100 300 l 1,10,-1
 200 300 l 1,11,-1
 200 400 l 1,0,-1
500 100 m 1,12,-1
 500 300 l 1,13,-1
 300 300 l 1,14,-1
 300 100 l 1,15,-1
 500 100 l 1,12,-1
300 600 m 1,16,-1
 400 600 l 1,17,-1
 400 700 l 1,18,-1
 600 700 l 1,19,-1
 600 600 l 1,20,-1
 500 600 l 1,21,-1
 500 500 l 1,22,-1
 300 500 l 1,23,-1
 300 600 l 1,16,-1
EndSplineSet
EndChar

StartChar: ocircumflex
Encoding: 244 244 102
Width: 800
GlyphClass: 1
Flags: W
LayerCount: 2
Fore
SplineSet
100 600 m 1,0,-1
 300 600 l 1,1,-1
 300 500 l 1,2,-1
 100 500 l 1,3,-1
 100 600 l 1,0,-1
100 300 m 1,4,-1
 200 300 l 1,5,-1
 200 400 l 1,6,-1
 600 400 l 1,7,-1
 600 300 l 1,8,-1
 700 300 l 1,9,-1
 700 100 l 1,10,-1
 600 100 l 1,11,-1
 600 0 l 1,12,-1
 200 0 l 1,13,-1
 200 100 l 1,14,-1
 100 100 l 1,15,-1
 100 300 l 1,4,-1
500 100 m 1,16,-1
 500 300 l 1,17,-1
 300 300 l 1,18,-1
 300 100 l 1,19,-1
 500 100 l 1,16,-1
300 700 m 1,20,-1
 500 700 l 1,21,-1
 500 600 l 1,22,-1
 300 600 l 1,23,-1
 300 700 l 1,20,-1
500 600 m 1,24,-1
 700 600 l 1,25,-1
 700 500 l 1,26,-1
 500 500 l 1,27,-1
 500 600 l 1,24,-1
EndSplineSet
EndChar

StartChar: odieresis
Encoding: 246 246 103
Width: 800
GlyphClass: 1
Flags: W
LayerCount: 2
Fore
SplineSet
100 700 m 1,0,-1
 300 700 l 1,1,-1
 300 600 l 1,2,-1
 100 600 l 1,3,-1
 100 700 l 1,0,-1
100 300 m 1,4,-1
 200 300 l 1,5,-1
 200 400 l 1,6,-1
 600 400 l 1,7,-1
 600 300 l 1,8,-1
 700 300 l 1,9,-1
 700 100 l 1,10,-1
 600 100 l 1,11,-1
 600 0 l 1,12,-1
 200 0 l 1,13,-1
 200 100 l 1,14,-1
 100 100 l 1,15,-1
 100 300 l 1,4,-1
500 100 m 1,16,-1
 500 300 l 1,17,-1
 300 300 l 1,18,-1
 300 100 l 1,19,-1
 500 100 l 1,16,-1
500 700 m 1,20,-1
 700 700 l 1,21,-1
 700 600 l 1,22,-1
 500 600 l 1,23,-1
 500 700 l 1,20,-1
EndSplineSet
EndChar

StartChar: ograve
Encoding: 242 242 104
Width: 800
GlyphClass: 1
Flags: W
LayerCount: 2
Fore
SplineSet
200 700 m 1,0,-1
 400 700 l 1,1,-1
 400 600 l 1,2,-1
 500 600 l 1,3,-1
 500 500 l 1,4,-1
 300 500 l 1,5,-1
 300 600 l 1,6,-1
 200 600 l 1,7,-1
 200 700 l 1,0,-1
100 300 m 1,8,-1
 200 300 l 1,9,-1
 200 400 l 1,10,-1
 600 400 l 1,11,-1
 600 300 l 1,12,-1
 700 300 l 1,13,-1
 700 100 l 1,14,-1
 600 100 l 1,15,-1
 600 0 l 1,16,-1
 200 0 l 1,17,-1
 200 100 l 1,18,-1
 100 100 l 1,19,-1
 100 300 l 1,8,-1
500 100 m 1,20,-1
 500 300 l 1,21,-1
 300 300 l 1,22,-1
 300 100 l 1,23,-1
 500 100 l 1,20,-1
EndSplineSet
EndChar

StartChar: oslash
Encoding: 248 248 105
Width: 800
GlyphClass: 1
Flags: W
LayerCount: 2
Fore
SplineSet
200 -100 m 1,0,-1
 100 -100 l 1,1,-1
 100 0 l 1,2,-1
 200 0 l 1,3,-1
 200 -100 l 1,0,-1
100 400 m 1,4,-1
 200 400 l 1,5,-1
 200 500 l 1,6,-1
 600 500 l 1,7,-1
 600 400 l 1,8,-1
 700 400 l 1,9,-1
 700 100 l 1,10,-1
 600 100 l 1,11,-1
 600 0 l 1,12,-1
 200 0 l 1,13,-1
 200 100 l 1,14,-1
 100 100 l 1,15,-1
 100 400 l 1,4,-1
500 100 m 1,16,-1
 500 300 l 1,17,-1
 400 300 l 1,18,-1
 400 400 l 1,19,-1
 300 400 l 1,20,-1
 300 300 l 1,21,-1
 400 300 l 1,22,-1
 400 200 l 1,23,-1
 300 200 l 1,24,-1
 300 100 l 1,25,-1
 500 100 l 1,16,-1
600 600 m 1,26,-1
 700 600 l 1,27,-1
 700 500 l 1,28,-1
 600 500 l 1,29,-1
 600 600 l 1,26,-1
EndSplineSet
EndChar

StartChar: otilde
Encoding: 245 245 106
Width: 800
GlyphClass: 1
Flags: W
LayerCount: 2
Fore
SplineSet
200 100 m 1,0,-1
 100 100 l 1,1,-1
 100 300 l 1,2,-1
 200 300 l 1,3,-1
 200 400 l 1,4,-1
 600 400 l 1,5,-1
 600 300 l 1,6,-1
 700 300 l 1,7,-1
 700 100 l 1,8,-1
 600 100 l 1,9,-1
 600 0 l 1,10,-1
 200 0 l 1,11,-1
 200 100 l 1,0,-1
100 600 m 1,12,-1
 200 600 l 1,13,-1
 200 500 l 1,14,-1
 100 500 l 1,15,-1
 100 600 l 1,12,-1
200 700 m 1,16,-1
 400 700 l 1,17,-1
 400 600 l 1,18,-1
 500 600 l 1,19,-1
 500 500 l 1,20,-1
 300 500 l 1,21,-1
 300 600 l 1,22,-1
 200 600 l 1,23,-1
 200 700 l 1,16,-1
500 100 m 1,24,-1
 500 300 l 1,25,-1
 300 300 l 1,26,-1
 300 100 l 1,27,-1
 500 100 l 1,24,-1
500 700 m 1,28,-1
 600 700 l 1,29,-1
 600 600 l 1,30,-1
 500 600 l 1,31,-1
 500 700 l 1,28,-1
EndSplineSet
EndChar

StartChar: oe
Encoding: 339 339 107
Width: 800
GlyphClass: 1
Flags: W
LayerCount: 2
Fore
SplineSet
500 400 m 1,0,-1
 500 300 l 1,1,-1
 600 300 l 1,2,-1
 600 400 l 1,3,-1
 500 400 l 1,0,-1
0 400 m 1,4,-1
 100 400 l 1,5,-1
 100 500 l 1,6,-1
 700 500 l 1,7,-1
 700 400 l 1,8,-1
 800 400 l 1,9,-1
 800 200 l 1,10,-1
 500 200 l 1,11,-1
 500 100 l 1,12,-1
 700 100 l 1,13,-1
 700 0 l 1,14,-1
 100 0 l 1,15,-1
 100 100 l 1,16,-1
 0 100 l 1,17,-1
 0 400 l 1,4,-1
300 100 m 1,18,-1
 300 400 l 1,19,-1
 200 400 l 1,20,-1
 200 100 l 1,21,-1
 300 100 l 1,18,-1
EndSplineSet
EndChar

StartChar: p
Encoding: 112 112 108
Width: 800
GlyphClass: 1
Flags: W
LayerCount: 2
Fore
SplineSet
100 500 m 1,0,-1
 600 500 l 1,1,-1
 600 400 l 1,2,-1
 700 400 l 1,3,-1
 700 200 l 1,4,-1
 600 200 l 1,5,-1
 600 100 l 1,6,-1
 300 100 l 1,7,-1
 300 -100 l 1,8,-1
 100 -100 l 1,9,-1
 100 500 l 1,0,-1
500 200 m 1,10,-1
 500 400 l 1,11,-1
 300 400 l 1,12,-1
 300 200 l 1,13,-1
 500 200 l 1,10,-1
EndSplineSet
EndChar

StartChar: thorn
Encoding: 254 254 109
Width: 800
GlyphClass: 1
Flags: W
LayerCount: 2
Fore
SplineSet
200 500 m 1,0,-1
 400 500 l 1,1,-1
 400 400 l 1,2,-1
 600 400 l 1,3,-1
 600 300 l 1,4,-1
 700 300 l 1,5,-1
 700 100 l 1,6,-1
 600 100 l 1,7,-1
 600 0 l 1,8,-1
 400 0 l 1,9,-1
 400 -100 l 1,10,-1
 200 -100 l 1,11,-1
 200 500 l 1,0,-1
500 100 m 1,12,-1
 500 300 l 1,13,-1
 400 300 l 1,14,-1
 400 100 l 1,15,-1
 500 100 l 1,12,-1
EndSplineSet
EndChar

StartChar: q
Encoding: 113 113 110
Width: 800
GlyphClass: 1
Flags: W
LayerCount: 2
Fore
SplineSet
500 100 m 1,0,-1
 200 100 l 1,1,-1
 200 200 l 1,2,-1
 100 200 l 1,3,-1
 100 400 l 1,4,-1
 200 400 l 1,5,-1
 200 500 l 1,6,-1
 700 500 l 1,7,-1
 700 -100 l 1,8,-1
 500 -100 l 1,9,-1
 500 100 l 1,0,-1
500 200 m 1,10,-1
 500 400 l 1,11,-1
 300 400 l 1,12,-1
 300 200 l 1,13,-1
 500 200 l 1,10,-1
EndSplineSet
EndChar

StartChar: r
Encoding: 114 114 111
Width: 800
GlyphClass: 1
Flags: W
LayerCount: 2
Fore
SplineSet
100 500 m 1,0,-1
 600 500 l 1,1,-1
 600 400 l 1,2,-1
 700 400 l 1,3,-1
 700 300 l 1,4,-1
 500 300 l 1,5,-1
 500 400 l 1,6,-1
 300 400 l 1,7,-1
 300 0 l 1,8,-1
 100 0 l 1,9,-1
 100 500 l 1,0,-1
EndSplineSet
EndChar

StartChar: s
Encoding: 115 115 112
Width: 800
GlyphClass: 1
Flags: W
LayerCount: 2
Fore
SplineSet
100 100 m 1,0,-1
 500 100 l 1,1,-1
 500 200 l 1,2,-1
 200 200 l 1,3,-1
 200 300 l 1,4,-1
 100 300 l 1,5,-1
 100 400 l 1,6,-1
 200 400 l 1,7,-1
 200 500 l 1,8,-1
 700 500 l 1,9,-1
 700 400 l 1,10,-1
 300 400 l 1,11,-1
 300 300 l 1,12,-1
 600 300 l 1,13,-1
 600 200 l 1,14,-1
 700 200 l 1,15,-1
 700 100 l 1,16,-1
 600 100 l 1,17,-1
 600 0 l 1,18,-1
 100 0 l 1,19,-1
 100 100 l 1,0,-1
EndSplineSet
EndChar

StartChar: scaron
Encoding: 353 353 113
Width: 800
GlyphClass: 1
Flags: W
LayerCount: 2
Fore
SplineSet
100 100 m 1,0,-1
 500 100 l 1,1,-1
 500 200 l 1,2,-1
 200 200 l 1,3,-1
 200 300 l 1,4,-1
 100 300 l 1,5,-1
 100 400 l 1,6,-1
 200 400 l 1,7,-1
 200 500 l 1,8,-1
 300 500 l 1,9,-1
 300 600 l 1,10,-1
 500 600 l 1,11,-1
 500 500 l 1,12,-1
 700 500 l 1,13,-1
 700 400 l 1,14,-1
 300 400 l 1,15,-1
 300 300 l 1,16,-1
 600 300 l 1,17,-1
 600 200 l 1,18,-1
 700 200 l 1,19,-1
 700 100 l 1,20,-1
 600 100 l 1,21,-1
 600 0 l 1,22,-1
 100 0 l 1,23,-1
 100 100 l 1,0,-1
200 700 m 1,24,-1
 300 700 l 1,25,-1
 300 600 l 1,26,-1
 200 600 l 1,27,-1
 200 700 l 1,24,-1
500 700 m 1,28,-1
 600 700 l 1,29,-1
 600 600 l 1,30,-1
 500 600 l 1,31,-1
 500 700 l 1,28,-1
EndSplineSet
EndChar

StartChar: germandbls
Encoding: 223 223 114
Width: 800
GlyphClass: 1
Flags: W
LayerCount: 2
Fore
SplineSet
100 400 m 1,0,-1
 200 400 l 1,1,-1
 200 500 l 1,2,-1
 600 500 l 1,3,-1
 600 400 l 1,4,-1
 700 400 l 1,5,-1
 700 300 l 1,6,-1
 600 300 l 1,7,-1
 600 200 l 1,8,-1
 700 200 l 1,9,-1
 700 100 l 1,10,-1
 600 100 l 1,11,-1
 600 0 l 1,12,-1
 400 0 l 1,13,-1
 400 100 l 1,14,-1
 500 100 l 1,15,-1
 500 200 l 1,16,-1
 400 200 l 1,17,-1
 400 300 l 1,18,-1
 500 300 l 1,19,-1
 500 400 l 1,20,-1
 300 400 l 1,21,-1
 300 -100 l 1,22,-1
 100 -100 l 1,23,-1
 100 400 l 1,0,-1
EndSplineSet
EndChar

StartChar: t
Encoding: 116 116 115
Width: 800
GlyphClass: 1
Flags: W
LayerCount: 2
Fore
SplineSet
300 400 m 1,0,-1
 100 400 l 1,1,-1
 100 500 l 1,2,-1
 300 500 l 1,3,-1
 300 600 l 1,4,-1
 500 600 l 1,5,-1
 500 500 l 1,6,-1
 700 500 l 1,7,-1
 700 400 l 1,8,-1
 500 400 l 1,9,-1
 500 100 l 1,10,-1
 700 100 l 1,11,-1
 700 0 l 1,12,-1
 400 0 l 1,13,-1
 400 100 l 1,14,-1
 300 100 l 1,15,-1
 300 400 l 1,0,-1
EndSplineSet
EndChar

StartChar: u
Encoding: 117 117 116
Width: 800
GlyphClass: 1
Flags: W
LayerCount: 2
Fore
SplineSet
200 100 m 1,0,-1
 100 100 l 1,1,-1
 100 500 l 1,2,-1
 300 500 l 1,3,-1
 300 100 l 1,4,-1
 500 100 l 1,5,-1
 500 500 l 1,6,-1
 700 500 l 1,7,-1
 700 0 l 1,8,-1
 200 0 l 1,9,-1
 200 100 l 1,0,-1
EndSplineSet
EndChar

StartChar: u0133
Encoding: 307 307 117
Width: 800
GlyphClass: 1
Flags: W
LayerCount: 2
Fore
SplineSet
100 700 m 1,0,-1
 300 700 l 1,1,-1
 300 600 l 1,2,-1
 100 600 l 1,3,-1
 100 700 l 1,0,-1
0 200 m 1,4,-1
 100 200 l 1,5,-1
 100 400 l 1,6,-1
 0 400 l 1,7,-1
 0 500 l 1,8,-1
 300 500 l 1,9,-1
 300 200 l 1,10,-1
 400 200 l 1,11,-1
 400 100 l 1,12,-1
 0 100 l 1,13,-1
 0 200 l 1,4,-1
300 0 m 1,14,-1
 500 0 l 1,15,-1
 500 500 l 1,16,-1
 700 500 l 1,17,-1
 700 0 l 1,18,-1
 600 0 l 1,19,-1
 600 -100 l 1,20,-1
 300 -100 l 1,21,-1
 300 0 l 1,14,-1
500 700 m 1,22,-1
 700 700 l 1,23,-1
 700 600 l 1,24,-1
 500 600 l 1,25,-1
 500 700 l 1,22,-1
EndSplineSet
EndChar

StartChar: uacute
Encoding: 250 250 118
Width: 800
GlyphClass: 1
Flags: W
LayerCount: 2
Fore
SplineSet
200 100 m 1,0,-1
 100 100 l 1,1,-1
 100 400 l 1,2,-1
 300 400 l 1,3,-1
 300 100 l 1,4,-1
 500 100 l 1,5,-1
 500 400 l 1,6,-1
 700 400 l 1,7,-1
 700 0 l 1,8,-1
 200 0 l 1,9,-1
 200 100 l 1,0,-1
300 600 m 1,10,-1
 400 600 l 1,11,-1
 400 700 l 1,12,-1
 600 700 l 1,13,-1
 600 600 l 1,14,-1
 500 600 l 1,15,-1
 500 500 l 1,16,-1
 300 500 l 1,17,-1
 300 600 l 1,10,-1
EndSplineSet
EndChar

StartChar: ucircumflex
Encoding: 251 251 119
Width: 800
GlyphClass: 1
Flags: W
LayerCount: 2
Fore
SplineSet
200 100 m 1,0,-1
 100 100 l 1,1,-1
 100 400 l 1,2,-1
 300 400 l 1,3,-1
 300 100 l 1,4,-1
 500 100 l 1,5,-1
 500 400 l 1,6,-1
 700 400 l 1,7,-1
 700 0 l 1,8,-1
 200 0 l 1,9,-1
 200 100 l 1,0,-1
100 600 m 1,10,-1
 300 600 l 1,11,-1
 300 500 l 1,12,-1
 100 500 l 1,13,-1
 100 600 l 1,10,-1
300 700 m 1,14,-1
 500 700 l 1,15,-1
 500 600 l 1,16,-1
 300 600 l 1,17,-1
 300 700 l 1,14,-1
500 600 m 1,18,-1
 700 600 l 1,19,-1
 700 500 l 1,20,-1
 500 500 l 1,21,-1
 500 600 l 1,18,-1
EndSplineSet
EndChar

StartChar: udieresis
Encoding: 252 252 120
Width: 800
GlyphClass: 1
Flags: W
LayerCount: 2
Fore
SplineSet
200 100 m 1,0,-1
 100 100 l 1,1,-1
 100 500 l 1,2,-1
 300 500 l 1,3,-1
 300 100 l 1,4,-1
 500 100 l 1,5,-1
 500 500 l 1,6,-1
 700 500 l 1,7,-1
 700 0 l 1,8,-1
 200 0 l 1,9,-1
 200 100 l 1,0,-1
100 700 m 1,10,-1
 300 700 l 1,11,-1
 300 600 l 1,12,-1
 100 600 l 1,13,-1
 100 700 l 1,10,-1
500 700 m 1,14,-1
 700 700 l 1,15,-1
 700 600 l 1,16,-1
 500 600 l 1,17,-1
 500 700 l 1,14,-1
EndSplineSet
EndChar

StartChar: ugrave
Encoding: 249 249 121
Width: 800
GlyphClass: 1
Flags: W
LayerCount: 2
Fore
SplineSet
200 100 m 1,0,-1
 100 100 l 1,1,-1
 100 400 l 1,2,-1
 300 400 l 1,3,-1
 300 100 l 1,4,-1
 500 100 l 1,5,-1
 500 400 l 1,6,-1
 700 400 l 1,7,-1
 700 0 l 1,8,-1
 200 0 l 1,9,-1
 200 100 l 1,0,-1
200 700 m 1,10,-1
 400 700 l 1,11,-1
 400 600 l 1,12,-1
 500 600 l 1,13,-1
 500 500 l 1,14,-1
 300 500 l 1,15,-1
 300 600 l 1,16,-1
 200 600 l 1,17,-1
 200 700 l 1,10,-1
EndSplineSet
EndChar

StartChar: v
Encoding: 118 118 122
Width: 800
GlyphClass: 1
Flags: W
LayerCount: 2
Fore
SplineSet
300 100 m 1,0,-1
 200 100 l 1,1,-1
 200 200 l 1,2,-1
 100 200 l 1,3,-1
 100 500 l 1,4,-1
 300 500 l 1,5,-1
 300 200 l 1,6,-1
 500 200 l 1,7,-1
 500 500 l 1,8,-1
 700 500 l 1,9,-1
 700 200 l 1,10,-1
 600 200 l 1,11,-1
 600 100 l 1,12,-1
 500 100 l 1,13,-1
 500 0 l 1,14,-1
 300 0 l 1,15,-1
 300 100 l 1,0,-1
EndSplineSet
EndChar

StartChar: w
Encoding: 119 119 123
Width: 800
GlyphClass: 1
Flags: W
LayerCount: 2
Fore
SplineSet
200 200 m 1,0,-1
 100 200 l 1,1,-1
 100 500 l 1,2,-1
 300 500 l 1,3,-1
 300 300 l 1,4,-1
 400 300 l 1,5,-1
 400 400 l 1,6,-1
 500 400 l 1,7,-1
 500 300 l 1,8,-1
 600 300 l 1,9,-1
 600 500 l 1,10,-1
 800 500 l 1,11,-1
 800 200 l 1,12,-1
 700 200 l 1,13,-1
 700 0 l 1,14,-1
 500 0 l 1,15,-1
 500 100 l 1,16,-1
 400 100 l 1,17,-1
 400 0 l 1,18,-1
 200 0 l 1,19,-1
 200 200 l 1,0,-1
EndSplineSet
EndChar

StartChar: x
Encoding: 120 120 124
Width: 800
GlyphClass: 1
Flags: W
LayerCount: 2
Fore
SplineSet
100 100 m 1,0,-1
 200 100 l 1,1,-1
 200 200 l 1,2,-1
 300 200 l 1,3,-1
 300 300 l 1,4,-1
 200 300 l 1,5,-1
 200 400 l 1,6,-1
 100 400 l 1,7,-1
 100 500 l 1,8,-1
 300 500 l 1,9,-1
 300 400 l 1,10,-1
 500 400 l 1,11,-1
 500 500 l 1,12,-1
 700 500 l 1,13,-1
 700 400 l 1,14,-1
 600 400 l 1,15,-1
 600 300 l 1,16,-1
 500 300 l 1,17,-1
 500 200 l 1,18,-1
 600 200 l 1,19,-1
 600 100 l 1,20,-1
 700 100 l 1,21,-1
 700 0 l 1,22,-1
 500 0 l 1,23,-1
 500 100 l 1,24,-1
 300 100 l 1,25,-1
 300 0 l 1,26,-1
 100 0 l 1,27,-1
 100 100 l 1,0,-1
EndSplineSet
EndChar

StartChar: y
Encoding: 121 121 125
Width: 800
GlyphClass: 1
Flags: W
LayerCount: 2
Fore
SplineSet
500 -100 m 1,0,-1
 100 -100 l 1,1,-1
 100 0 l 1,2,-1
 400 0 l 1,3,-1
 400 100 l 1,4,-1
 200 100 l 1,5,-1
 200 200 l 1,6,-1
 100 200 l 1,7,-1
 100 500 l 1,8,-1
 300 500 l 1,9,-1
 300 200 l 1,10,-1
 500 200 l 1,11,-1
 500 500 l 1,12,-1
 700 500 l 1,13,-1
 700 100 l 1,14,-1
 600 100 l 1,15,-1
 600 0 l 1,16,-1
 500 0 l 1,17,-1
 500 -100 l 1,0,-1
EndSplineSet
EndChar

StartChar: yacute
Encoding: 253 253 126
Width: 800
GlyphClass: 1
Flags: W
LayerCount: 2
Fore
SplineSet
500 -100 m 1,0,-1
 100 -100 l 1,1,-1
 100 0 l 1,2,-1
 400 0 l 1,3,-1
 400 100 l 1,4,-1
 200 100 l 1,5,-1
 200 200 l 1,6,-1
 100 200 l 1,7,-1
 100 400 l 1,8,-1
 300 400 l 1,9,-1
 300 200 l 1,10,-1
 500 200 l 1,11,-1
 500 400 l 1,12,-1
 700 400 l 1,13,-1
 700 100 l 1,14,-1
 600 100 l 1,15,-1
 600 0 l 1,16,-1
 500 0 l 1,17,-1
 500 -100 l 1,0,-1
300 600 m 1,18,-1
 400 600 l 1,19,-1
 400 700 l 1,20,-1
 600 700 l 1,21,-1
 600 600 l 1,22,-1
 500 600 l 1,23,-1
 500 500 l 1,24,-1
 300 500 l 1,25,-1
 300 600 l 1,18,-1
EndSplineSet
EndChar

StartChar: ydieresis
Encoding: 255 255 127
Width: 800
GlyphClass: 1
Flags: W
LayerCount: 2
Fore
SplineSet
500 -100 m 1,0,-1
 100 -100 l 1,1,-1
 100 0 l 1,2,-1
 400 0 l 1,3,-1
 400 100 l 1,4,-1
 200 100 l 1,5,-1
 200 200 l 1,6,-1
 100 200 l 1,7,-1
 100 500 l 1,8,-1
 300 500 l 1,9,-1
 300 200 l 1,10,-1
 500 200 l 1,11,-1
 500 500 l 1,12,-1
 700 500 l 1,13,-1
 700 100 l 1,14,-1
 600 100 l 1,15,-1
 600 0 l 1,16,-1
 500 0 l 1,17,-1
 500 -100 l 1,0,-1
100 700 m 1,18,-1
 300 700 l 1,19,-1
 300 600 l 1,20,-1
 100 600 l 1,21,-1
 100 700 l 1,18,-1
500 700 m 1,22,-1
 700 700 l 1,23,-1
 700 600 l 1,24,-1
 500 600 l 1,25,-1
 500 700 l 1,22,-1
EndSplineSet
EndChar

StartChar: z
Encoding: 122 122 128
Width: 800
GlyphClass: 1
Flags: W
LayerCount: 2
Fore
SplineSet
100 100 m 1,0,-1
 200 100 l 1,1,-1
 200 200 l 1,2,-1
 300 200 l 1,3,-1
 300 300 l 1,4,-1
 400 300 l 1,5,-1
 400 400 l 1,6,-1
 100 400 l 1,7,-1
 100 500 l 1,8,-1
 700 500 l 1,9,-1
 700 400 l 1,10,-1
 600 400 l 1,11,-1
 600 300 l 1,12,-1
 500 300 l 1,13,-1
 500 200 l 1,14,-1
 400 200 l 1,15,-1
 400 100 l 1,16,-1
 700 100 l 1,17,-1
 700 0 l 1,18,-1
 100 0 l 1,19,-1
 100 100 l 1,0,-1
EndSplineSet
EndChar

StartChar: zcaron
Encoding: 382 382 129
Width: 800
GlyphClass: 1
Flags: W
LayerCount: 2
Fore
SplineSet
100 500 m 1,0,-1
 300 500 l 1,1,-1
 300 600 l 1,2,-1
 500 600 l 1,3,-1
 500 500 l 1,4,-1
 700 500 l 1,5,-1
 700 400 l 1,6,-1
 600 400 l 1,7,-1
 600 300 l 1,8,-1
 500 300 l 1,9,-1
 500 200 l 1,10,-1
 400 200 l 1,11,-1
 400 100 l 1,12,-1
 700 100 l 1,13,-1
 700 0 l 1,14,-1
 100 0 l 1,15,-1
 100 100 l 1,16,-1
 200 100 l 1,17,-1
 200 200 l 1,18,-1
 300 200 l 1,19,-1
 300 300 l 1,20,-1
 400 300 l 1,21,-1
 400 400 l 1,22,-1
 100 400 l 1,23,-1
 100 500 l 1,0,-1
200 700 m 1,24,-1
 300 700 l 1,25,-1
 300 600 l 1,26,-1
 200 600 l 1,27,-1
 200 700 l 1,24,-1
500 700 m 1,28,-1
 600 700 l 1,29,-1
 600 600 l 1,30,-1
 500 600 l 1,31,-1
 500 700 l 1,28,-1
EndSplineSet
EndChar

StartChar: uFB01
Encoding: 64257 64257 130
Width: 800
GlyphClass: 1
Flags: W
LayerCount: 2
Fore
SplineSet
100 300 m 1,0,-1
 0 300 l 1,1,-1
 0 400 l 1,2,-1
 100 400 l 1,3,-1
 100 500 l 1,4,-1
 200 500 l 1,5,-1
 200 600 l 1,6,-1
 700 600 l 1,7,-1
 700 500 l 1,8,-1
 300 500 l 1,9,-1
 300 400 l 1,10,-1
 700 400 l 1,11,-1
 700 100 l 1,12,-1
 800 100 l 1,13,-1
 800 0 l 1,14,-1
 400 0 l 1,15,-1
 400 100 l 1,16,-1
 500 100 l 1,17,-1
 500 300 l 1,18,-1
 300 300 l 1,19,-1
 300 0 l 1,20,-1
 100 0 l 1,21,-1
 100 300 l 1,0,-1
EndSplineSet
EndChar

StartChar: uFB02
Encoding: 64258 64258 131
Width: 800
GlyphClass: 1
Flags: W
LayerCount: 2
Fore
SplineSet
100 300 m 1,0,-1
 0 300 l 1,1,-1
 0 400 l 1,2,-1
 100 400 l 1,3,-1
 100 500 l 1,4,-1
 200 500 l 1,5,-1
 200 600 l 1,6,-1
 700 600 l 1,7,-1
 700 100 l 1,8,-1
 800 100 l 1,9,-1
 800 0 l 1,10,-1
 400 0 l 1,11,-1
 400 100 l 1,12,-1
 500 100 l 1,13,-1
 500 500 l 1,14,-1
 300 500 l 1,15,-1
 300 400 l 1,16,-1
 400 400 l 1,17,-1
 400 300 l 1,18,-1
 300 300 l 1,19,-1
 300 0 l 1,20,-1
 100 0 l 1,21,-1
 100 300 l 1,0,-1
EndSplineSet
EndChar

StartChar: uni207F
Encoding: 8319 8319 132
Width: 800
GlyphClass: 1
Flags: W
LayerCount: 2
Fore
SplineSet
100 600 m 1,0,-1
 200 600 l 1,1,-1
 200 700 l 1,2,-1
 500 700 l 1,3,-1
 500 600 l 1,4,-1
 600 600 l 1,5,-1
 600 200 l 1,6,-1
 400 200 l 1,7,-1
 400 600 l 1,8,-1
 300 600 l 1,9,-1
 300 200 l 1,10,-1
 100 200 l 1,11,-1
 100 600 l 1,0,-1
EndSplineSet
EndChar

StartChar: ordfeminine
Encoding: 170 170 133
Width: 800
GlyphClass: 1
Flags: W
LayerCount: 2
Fore
SplineSet
100 700 m 1,0,-1
 400 700 l 1,1,-1
 400 600 l 1,2,-1
 500 600 l 1,3,-1
 500 300 l 1,4,-1
 200 300 l 1,5,-1
 200 400 l 1,6,-1
 100 400 l 1,7,-1
 100 500 l 1,8,-1
 300 500 l 1,9,-1
 300 600 l 1,10,-1
 100 600 l 1,11,-1
 100 700 l 1,0,-1
EndSplineSet
EndChar

StartChar: ordmasculine
Encoding: 186 186 134
Width: 800
GlyphClass: 1
Flags: W
LayerCount: 2
Fore
SplineSet
100 600 m 1,0,-1
 200 600 l 1,1,-1
 200 700 l 1,2,-1
 500 700 l 1,3,-1
 500 600 l 1,4,-1
 600 600 l 1,5,-1
 600 500 l 1,6,-1
 500 500 l 1,7,-1
 500 400 l 1,8,-1
 200 400 l 1,9,-1
 200 500 l 1,10,-1
 100 500 l 1,11,-1
 100 600 l 1,0,-1
EndSplineSet
EndChar

StartChar: u0393
Encoding: 915 915 135
Width: 800
GlyphClass: 1
Flags: W
LayerCount: 2
Fore
SplineSet
0 0 m 1,0,-1
 100 0 l 1,1,-1
 100 500 l 1,2,-1
 0 500 l 1,3,-1
 0 600 l 1,4,-1
 700 600 l 1,5,-1
 700 300 l 1,6,-1
 600 300 l 1,7,-1
 600 400 l 1,8,-1
 500 400 l 1,9,-1
 500 500 l 1,10,-1
 300 500 l 1,11,-1
 300 0 l 1,12,-1
 500 0 l 1,13,-1
 500 -100 l 1,14,-1
 0 -100 l 1,15,-1
 0 0 l 1,0,-1
EndSplineSet
EndChar

StartChar: uni0394
Encoding: 916 916 136
Width: 800
GlyphClass: 1
Flags: W
LayerCount: 2
Fore
SplineSet
100 200 m 1,0,-1
 200 200 l 1,1,-1
 200 400 l 1,2,-1
 300 400 l 1,3,-1
 300 600 l 1,4,-1
 500 600 l 1,5,-1
 500 400 l 1,6,-1
 400 400 l 1,7,-1
 400 200 l 1,8,-1
 300 200 l 1,9,-1
 300 100 l 1,10,-1
 600 100 l 1,11,-1
 600 200 l 1,12,-1
 700 200 l 1,13,-1
 700 0 l 1,14,-1
 100 0 l 1,15,-1
 100 200 l 1,0,-1
500 400 m 1,16,-1
 600 400 l 1,17,-1
 600 200 l 1,18,-1
 500 200 l 1,19,-1
 500 400 l 1,16,-1
EndSplineSet
EndChar

StartChar: u0398
Encoding: 920 920 137
Width: 800
GlyphClass: 1
Flags: W
LayerCount: 2
Fore
SplineSet
200 600 m 1,0,-1
 600 600 l 1,1,-1
 600 500 l 1,2,-1
 700 500 l 1,3,-1
 700 100 l 1,4,-1
 600 100 l 1,5,-1
 600 0 l 1,6,-1
 200 0 l 1,7,-1
 200 100 l 1,8,-1
 100 100 l 1,9,-1
 100 500 l 1,10,-1
 200 500 l 1,11,-1
 200 600 l 1,0,-1
500 100 m 1,12,-1
 500 300 l 1,13,-1
 300 300 l 1,14,-1
 300 100 l 1,15,-1
 500 100 l 1,12,-1
500 400 m 1,16,-1
 500 500 l 1,17,-1
 300 500 l 1,18,-1
 300 400 l 1,19,-1
 500 400 l 1,16,-1
EndSplineSet
EndChar

StartChar: u03A3
Encoding: 931 931 138
Width: 800
GlyphClass: 1
Flags: W
LayerCount: 2
Fore
SplineSet
0 700 m 1,0,-1
 700 700 l 1,1,-1
 700 500 l 1,2,-1
 500 500 l 1,3,-1
 500 600 l 1,4,-1
 300 600 l 1,5,-1
 300 500 l 1,6,-1
 400 500 l 1,7,-1
 400 400 l 1,8,-1
 500 400 l 1,9,-1
 500 300 l 1,10,-1
 400 300 l 1,11,-1
 400 200 l 1,12,-1
 300 200 l 1,13,-1
 300 100 l 1,14,-1
 500 100 l 1,15,-1
 500 200 l 1,16,-1
 700 200 l 1,17,-1
 700 0 l 1,18,-1
 0 0 l 1,19,-1
 0 100 l 1,20,-1
 100 100 l 1,21,-1
 100 200 l 1,22,-1
 200 200 l 1,23,-1
 200 300 l 1,24,-1
 300 300 l 1,25,-1
 300 400 l 1,26,-1
 200 400 l 1,27,-1
 200 500 l 1,28,-1
 100 500 l 1,29,-1
 100 600 l 1,30,-1
 0 600 l 1,31,-1
 0 700 l 1,0,-1
EndSplineSet
EndChar

StartChar: u03A6
Encoding: 934 934 139
Width: 800
GlyphClass: 1
Flags: W
LayerCount: 2
Fore
SplineSet
200 0 m 1,0,-1
 300 0 l 1,1,-1
 300 100 l 1,2,-1
 200 100 l 1,3,-1
 200 200 l 1,4,-1
 100 200 l 1,5,-1
 100 400 l 1,6,-1
 200 400 l 1,7,-1
 200 500 l 1,8,-1
 300 500 l 1,9,-1
 300 600 l 1,10,-1
 200 600 l 1,11,-1
 200 700 l 1,12,-1
 600 700 l 1,13,-1
 600 600 l 1,14,-1
 500 600 l 1,15,-1
 500 500 l 1,16,-1
 600 500 l 1,17,-1
 600 400 l 1,18,-1
 700 400 l 1,19,-1
 700 200 l 1,20,-1
 600 200 l 1,21,-1
 600 100 l 1,22,-1
 500 100 l 1,23,-1
 500 0 l 1,24,-1
 600 0 l 1,25,-1
 600 -100 l 1,26,-1
 200 -100 l 1,27,-1
 200 0 l 1,0,-1
500 200 m 1,28,-1
 500 400 l 1,29,-1
 300 400 l 1,30,-1
 300 200 l 1,31,-1
 500 200 l 1,28,-1
EndSplineSet
EndChar

StartChar: uni03A9
Encoding: 937 937 140
Width: 800
GlyphClass: 1
Flags: W
LayerCount: 2
Fore
SplineSet
200 600 m 1,0,-1
 600 600 l 1,1,-1
 600 500 l 1,2,-1
 700 500 l 1,3,-1
 700 200 l 1,4,-1
 600 200 l 1,5,-1
 600 100 l 1,6,-1
 700 100 l 1,7,-1
 700 0 l 1,8,-1
 500 0 l 1,9,-1
 500 500 l 1,10,-1
 300 500 l 1,11,-1
 300 0 l 1,12,-1
 100 0 l 1,13,-1
 100 100 l 1,14,-1
 200 100 l 1,15,-1
 200 200 l 1,16,-1
 100 200 l 1,17,-1
 100 500 l 1,18,-1
 200 500 l 1,19,-1
 200 600 l 1,0,-1
EndSplineSet
EndChar

StartChar: u03B1
Encoding: 945 945 141
Width: 800
GlyphClass: 1
Flags: W
LayerCount: 2
Fore
SplineSet
100 100 m 1,0,-1
 0 100 l 1,1,-1
 0 400 l 1,2,-1
 100 400 l 1,3,-1
 100 500 l 1,4,-1
 400 500 l 1,5,-1
 400 400 l 1,6,-1
 500 400 l 1,7,-1
 500 500 l 1,8,-1
 700 500 l 1,9,-1
 700 400 l 1,10,-1
 600 400 l 1,11,-1
 600 300 l 1,12,-1
 500 300 l 1,13,-1
 500 200 l 1,14,-1
 600 200 l 1,15,-1
 600 100 l 1,16,-1
 700 100 l 1,17,-1
 700 0 l 1,18,-1
 500 0 l 1,19,-1
 500 100 l 1,20,-1
 400 100 l 1,21,-1
 400 0 l 1,22,-1
 100 0 l 1,23,-1
 100 100 l 1,0,-1
300 100 m 1,24,-1
 300 200 l 1,25,-1
 400 200 l 1,26,-1
 400 300 l 1,27,-1
 300 300 l 1,28,-1
 300 400 l 1,29,-1
 200 400 l 1,30,-1
 200 100 l 1,31,-1
 300 100 l 1,24,-1
EndSplineSet
EndChar

StartChar: u03B2
Encoding: 946 946 142
Width: 800
GlyphClass: 1
Flags: W
LayerCount: 2
Fore
SplineSet
200 500 m 1,0,-1
 200 600 l 1,1,-1
 300 600 l 1,2,-1
 300 700 l 1,3,-1
 600 700 l 1,4,-1
 600 600 l 1,5,-1
 700 600 l 1,6,-1
 700 400 l 1,7,-1
 600 400 l 1,8,-1
 600 300 l 1,9,-1
 700 300 l 1,10,-1
 700 100 l 1,11,-1
 600 100 l 1,12,-1
 600 0 l 1,13,-1
 300 0 l 1,14,-1
 300 -100 l 1,15,-1
 100 -100 l 1,16,-1
 100 500 l 1,17,-1
 200 500 l 1,0,-1
500 100 m 1,18,-1
 500 300 l 1,19,-1
 300 300 l 1,20,-1
 300 100 l 1,21,-1
 500 100 l 1,18,-1
500 400 m 1,22,-1
 500 600 l 1,23,-1
 400 600 l 1,24,-1
 400 500 l 1,25,-1
 300 500 l 1,26,-1
 300 400 l 1,27,-1
 500 400 l 1,22,-1
EndSplineSet
EndChar

StartChar: u03B4
Encoding: 948 948 143
Width: 800
GlyphClass: 1
Flags: W
LayerCount: 2
Fore
SplineSet
100 100 m 1,0,-1
 0 100 l 1,1,-1
 0 400 l 1,2,-1
 100 400 l 1,3,-1
 100 500 l 1,4,-1
 200 500 l 1,5,-1
 200 600 l 1,6,-1
 300 600 l 1,7,-1
 300 700 l 1,8,-1
 600 700 l 1,9,-1
 600 600 l 1,10,-1
 700 600 l 1,11,-1
 700 500 l 1,12,-1
 500 500 l 1,13,-1
 500 600 l 1,14,-1
 400 600 l 1,15,-1
 400 500 l 1,16,-1
 500 500 l 1,17,-1
 500 400 l 1,18,-1
 600 400 l 1,19,-1
 600 100 l 1,20,-1
 500 100 l 1,21,-1
 500 0 l 1,22,-1
 100 0 l 1,23,-1
 100 100 l 1,0,-1
300 200 m 1,24,-1
 300 100 l 1,25,-1
 400 100 l 1,26,-1
 400 300 l 1,27,-1
 300 300 l 1,28,-1
 300 400 l 1,29,-1
 200 400 l 1,30,-1
 200 200 l 1,31,-1
 300 200 l 1,24,-1
EndSplineSet
EndChar

StartChar: uni03BC
Encoding: 956 956 144
Width: 800
GlyphClass: 1
Flags: W
LayerCount: 2
Fore
SplineSet
0 0 m 1,0,-1
 100 0 l 1,1,-1
 100 500 l 1,2,-1
 300 500 l 1,3,-1
 300 100 l 1,4,-1
 400 100 l 1,5,-1
 400 500 l 1,6,-1
 600 500 l 1,7,-1
 600 100 l 1,8,-1
 800 100 l 1,9,-1
 800 0 l 1,10,-1
 200 0 l 1,11,-1
 200 -100 l 1,12,-1
 0 -100 l 1,13,-1
 0 0 l 1,0,-1
EndSplineSet
EndChar

StartChar: u03C0
Encoding: 960 960 145
Width: 800
GlyphClass: 1
Flags: W
LayerCount: 2
Fore
SplineSet
0 500 m 1,0,-1
 700 500 l 1,1,-1
 700 400 l 1,2,-1
 600 400 l 1,3,-1
 600 0 l 1,4,-1
 500 0 l 1,5,-1
 500 -100 l 1,6,-1
 400 -100 l 1,7,-1
 400 400 l 1,8,-1
 300 400 l 1,9,-1
 300 0 l 1,10,-1
 200 0 l 1,11,-1
 200 -100 l 1,12,-1
 100 -100 l 1,13,-1
 100 400 l 1,14,-1
 0 400 l 1,15,-1
 0 500 l 1,0,-1
EndSplineSet
EndChar

StartChar: u03C3
Encoding: 963 963 146
Width: 800
GlyphClass: 1
Flags: W
LayerCount: 2
Fore
SplineSet
200 100 m 1,0,-1
 100 100 l 1,1,-1
 100 400 l 1,2,-1
 200 400 l 1,3,-1
 200 500 l 1,4,-1
 300 500 l 1,5,-1
 300 600 l 1,6,-1
 700 600 l 1,7,-1
 700 500 l 1,8,-1
 500 500 l 1,9,-1
 500 400 l 1,10,-1
 600 400 l 1,11,-1
 600 100 l 1,12,-1
 500 100 l 1,13,-1
 500 0 l 1,14,-1
 200 0 l 1,15,-1
 200 100 l 1,0,-1
400 100 m 1,16,-1
 400 400 l 1,17,-1
 300 400 l 1,18,-1
 300 100 l 1,19,-1
 400 100 l 1,16,-1
EndSplineSet
EndChar

StartChar: u03C4
Encoding: 964 964 147
Width: 800
GlyphClass: 1
Flags: W
LayerCount: 2
Fore
SplineSet
300 400 m 1,0,-1
 100 400 l 1,1,-1
 100 500 l 1,2,-1
 700 500 l 1,3,-1
 700 400 l 1,4,-1
 500 400 l 1,5,-1
 500 0 l 1,6,-1
 400 0 l 1,7,-1
 400 -100 l 1,8,-1
 300 -100 l 1,9,-1
 300 400 l 1,0,-1
EndSplineSet
EndChar

StartChar: uni03D5
Encoding: 981 981 148
Width: 800
GlyphClass: 1
Flags: W
LayerCount: 2
Fore
SplineSet
300 0 m 1,0,-1
 100 0 l 1,1,-1
 100 100 l 1,2,-1
 0 100 l 1,3,-1
 0 400 l 1,4,-1
 100 400 l 1,5,-1
 100 500 l 1,6,-1
 300 500 l 1,7,-1
 300 600 l 1,8,-1
 400 600 l 1,9,-1
 400 500 l 1,10,-1
 600 500 l 1,11,-1
 600 400 l 1,12,-1
 700 400 l 1,13,-1
 700 100 l 1,14,-1
 600 100 l 1,15,-1
 600 0 l 1,16,-1
 400 0 l 1,17,-1
 400 -100 l 1,18,-1
 300 -100 l 1,19,-1
 300 0 l 1,0,-1
300 100 m 1,20,-1
 300 400 l 1,21,-1
 200 400 l 1,22,-1
 200 100 l 1,23,-1
 300 100 l 1,20,-1
500 100 m 1,24,-1
 500 400 l 1,25,-1
 400 400 l 1,26,-1
 400 100 l 1,27,-1
 500 100 l 1,24,-1
EndSplineSet
EndChar

StartChar: uni05D0
Encoding: 1488 1488 149
Width: 800
GlyphClass: 1
Flags: W
LayerCount: 2
Fore
SplineSet
300 600 m 1,0,-1
 300 500 l 1,1,-1
 400 500 l 1,2,-1
 400 400 l 1,3,-1
 500 400 l 1,4,-1
 500 600 l 1,5,-1
 700 600 l 1,6,-1
 700 400 l 1,7,-1
 600 400 l 1,8,-1
 600 300 l 1,9,-1
 700 300 l 1,10,-1
 700 100 l 1,11,-1
 500 100 l 1,12,-1
 500 200 l 1,13,-1
 400 200 l 1,14,-1
 400 300 l 1,15,-1
 300 300 l 1,16,-1
 300 100 l 1,17,-1
 100 100 l 1,18,-1
 100 300 l 1,19,-1
 200 300 l 1,20,-1
 200 400 l 1,21,-1
 100 400 l 1,22,-1
 100 600 l 1,23,-1
 300 600 l 1,0,-1
EndSplineSet
EndChar

StartChar: uni05D1
Encoding: 1489 1489 150
Width: 800
GlyphClass: 1
Flags: W
LayerCount: 2
Fore
SplineSet
100 200 m 1,0,-1
 400 200 l 1,1,-1
 400 500 l 1,2,-1
 100 500 l 1,3,-1
 100 600 l 1,4,-1
 600 600 l 1,5,-1
 600 200 l 1,6,-1
 700 200 l 1,7,-1
 700 100 l 1,8,-1
 100 100 l 1,9,-1
 100 200 l 1,0,-1
EndSplineSet
EndChar

StartChar: uni05D2
Encoding: 1490 1490 151
Width: 800
GlyphClass: 1
Flags: W
LayerCount: 2
Fore
SplineSet
500 200 m 1,0,-1
 400 200 l 1,1,-1
 400 100 l 1,2,-1
 200 100 l 1,3,-1
 200 200 l 1,4,-1
 300 200 l 1,5,-1
 300 300 l 1,6,-1
 400 300 l 1,7,-1
 400 400 l 1,8,-1
 500 400 l 1,9,-1
 500 500 l 1,10,-1
 300 500 l 1,11,-1
 300 600 l 1,12,-1
 700 600 l 1,13,-1
 700 100 l 1,14,-1
 500 100 l 1,15,-1
 500 200 l 1,0,-1
EndSplineSet
EndChar

StartChar: uni05D3
Encoding: 1491 1491 152
Width: 800
GlyphClass: 1
Flags: W
LayerCount: 2
Fore
SplineSet
400 500 m 1,0,-1
 100 500 l 1,1,-1
 100 600 l 1,2,-1
 700 600 l 1,3,-1
 700 500 l 1,4,-1
 600 500 l 1,5,-1
 600 100 l 1,6,-1
 400 100 l 1,7,-1
 400 500 l 1,0,-1
EndSplineSet
EndChar

StartChar: uni05D4
Encoding: 1492 1492 153
Width: 800
GlyphClass: 1
Flags: W
LayerCount: 2
Fore
SplineSet
100 600 m 1,0,-1
 600 600 l 1,1,-1
 600 500 l 1,2,-1
 700 500 l 1,3,-1
 700 100 l 1,4,-1
 500 100 l 1,5,-1
 500 500 l 1,6,-1
 100 500 l 1,7,-1
 100 600 l 1,0,-1
100 400 m 1,8,-1
 300 400 l 1,9,-1
 300 100 l 1,10,-1
 100 100 l 1,11,-1
 100 400 l 1,8,-1
EndSplineSet
EndChar

StartChar: uni05D5
Encoding: 1493 1493 154
Width: 800
GlyphClass: 1
Flags: W
LayerCount: 2
Fore
SplineSet
500 500 m 1,0,-1
 400 500 l 1,1,-1
 400 600 l 1,2,-1
 700 600 l 1,3,-1
 700 100 l 1,4,-1
 500 100 l 1,5,-1
 500 500 l 1,0,-1
EndSplineSet
EndChar

StartChar: uni05D6
Encoding: 1494 1494 155
Width: 800
GlyphClass: 1
Flags: W
LayerCount: 2
Fore
SplineSet
500 400 m 1,0,-1
 400 400 l 1,1,-1
 400 500 l 1,2,-1
 300 500 l 1,3,-1
 300 600 l 1,4,-1
 700 600 l 1,5,-1
 700 500 l 1,6,-1
 600 500 l 1,7,-1
 600 400 l 1,8,-1
 700 400 l 1,9,-1
 700 100 l 1,10,-1
 500 100 l 1,11,-1
 500 400 l 1,0,-1
EndSplineSet
EndChar

StartChar: uni05D7
Encoding: 1495 1495 156
Width: 800
GlyphClass: 1
Flags: W
LayerCount: 2
Fore
SplineSet
500 500 m 1,0,-1
 400 500 l 1,1,-1
 400 100 l 1,2,-1
 200 100 l 1,3,-1
 200 500 l 1,4,-1
 100 500 l 1,5,-1
 100 600 l 1,6,-1
 700 600 l 1,7,-1
 700 100 l 1,8,-1
 500 100 l 1,9,-1
 500 500 l 1,0,-1
EndSplineSet
EndChar

StartChar: uni05D8
Encoding: 1496 1496 157
Width: 800
GlyphClass: 1
Flags: W
LayerCount: 2
Fore
SplineSet
300 700 m 1,0,-1
 300 200 l 1,1,-1
 500 200 l 1,2,-1
 500 500 l 1,3,-1
 400 500 l 1,4,-1
 400 600 l 1,5,-1
 700 600 l 1,6,-1
 700 100 l 1,7,-1
 100 100 l 1,8,-1
 100 700 l 1,9,-1
 300 700 l 1,0,-1
EndSplineSet
EndChar

StartChar: uni05D9
Encoding: 1497 1497 158
Width: 800
GlyphClass: 1
Flags: W
LayerCount: 2
Fore
SplineSet
200 600 m 1,0,-1
 600 600 l 1,1,-1
 600 300 l 1,2,-1
 400 300 l 1,3,-1
 400 500 l 1,4,-1
 200 500 l 1,5,-1
 200 600 l 1,0,-1
EndSplineSet
EndChar

StartChar: uni05DA
Encoding: 1498 1498 159
Width: 800
GlyphClass: 1
Flags: W
LayerCount: 2
Fore
SplineSet
500 500 m 1,0,-1
 200 500 l 1,1,-1
 200 600 l 1,2,-1
 700 600 l 1,3,-1
 700 0 l 1,4,-1
 500 0 l 1,5,-1
 500 500 l 1,0,-1
EndSplineSet
EndChar

StartChar: uni05DB
Encoding: 1499 1499 160
Width: 800
GlyphClass: 1
Flags: W
LayerCount: 2
Fore
SplineSet
200 200 m 1,0,-1
 500 200 l 1,1,-1
 500 500 l 1,2,-1
 200 500 l 1,3,-1
 200 600 l 1,4,-1
 700 600 l 1,5,-1
 700 100 l 1,6,-1
 200 100 l 1,7,-1
 200 200 l 1,0,-1
EndSplineSet
EndChar

StartChar: uni05DC
Encoding: 1500 1500 161
Width: 800
GlyphClass: 1
Flags: W
LayerCount: 2
Fore
SplineSet
400 200 m 1,0,-1
 500 200 l 1,1,-1
 500 500 l 1,2,-1
 100 500 l 1,3,-1
 100 700 l 1,4,-1
 300 700 l 1,5,-1
 300 600 l 1,6,-1
 700 600 l 1,7,-1
 700 100 l 1,8,-1
 400 100 l 1,9,-1
 400 200 l 1,0,-1
EndSplineSet
EndChar

StartChar: uni05DD
Encoding: 1501 1501 162
Width: 800
GlyphClass: 1
Flags: W
LayerCount: 2
Fore
SplineSet
100 500 m 1,0,-1
 0 500 l 1,1,-1
 0 600 l 1,2,-1
 700 600 l 1,3,-1
 700 100 l 1,4,-1
 100 100 l 1,5,-1
 100 500 l 1,0,-1
500 200 m 1,6,-1
 500 500 l 1,7,-1
 300 500 l 1,8,-1
 300 200 l 1,9,-1
 500 200 l 1,6,-1
EndSplineSet
EndChar

StartChar: uni05DE
Encoding: 1502 1502 163
Width: 800
GlyphClass: 1
Flags: W
LayerCount: 2
Fore
SplineSet
500 400 m 1,0,-1
 300 400 l 1,1,-1
 300 100 l 1,2,-1
 100 100 l 1,3,-1
 100 400 l 1,4,-1
 200 400 l 1,5,-1
 200 500 l 1,6,-1
 100 500 l 1,7,-1
 100 600 l 1,8,-1
 300 600 l 1,9,-1
 300 500 l 1,10,-1
 400 500 l 1,11,-1
 400 600 l 1,12,-1
 600 600 l 1,13,-1
 600 500 l 1,14,-1
 700 500 l 1,15,-1
 700 100 l 1,16,-1
 400 100 l 1,17,-1
 400 200 l 1,18,-1
 500 200 l 1,19,-1
 500 400 l 1,0,-1
EndSplineSet
EndChar

StartChar: uni05DF
Encoding: 1503 1503 164
Width: 800
GlyphClass: 1
Flags: W
LayerCount: 2
Fore
SplineSet
400 500 m 1,0,-1
 300 500 l 1,1,-1
 300 600 l 1,2,-1
 600 600 l 1,3,-1
 600 0 l 1,4,-1
 400 0 l 1,5,-1
 400 500 l 1,0,-1
EndSplineSet
EndChar

StartChar: uni05E0
Encoding: 1504 1504 165
Width: 800
GlyphClass: 1
Flags: W
LayerCount: 2
Fore
SplineSet
200 200 m 1,0,-1
 400 200 l 1,1,-1
 400 500 l 1,2,-1
 300 500 l 1,3,-1
 300 600 l 1,4,-1
 600 600 l 1,5,-1
 600 100 l 1,6,-1
 200 100 l 1,7,-1
 200 200 l 1,0,-1
EndSplineSet
EndChar

StartChar: uni05E1
Encoding: 1505 1505 166
Width: 800
GlyphClass: 1
Flags: W
LayerCount: 2
Fore
SplineSet
400 500 m 1,0,-1
 400 200 l 1,1,-1
 500 200 l 1,2,-1
 500 500 l 1,3,-1
 400 500 l 1,0,-1
200 600 m 1,4,-1
 700 600 l 1,5,-1
 700 200 l 1,6,-1
 600 200 l 1,7,-1
 600 100 l 1,8,-1
 300 100 l 1,9,-1
 300 200 l 1,10,-1
 200 200 l 1,11,-1
 200 600 l 1,4,-1
EndSplineSet
EndChar

StartChar: uni05E2
Encoding: 1506 1506 167
Width: 800
GlyphClass: 1
Flags: W
LayerCount: 2
Fore
SplineSet
100 200 m 1,0,-1
 200 200 l 1,1,-1
 200 600 l 1,2,-1
 400 600 l 1,3,-1
 400 200 l 1,4,-1
 500 200 l 1,5,-1
 500 600 l 1,6,-1
 700 600 l 1,7,-1
 700 100 l 1,8,-1
 100 100 l 1,9,-1
 100 200 l 1,0,-1
EndSplineSet
EndChar

StartChar: uni05E3
Encoding: 1507 1507 168
Width: 800
GlyphClass: 1
Flags: W
LayerCount: 2
Fore
SplineSet
500 500 m 1,0,-1
 300 500 l 1,1,-1
 300 400 l 1,2,-1
 400 400 l 1,3,-1
 400 300 l 1,4,-1
 100 300 l 1,5,-1
 100 600 l 1,6,-1
 700 600 l 1,7,-1
 700 0 l 1,8,-1
 500 0 l 1,9,-1
 500 500 l 1,0,-1
EndSplineSet
EndChar

StartChar: uni05E4
Encoding: 1508 1508 169
Width: 800
GlyphClass: 1
Flags: W
LayerCount: 2
Fore
SplineSet
300 500 m 1,0,-1
 300 400 l 1,1,-1
 400 400 l 1,2,-1
 400 300 l 1,3,-1
 100 300 l 1,4,-1
 100 600 l 1,5,-1
 700 600 l 1,6,-1
 700 100 l 1,7,-1
 100 100 l 1,8,-1
 100 200 l 1,9,-1
 500 200 l 1,10,-1
 500 500 l 1,11,-1
 300 500 l 1,0,-1
EndSplineSet
EndChar

StartChar: uni05E5
Encoding: 1509 1509 170
Width: 800
GlyphClass: 1
Flags: W
LayerCount: 2
Fore
SplineSet
700 600 m 1,0,-1
 700 400 l 1,1,-1
 600 400 l 1,2,-1
 600 0 l 1,3,-1
 400 0 l 1,4,-1
 400 300 l 1,5,-1
 300 300 l 1,6,-1
 300 400 l 1,7,-1
 200 400 l 1,8,-1
 200 600 l 1,9,-1
 400 600 l 1,10,-1
 400 400 l 1,11,-1
 500 400 l 1,12,-1
 500 600 l 1,13,-1
 700 600 l 1,0,-1
EndSplineSet
EndChar

StartChar: uni05E6
Encoding: 1510 1510 171
Width: 800
GlyphClass: 1
Flags: W
LayerCount: 2
Fore
SplineSet
700 600 m 1,0,-1
 700 400 l 1,1,-1
 600 400 l 1,2,-1
 600 300 l 1,3,-1
 700 300 l 1,4,-1
 700 100 l 1,5,-1
 100 100 l 1,6,-1
 100 200 l 1,7,-1
 400 200 l 1,8,-1
 400 300 l 1,9,-1
 200 300 l 1,10,-1
 200 400 l 1,11,-1
 100 400 l 1,12,-1
 100 600 l 1,13,-1
 300 600 l 1,14,-1
 300 400 l 1,15,-1
 500 400 l 1,16,-1
 500 600 l 1,17,-1
 700 600 l 1,0,-1
EndSplineSet
EndChar

StartChar: uni05E7
Encoding: 1511 1511 172
Width: 800
GlyphClass: 1
Flags: W
LayerCount: 2
Fore
SplineSet
200 500 m 1,0,-1
 200 600 l 1,1,-1
 700 600 l 1,2,-1
 700 200 l 1,3,-1
 600 200 l 1,4,-1
 600 100 l 1,5,-1
 500 100 l 1,6,-1
 500 500 l 1,7,-1
 200 500 l 1,0,-1
200 400 m 1,8,-1
 400 400 l 1,9,-1
 400 0 l 1,10,-1
 200 0 l 1,11,-1
 200 400 l 1,8,-1
EndSplineSet
EndChar

StartChar: uni05E8
Encoding: 1512 1512 173
Width: 800
GlyphClass: 1
Flags: W
LayerCount: 2
Fore
SplineSet
400 500 m 1,0,-1
 100 500 l 1,1,-1
 100 600 l 1,2,-1
 500 600 l 1,3,-1
 500 500 l 1,4,-1
 600 500 l 1,5,-1
 600 100 l 1,6,-1
 400 100 l 1,7,-1
 400 500 l 1,0,-1
EndSplineSet
EndChar

StartChar: uni05E9
Encoding: 1513 1513 174
Width: 800
GlyphClass: 1
Flags: W
LayerCount: 2
Fore
SplineSet
700 600 m 1,0,-1
 700 100 l 1,1,-1
 0 100 l 1,2,-1
 0 600 l 1,3,-1
 200 600 l 1,4,-1
 200 200 l 1,5,-1
 300 200 l 1,6,-1
 300 600 l 1,7,-1
 400 600 l 1,8,-1
 400 200 l 1,9,-1
 500 200 l 1,10,-1
 500 600 l 1,11,-1
 700 600 l 1,0,-1
EndSplineSet
EndChar

StartChar: uni05EA
Encoding: 1514 1514 175
Width: 800
GlyphClass: 1
Flags: W
LayerCount: 2
Fore
SplineSet
400 500 m 1,0,-1
 300 500 l 1,1,-1
 300 100 l 1,2,-1
 0 100 l 1,3,-1
 0 200 l 1,4,-1
 100 200 l 1,5,-1
 100 600 l 1,6,-1
 600 600 l 1,7,-1
 600 100 l 1,8,-1
 400 100 l 1,9,-1
 400 500 l 1,0,-1
EndSplineSet
EndChar

StartChar: zero
Encoding: 48 48 176
Width: 800
GlyphClass: 1
Flags: W
LayerCount: 2
Fore
SplineSet
200 100 m 1,0,-1
 100 100 l 1,1,-1
 100 500 l 1,2,-1
 200 500 l 1,3,-1
 200 600 l 1,4,-1
 600 600 l 1,5,-1
 600 500 l 1,6,-1
 700 500 l 1,7,-1
 700 100 l 1,8,-1
 600 100 l 1,9,-1
 600 0 l 1,10,-1
 200 0 l 1,11,-1
 200 100 l 1,0,-1
500 100 m 1,12,-1
 500 300 l 1,13,-1
 400 300 l 1,14,-1
 400 400 l 1,15,-1
 500 400 l 1,16,-1
 500 500 l 1,17,-1
 300 500 l 1,18,-1
 300 300 l 1,19,-1
 400 300 l 1,20,-1
 400 200 l 1,21,-1
 300 200 l 1,22,-1
 300 100 l 1,23,-1
 500 100 l 1,12,-1
EndSplineSet
EndChar

StartChar: one
Encoding: 49 49 177
Width: 800
GlyphClass: 1
Flags: W
LayerCount: 2
Fore
SplineSet
100 100 m 1,0,-1
 300 100 l 1,1,-1
 300 400 l 1,2,-1
 200 400 l 1,3,-1
 200 500 l 1,4,-1
 300 500 l 1,5,-1
 300 600 l 1,6,-1
 500 600 l 1,7,-1
 500 100 l 1,8,-1
 700 100 l 1,9,-1
 700 0 l 1,10,-1
 100 0 l 1,11,-1
 100 100 l 1,0,-1
EndSplineSet
EndChar

StartChar: two
Encoding: 50 50 178
Width: 800
GlyphClass: 1
Flags: W
LayerCount: 2
Fore
SplineSet
100 100 m 1,0,-1
 200 100 l 1,1,-1
 200 200 l 1,2,-1
 300 200 l 1,3,-1
 300 300 l 1,4,-1
 400 300 l 1,5,-1
 400 400 l 1,6,-1
 500 400 l 1,7,-1
 500 500 l 1,8,-1
 300 500 l 1,9,-1
 300 400 l 1,10,-1
 100 400 l 1,11,-1
 100 500 l 1,12,-1
 200 500 l 1,13,-1
 200 600 l 1,14,-1
 600 600 l 1,15,-1
 600 500 l 1,16,-1
 700 500 l 1,17,-1
 700 400 l 1,18,-1
 600 400 l 1,19,-1
 600 300 l 1,20,-1
 500 300 l 1,21,-1
 500 200 l 1,22,-1
 400 200 l 1,23,-1
 400 100 l 1,24,-1
 700 100 l 1,25,-1
 700 0 l 1,26,-1
 100 0 l 1,27,-1
 100 100 l 1,0,-1
EndSplineSet
EndChar

StartChar: three
Encoding: 51 51 179
Width: 800
GlyphClass: 1
Flags: W
LayerCount: 2
Fore
SplineSet
200 100 m 1,0,-1
 100 100 l 1,1,-1
 100 200 l 1,2,-1
 300 200 l 1,3,-1
 300 100 l 1,4,-1
 500 100 l 1,5,-1
 500 200 l 1,6,-1
 400 200 l 1,7,-1
 400 300 l 1,8,-1
 300 300 l 1,9,-1
 300 400 l 1,10,-1
 400 400 l 1,11,-1
 400 500 l 1,12,-1
 100 500 l 1,13,-1
 100 600 l 1,14,-1
 700 600 l 1,15,-1
 700 500 l 1,16,-1
 600 500 l 1,17,-1
 600 400 l 1,18,-1
 500 400 l 1,19,-1
 500 300 l 1,20,-1
 600 300 l 1,21,-1
 600 200 l 1,22,-1
 700 200 l 1,23,-1
 700 100 l 1,24,-1
 600 100 l 1,25,-1
 600 0 l 1,26,-1
 200 0 l 1,27,-1
 200 100 l 1,0,-1
EndSplineSet
EndChar

StartChar: four
Encoding: 52 52 180
Width: 800
GlyphClass: 1
Flags: W
LayerCount: 2
Fore
SplineSet
400 100 m 1,0,-1
 100 100 l 1,1,-1
 100 300 l 1,2,-1
 200 300 l 1,3,-1
 200 400 l 1,4,-1
 300 400 l 1,5,-1
 300 500 l 1,6,-1
 400 500 l 1,7,-1
 400 600 l 1,8,-1
 600 600 l 1,9,-1
 600 200 l 1,10,-1
 700 200 l 1,11,-1
 700 100 l 1,12,-1
 600 100 l 1,13,-1
 600 0 l 1,14,-1
 400 0 l 1,15,-1
 400 100 l 1,0,-1
400 200 m 1,16,-1
 400 300 l 1,17,-1
 300 300 l 1,18,-1
 300 200 l 1,19,-1
 400 200 l 1,16,-1
EndSplineSet
EndChar

StartChar: five
Encoding: 53 53 181
Width: 800
GlyphClass: 1
Flags: W
LayerCount: 2
Fore
SplineSet
200 100 m 1,0,-1
 100 100 l 1,1,-1
 100 200 l 1,2,-1
 300 200 l 1,3,-1
 300 100 l 1,4,-1
 500 100 l 1,5,-1
 500 300 l 1,6,-1
 100 300 l 1,7,-1
 100 600 l 1,8,-1
 700 600 l 1,9,-1
 700 500 l 1,10,-1
 300 500 l 1,11,-1
 300 400 l 1,12,-1
 600 400 l 1,13,-1
 600 300 l 1,14,-1
 700 300 l 1,15,-1
 700 100 l 1,16,-1
 600 100 l 1,17,-1
 600 0 l 1,18,-1
 200 0 l 1,19,-1
 200 100 l 1,0,-1
EndSplineSet
EndChar

StartChar: six
Encoding: 54 54 182
Width: 800
GlyphClass: 1
Flags: W
LayerCount: 2
Fore
SplineSet
200 100 m 1,0,-1
 100 100 l 1,1,-1
 100 500 l 1,2,-1
 200 500 l 1,3,-1
 200 600 l 1,4,-1
 600 600 l 1,5,-1
 600 500 l 1,6,-1
 300 500 l 1,7,-1
 300 400 l 1,8,-1
 600 400 l 1,9,-1
 600 300 l 1,10,-1
 700 300 l 1,11,-1
 700 100 l 1,12,-1
 600 100 l 1,13,-1
 600 0 l 1,14,-1
 200 0 l 1,15,-1
 200 100 l 1,0,-1
500 100 m 1,16,-1
 500 300 l 1,17,-1
 300 300 l 1,18,-1
 300 100 l 1,19,-1
 500 100 l 1,16,-1
EndSplineSet
EndChar

StartChar: seven
Encoding: 55 55 183
Width: 800
GlyphClass: 1
Flags: W
LayerCount: 2
Fore
SplineSet
200 200 m 1,0,-1
 300 200 l 1,1,-1
 300 300 l 1,2,-1
 400 300 l 1,3,-1
 400 400 l 1,4,-1
 500 400 l 1,5,-1
 500 500 l 1,6,-1
 100 500 l 1,7,-1
 100 600 l 1,8,-1
 700 600 l 1,9,-1
 700 400 l 1,10,-1
 600 400 l 1,11,-1
 600 300 l 1,12,-1
 500 300 l 1,13,-1
 500 200 l 1,14,-1
 400 200 l 1,15,-1
 400 0 l 1,16,-1
 200 0 l 1,17,-1
 200 200 l 1,0,-1
EndSplineSet
EndChar

StartChar: eight
Encoding: 56 56 184
Width: 800
GlyphClass: 1
Flags: W
LayerCount: 2
Fore
SplineSet
200 100 m 1,0,-1
 100 100 l 1,1,-1
 100 300 l 1,2,-1
 200 300 l 1,3,-1
 200 400 l 1,4,-1
 100 400 l 1,5,-1
 100 500 l 1,6,-1
 200 500 l 1,7,-1
 200 600 l 1,8,-1
 600 600 l 1,9,-1
 600 500 l 1,10,-1
 700 500 l 1,11,-1
 700 400 l 1,12,-1
 600 400 l 1,13,-1
 600 300 l 1,14,-1
 700 300 l 1,15,-1
 700 100 l 1,16,-1
 600 100 l 1,17,-1
 600 0 l 1,18,-1
 200 0 l 1,19,-1
 200 100 l 1,0,-1
500 100 m 1,20,-1
 500 300 l 1,21,-1
 300 300 l 1,22,-1
 300 100 l 1,23,-1
 500 100 l 1,20,-1
500 400 m 1,24,-1
 500 500 l 1,25,-1
 300 500 l 1,26,-1
 300 400 l 1,27,-1
 500 400 l 1,24,-1
EndSplineSet
EndChar

StartChar: nine
Encoding: 57 57 185
Width: 800
GlyphClass: 1
Flags: W
LayerCount: 2
Fore
SplineSet
200 100 m 1,0,-1
 400 100 l 1,1,-1
 400 200 l 1,2,-1
 500 200 l 1,3,-1
 500 300 l 1,4,-1
 200 300 l 1,5,-1
 200 400 l 1,6,-1
 100 400 l 1,7,-1
 100 500 l 1,8,-1
 200 500 l 1,9,-1
 200 600 l 1,10,-1
 600 600 l 1,11,-1
 600 500 l 1,12,-1
 700 500 l 1,13,-1
 700 200 l 1,14,-1
 600 200 l 1,15,-1
 600 100 l 1,16,-1
 500 100 l 1,17,-1
 500 0 l 1,18,-1
 200 0 l 1,19,-1
 200 100 l 1,0,-1
500 400 m 1,20,-1
 500 500 l 1,21,-1
 300 500 l 1,22,-1
 300 400 l 1,23,-1
 500 400 l 1,20,-1
EndSplineSet
EndChar

StartChar: uni00B9
Encoding: 185 185 186
Width: 800
GlyphClass: 1
Flags: W
LayerCount: 2
Fore
SplineSet
100 300 m 1,0,-1
 200 300 l 1,1,-1
 200 500 l 1,2,-1
 100 500 l 1,3,-1
 100 600 l 1,4,-1
 200 600 l 1,5,-1
 200 700 l 1,6,-1
 400 700 l 1,7,-1
 400 300 l 1,8,-1
 500 300 l 1,9,-1
 500 200 l 1,10,-1
 100 200 l 1,11,-1
 100 300 l 1,0,-1
EndSplineSet
EndChar

StartChar: uni00B2
Encoding: 178 178 187
Width: 800
GlyphClass: 1
Flags: W
LayerCount: 2
Fore
SplineSet
100 300 m 1,0,-1
 200 300 l 1,1,-1
 200 400 l 1,2,-1
 300 400 l 1,3,-1
 300 500 l 1,4,-1
 400 500 l 1,5,-1
 400 600 l 1,6,-1
 300 600 l 1,7,-1
 300 500 l 1,8,-1
 100 500 l 1,9,-1
 100 600 l 1,10,-1
 200 600 l 1,11,-1
 200 700 l 1,12,-1
 500 700 l 1,13,-1
 500 600 l 1,14,-1
 600 600 l 1,15,-1
 600 500 l 1,16,-1
 500 500 l 1,17,-1
 500 400 l 1,18,-1
 400 400 l 1,19,-1
 400 300 l 1,20,-1
 600 300 l 1,21,-1
 600 200 l 1,22,-1
 100 200 l 1,23,-1
 100 300 l 1,0,-1
EndSplineSet
EndChar

StartChar: uni00B3
Encoding: 179 179 188
Width: 800
GlyphClass: 1
Flags: W
LayerCount: 2
Fore
SplineSet
100 300 m 1,0,-1
 400 300 l 1,1,-1
 400 400 l 1,2,-1
 200 400 l 1,3,-1
 200 500 l 1,4,-1
 400 500 l 1,5,-1
 400 600 l 1,6,-1
 100 600 l 1,7,-1
 100 700 l 1,8,-1
 500 700 l 1,9,-1
 500 600 l 1,10,-1
 600 600 l 1,11,-1
 600 500 l 1,12,-1
 500 500 l 1,13,-1
 500 400 l 1,14,-1
 600 400 l 1,15,-1
 600 300 l 1,16,-1
 500 300 l 1,17,-1
 500 200 l 1,18,-1
 100 200 l 1,19,-1
 100 300 l 1,0,-1
EndSplineSet
EndChar

StartChar: fraction
Encoding: 8260 8260 189
Width: 800
GlyphClass: 1
Flags: W
LayerCount: 2
Fore
SplineSet
0 200 m 1,0,-1
 100 200 l 1,1,-1
 100 300 l 1,2,-1
 200 300 l 1,3,-1
 200 400 l 1,4,-1
 300 400 l 1,5,-1
 300 500 l 1,6,-1
 400 500 l 1,7,-1
 400 600 l 1,8,-1
 500 600 l 1,9,-1
 500 700 l 1,10,-1
 700 700 l 1,11,-1
 700 600 l 1,12,-1
 600 600 l 1,13,-1
 600 500 l 1,14,-1
 500 500 l 1,15,-1
 500 400 l 1,16,-1
 400 400 l 1,17,-1
 400 300 l 1,18,-1
 300 300 l 1,19,-1
 300 200 l 1,20,-1
 200 200 l 1,21,-1
 200 100 l 1,22,-1
 100 100 l 1,23,-1
 100 0 l 1,24,-1
 0 0 l 1,25,-1
 0 200 l 1,0,-1
EndSplineSet
EndChar

StartChar: onehalf
Encoding: 189 189 190
Width: 800
GlyphClass: 1
Flags: W
LayerCount: 2
Fore
SplineSet
0 200 m 1,0,-1
 100 200 l 1,1,-1
 100 300 l 1,2,-1
 200 300 l 1,3,-1
 200 400 l 1,4,-1
 300 400 l 1,5,-1
 300 500 l 1,6,-1
 400 500 l 1,7,-1
 400 600 l 1,8,-1
 500 600 l 1,9,-1
 500 700 l 1,10,-1
 700 700 l 1,11,-1
 700 600 l 1,12,-1
 600 600 l 1,13,-1
 600 500 l 1,14,-1
 500 500 l 1,15,-1
 500 400 l 1,16,-1
 400 400 l 1,17,-1
 400 300 l 1,18,-1
 300 300 l 1,19,-1
 300 200 l 1,20,-1
 200 200 l 1,21,-1
 200 100 l 1,22,-1
 100 100 l 1,23,-1
 100 0 l 1,24,-1
 0 0 l 1,25,-1
 0 200 l 1,0,-1
0 700 m 1,26,-1
 200 700 l 1,27,-1
 200 400 l 1,28,-1
 0 400 l 1,29,-1
 0 700 l 1,26,-1
400 0 m 1,30,-1
 500 0 l 1,31,-1
 500 100 l 1,32,-1
 600 100 l 1,33,-1
 600 300 l 1,34,-1
 500 300 l 1,35,-1
 500 400 l 1,36,-1
 700 400 l 1,37,-1
 700 300 l 1,38,-1
 800 300 l 1,39,-1
 800 100 l 1,40,-1
 700 100 l 1,41,-1
 700 0 l 1,42,-1
 800 0 l 1,43,-1
 800 -100 l 1,44,-1
 400 -100 l 1,45,-1
 400 0 l 1,30,-1
400 300 m 1,46,-1
 500 300 l 1,47,-1
 500 200 l 1,48,-1
 400 200 l 1,49,-1
 400 300 l 1,46,-1
EndSplineSet
EndChar

StartChar: onequarter
Encoding: 188 188 191
Width: 800
GlyphClass: 1
Flags: W
LayerCount: 2
Fore
SplineSet
0 200 m 1,0,-1
 100 200 l 1,1,-1
 100 300 l 1,2,-1
 200 300 l 1,3,-1
 200 400 l 1,4,-1
 300 400 l 1,5,-1
 300 500 l 1,6,-1
 400 500 l 1,7,-1
 400 600 l 1,8,-1
 500 600 l 1,9,-1
 500 700 l 1,10,-1
 700 700 l 1,11,-1
 700 600 l 1,12,-1
 600 600 l 1,13,-1
 600 500 l 1,14,-1
 500 500 l 1,15,-1
 500 400 l 1,16,-1
 400 400 l 1,17,-1
 400 300 l 1,18,-1
 300 300 l 1,19,-1
 300 200 l 1,20,-1
 200 200 l 1,21,-1
 200 100 l 1,22,-1
 100 100 l 1,23,-1
 100 0 l 1,24,-1
 0 0 l 1,25,-1
 0 200 l 1,0,-1
0 700 m 1,26,-1
 200 700 l 1,27,-1
 200 400 l 1,28,-1
 0 400 l 1,29,-1
 0 700 l 1,26,-1
300 200 m 1,30,-1
 400 200 l 1,31,-1
 400 100 l 1,32,-1
 500 100 l 1,33,-1
 500 200 l 1,34,-1
 400 200 l 1,35,-1
 400 300 l 1,36,-1
 500 300 l 1,37,-1
 500 400 l 1,38,-1
 700 400 l 1,39,-1
 700 100 l 1,40,-1
 800 100 l 1,41,-1
 800 0 l 1,42,-1
 700 0 l 1,43,-1
 700 -100 l 1,44,-1
 500 -100 l 1,45,-1
 500 0 l 1,46,-1
 300 0 l 1,47,-1
 300 200 l 1,30,-1
EndSplineSet
EndChar

StartChar: threequarters
Encoding: 190 190 192
Width: 800
GlyphClass: 1
Flags: W
LayerCount: 2
Fore
SplineSet
0 500 m 1,0,-1
 100 500 l 1,1,-1
 100 600 l 1,2,-1
 0 600 l 1,3,-1
 0 700 l 1,4,-1
 200 700 l 1,5,-1
 200 600 l 1,6,-1
 300 600 l 1,7,-1
 300 500 l 1,8,-1
 200 500 l 1,9,-1
 200 400 l 1,10,-1
 0 400 l 1,11,-1
 0 500 l 1,0,-1
0 200 m 1,12,-1
 100 200 l 1,13,-1
 100 300 l 1,14,-1
 200 300 l 1,15,-1
 200 400 l 1,16,-1
 300 400 l 1,17,-1
 300 500 l 1,18,-1
 400 500 l 1,19,-1
 400 600 l 1,20,-1
 500 600 l 1,21,-1
 500 700 l 1,22,-1
 700 700 l 1,23,-1
 700 600 l 1,24,-1
 600 600 l 1,25,-1
 600 500 l 1,26,-1
 500 500 l 1,27,-1
 500 400 l 1,28,-1
 400 400 l 1,29,-1
 400 300 l 1,30,-1
 300 300 l 1,31,-1
 300 200 l 1,32,-1
 200 200 l 1,33,-1
 200 100 l 1,34,-1
 100 100 l 1,35,-1
 100 0 l 1,36,-1
 0 0 l 1,37,-1
 0 200 l 1,12,-1
300 200 m 1,38,-1
 400 200 l 1,39,-1
 400 100 l 1,40,-1
 500 100 l 1,41,-1
 500 200 l 1,42,-1
 400 200 l 1,43,-1
 400 300 l 1,44,-1
 500 300 l 1,45,-1
 500 400 l 1,46,-1
 700 400 l 1,47,-1
 700 100 l 1,48,-1
 800 100 l 1,49,-1
 800 0 l 1,50,-1
 700 0 l 1,51,-1
 700 -100 l 1,52,-1
 500 -100 l 1,53,-1
 500 0 l 1,54,-1
 300 0 l 1,55,-1
 300 200 l 1,38,-1
EndSplineSet
EndChar

StartChar: period
Encoding: 46 46 194
Width: 800
GlyphClass: 1
Flags: W
LayerCount: 2
Fore
SplineSet
300 200 m 1,0,-1
 500 200 l 1,1,-1
 500 0 l 1,2,-1
 300 0 l 1,3,-1
 300 200 l 1,0,-1
EndSplineSet
EndChar

StartChar: comma
Encoding: 44 44 195
Width: 800
GlyphClass: 1
Flags: W
LayerCount: 2
Fore
SplineSet
500 200 m 1,0,-1
 500 0 l 1,1,-1
 400 0 l 1,2,-1
 400 -100 l 1,3,-1
 200 -100 l 1,4,-1
 200 0 l 1,5,-1
 300 0 l 1,6,-1
 300 200 l 1,7,-1
 500 200 l 1,0,-1
EndSplineSet
EndChar

StartChar: colon
Encoding: 58 58 196
Width: 800
GlyphClass: 1
Flags: W
LayerCount: 2
Fore
SplineSet
300 200 m 1,0,-1
 500 200 l 1,1,-1
 500 0 l 1,2,-1
 300 0 l 1,3,-1
 300 200 l 1,0,-1
300 500 m 1,4,-1
 500 500 l 1,5,-1
 500 300 l 1,6,-1
 300 300 l 1,7,-1
 300 500 l 1,4,-1
EndSplineSet
EndChar

StartChar: semicolon
Encoding: 59 59 197
Width: 800
GlyphClass: 1
Flags: W
LayerCount: 2
Fore
SplineSet
500 200 m 1,0,-1
 500 0 l 1,1,-1
 400 0 l 1,2,-1
 400 -100 l 1,3,-1
 200 -100 l 1,4,-1
 200 0 l 1,5,-1
 300 0 l 1,6,-1
 300 200 l 1,7,-1
 500 200 l 1,0,-1
300 500 m 1,8,-1
 500 500 l 1,9,-1
 500 300 l 1,10,-1
 300 300 l 1,11,-1
 300 500 l 1,8,-1
EndSplineSet
EndChar

StartChar: ellipsis
Encoding: 8230 8230 198
Width: 800
GlyphClass: 1
Flags: W
LayerCount: 2
Fore
SplineSet
0 200 m 1,0,-1
 200 200 l 1,1,-1
 200 0 l 1,2,-1
 0 0 l 1,3,-1
 0 200 l 1,0,-1
300 200 m 1,4,-1
 500 200 l 1,5,-1
 500 0 l 1,6,-1
 300 0 l 1,7,-1
 300 200 l 1,4,-1
600 200 m 1,8,-1
 800 200 l 1,9,-1
 800 0 l 1,10,-1
 600 0 l 1,11,-1
 600 200 l 1,8,-1
EndSplineSet
EndChar

StartChar: exclam
Encoding: 33 33 199
Width: 800
GlyphClass: 1
Flags: W
LayerCount: 2
Fore
SplineSet
500 600 m 1,0,-1
 500 200 l 1,1,-1
 300 200 l 1,2,-1
 300 600 l 1,3,-1
 500 600 l 1,0,-1
300 100 m 1,4,-1
 500 100 l 1,5,-1
 500 0 l 1,6,-1
 300 0 l 1,7,-1
 300 100 l 1,4,-1
EndSplineSet
EndChar

StartChar: exclamdown
Encoding: 161 161 200
Width: 800
GlyphClass: 1
Flags: W
LayerCount: 2
Fore
SplineSet
300 600 m 1,0,-1
 500 600 l 1,1,-1
 500 500 l 1,2,-1
 300 500 l 1,3,-1
 300 600 l 1,0,-1
300 400 m 1,4,-1
 500 400 l 1,5,-1
 500 0 l 1,6,-1
 300 0 l 1,7,-1
 300 400 l 1,4,-1
EndSplineSet
EndChar

StartChar: question
Encoding: 63 63 201
Width: 800
GlyphClass: 1
Flags: W
LayerCount: 2
Fore
SplineSet
300 100 m 1,0,-1
 500 100 l 1,1,-1
 500 0 l 1,2,-1
 300 0 l 1,3,-1
 300 100 l 1,0,-1
100 500 m 1,4,-1
 200 500 l 1,5,-1
 200 600 l 1,6,-1
 600 600 l 1,7,-1
 600 500 l 1,8,-1
 700 500 l 1,9,-1
 700 400 l 1,10,-1
 600 400 l 1,11,-1
 600 300 l 1,12,-1
 500 300 l 1,13,-1
 500 200 l 1,14,-1
 300 200 l 1,15,-1
 300 300 l 1,16,-1
 400 300 l 1,17,-1
 400 400 l 1,18,-1
 500 400 l 1,19,-1
 500 500 l 1,20,-1
 300 500 l 1,21,-1
 300 400 l 1,22,-1
 100 400 l 1,23,-1
 100 500 l 1,4,-1
EndSplineSet
EndChar

StartChar: questiondown
Encoding: 191 191 202
Width: 800
GlyphClass: 1
Flags: W
LayerCount: 2
Fore
SplineSet
300 600 m 1,0,-1
 500 600 l 1,1,-1
 500 500 l 1,2,-1
 300 500 l 1,3,-1
 300 600 l 1,0,-1
100 200 m 1,4,-1
 200 200 l 1,5,-1
 200 300 l 1,6,-1
 300 300 l 1,7,-1
 300 400 l 1,8,-1
 500 400 l 1,9,-1
 500 300 l 1,10,-1
 400 300 l 1,11,-1
 400 200 l 1,12,-1
 300 200 l 1,13,-1
 300 100 l 1,14,-1
 500 100 l 1,15,-1
 500 200 l 1,16,-1
 700 200 l 1,17,-1
 700 100 l 1,18,-1
 600 100 l 1,19,-1
 600 0 l 1,20,-1
 200 0 l 1,21,-1
 200 100 l 1,22,-1
 100 100 l 1,23,-1
 100 200 l 1,4,-1
EndSplineSet
EndChar

StartChar: periodcentered
Encoding: 183 183 203
Width: 800
GlyphClass: 1
Flags: W
LayerCount: 2
Fore
SplineSet
500 400 m 1,0,-1
 500 200 l 1,1,-1
 300 200 l 1,2,-1
 300 400 l 1,3,-1
 500 400 l 1,0,-1
EndSplineSet
EndChar

StartChar: bullet
Encoding: 8226 8226 204
Width: 800
GlyphClass: 1
Flags: W
LayerCount: 2
Fore
SplineSet
200 200 m 1,0,-1
 200 400 l 1,1,-1
 300 400 l 1,2,-1
 300 500 l 1,3,-1
 500 500 l 1,4,-1
 500 400 l 1,5,-1
 600 400 l 1,6,-1
 600 200 l 1,7,-1
 500 200 l 1,8,-1
 500 100 l 1,9,-1
 300 100 l 1,10,-1
 300 200 l 1,11,-1
 200 200 l 1,0,-1
EndSplineSet
EndChar

StartChar: asterisk
Encoding: 42 42 205
Width: 800
GlyphClass: 1
Flags: W
LayerCount: 2
Fore
SplineSet
0 400 m 1,0,-1
 200 400 l 1,1,-1
 200 500 l 1,2,-1
 100 500 l 1,3,-1
 100 600 l 1,4,-1
 300 600 l 1,5,-1
 300 500 l 1,6,-1
 500 500 l 1,7,-1
 500 600 l 1,8,-1
 700 600 l 1,9,-1
 700 500 l 1,10,-1
 600 500 l 1,11,-1
 600 400 l 1,12,-1
 800 400 l 1,13,-1
 800 300 l 1,14,-1
 600 300 l 1,15,-1
 600 200 l 1,16,-1
 700 200 l 1,17,-1
 700 100 l 1,18,-1
 500 100 l 1,19,-1
 500 200 l 1,20,-1
 300 200 l 1,21,-1
 300 100 l 1,22,-1
 100 100 l 1,23,-1
 100 200 l 1,24,-1
 200 200 l 1,25,-1
 200 300 l 1,26,-1
 0 300 l 1,27,-1
 0 400 l 1,0,-1
EndSplineSet
EndChar

StartChar: numbersign
Encoding: 35 35 206
Width: 800
GlyphClass: 1
Flags: W
LayerCount: 2
Fore
SplineSet
0 200 m 1,0,-1
 100 200 l 1,1,-1
 100 400 l 1,2,-1
 0 400 l 1,3,-1
 0 500 l 1,4,-1
 100 500 l 1,5,-1
 100 600 l 1,6,-1
 300 600 l 1,7,-1
 300 500 l 1,8,-1
 500 500 l 1,9,-1
 500 600 l 1,10,-1
 700 600 l 1,11,-1
 700 500 l 1,12,-1
 800 500 l 1,13,-1
 800 400 l 1,14,-1
 700 400 l 1,15,-1
 700 200 l 1,16,-1
 800 200 l 1,17,-1
 800 100 l 1,18,-1
 700 100 l 1,19,-1
 700 0 l 1,20,-1
 500 0 l 1,21,-1
 500 100 l 1,22,-1
 300 100 l 1,23,-1
 300 0 l 1,24,-1
 100 0 l 1,25,-1
 100 100 l 1,26,-1
 0 100 l 1,27,-1
 0 200 l 1,0,-1
500 200 m 1,28,-1
 500 400 l 1,29,-1
 300 400 l 1,30,-1
 300 200 l 1,31,-1
 500 200 l 1,28,-1
EndSplineSet
EndChar

StartChar: slash
Encoding: 47 47 207
Width: 800
GlyphClass: 1
Flags: W
LayerCount: 2
Fore
SplineSet
100 200 m 1,0,-1
 200 200 l 1,1,-1
 200 300 l 1,2,-1
 300 300 l 1,3,-1
 300 400 l 1,4,-1
 400 400 l 1,5,-1
 400 500 l 1,6,-1
 500 500 l 1,7,-1
 500 600 l 1,8,-1
 700 600 l 1,9,-1
 700 500 l 1,10,-1
 600 500 l 1,11,-1
 600 400 l 1,12,-1
 500 400 l 1,13,-1
 500 300 l 1,14,-1
 400 300 l 1,15,-1
 400 200 l 1,16,-1
 300 200 l 1,17,-1
 300 100 l 1,18,-1
 200 100 l 1,19,-1
 200 0 l 1,20,-1
 100 0 l 1,21,-1
 100 200 l 1,0,-1
EndSplineSet
EndChar

StartChar: backslash
Encoding: 92 92 208
Width: 800
GlyphClass: 1
Flags: W
LayerCount: 2
Fore
SplineSet
200 600 m 1,0,-1
 200 500 l 1,1,-1
 300 500 l 1,2,-1
 300 400 l 1,3,-1
 400 400 l 1,4,-1
 400 300 l 1,5,-1
 500 300 l 1,6,-1
 500 200 l 1,7,-1
 600 200 l 1,8,-1
 600 100 l 1,9,-1
 700 100 l 1,10,-1
 700 0 l 1,11,-1
 500 0 l 1,12,-1
 500 100 l 1,13,-1
 400 100 l 1,14,-1
 400 200 l 1,15,-1
 300 200 l 1,16,-1
 300 300 l 1,17,-1
 200 300 l 1,18,-1
 200 400 l 1,19,-1
 100 400 l 1,20,-1
 100 600 l 1,21,-1
 200 600 l 1,0,-1
EndSplineSet
EndChar

StartChar: hyphen
Encoding: 45 45 209
Width: 800
GlyphClass: 1
Flags: W
LayerCount: 2
Fore
SplineSet
100 400 m 1,0,-1
 700 400 l 1,1,-1
 700 300 l 1,2,-1
 100 300 l 1,3,-1
 100 400 l 1,0,-1
EndSplineSet
EndChar

StartChar: endash
Encoding: 8211 8211 211
Width: 800
GlyphClass: 1
Flags: W
LayerCount: 2
Fore
SplineSet
200 400 m 1,0,-1
 600 400 l 1,1,-1
 600 300 l 1,2,-1
 200 300 l 1,3,-1
 200 400 l 1,0,-1
EndSplineSet
EndChar

StartChar: emdash
Encoding: 8212 8212 212
Width: 800
GlyphClass: 1
Flags: W
LayerCount: 2
Fore
SplineSet
0 400 m 1,0,-1
 800 400 l 1,1,-1
 800 300 l 1,2,-1
 0 300 l 1,3,-1
 0 400 l 1,0,-1
EndSplineSet
EndChar

StartChar: underscore
Encoding: 95 95 213
Width: 800
GlyphClass: 1
Flags: W
LayerCount: 2
Fore
SplineSet
0 100 m 1,0,-1
 800 100 l 1,1,-1
 800 0 l 1,2,-1
 0 0 l 1,3,-1
 0 100 l 1,0,-1
EndSplineSet
EndChar

StartChar: parenleft
Encoding: 40 40 214
Width: 800
GlyphClass: 1
Flags: W
LayerCount: 2
Fore
SplineSet
400 100 m 1,0,-1
 300 100 l 1,1,-1
 300 500 l 1,2,-1
 400 500 l 1,3,-1
 400 600 l 1,4,-1
 700 600 l 1,5,-1
 700 500 l 1,6,-1
 600 500 l 1,7,-1
 600 400 l 1,8,-1
 500 400 l 1,9,-1
 500 200 l 1,10,-1
 600 200 l 1,11,-1
 600 100 l 1,12,-1
 700 100 l 1,13,-1
 700 0 l 1,14,-1
 400 0 l 1,15,-1
 400 100 l 1,0,-1
EndSplineSet
EndChar

StartChar: parenright
Encoding: 41 41 215
Width: 800
GlyphClass: 1
Flags: W
LayerCount: 2
Fore
SplineSet
100 100 m 1,0,-1
 200 100 l 1,1,-1
 200 200 l 1,2,-1
 300 200 l 1,3,-1
 300 400 l 1,4,-1
 200 400 l 1,5,-1
 200 500 l 1,6,-1
 100 500 l 1,7,-1
 100 600 l 1,8,-1
 400 600 l 1,9,-1
 400 500 l 1,10,-1
 500 500 l 1,11,-1
 500 100 l 1,12,-1
 400 100 l 1,13,-1
 400 0 l 1,14,-1
 100 0 l 1,15,-1
 100 100 l 1,0,-1
EndSplineSet
EndChar

StartChar: braceleft
Encoding: 123 123 216
Width: 800
GlyphClass: 1
Flags: W
LayerCount: 2
Fore
SplineSet
500 300 m 1,0,-1
 600 300 l 1,1,-1
 600 100 l 1,2,-1
 700 100 l 1,3,-1
 700 0 l 1,4,-1
 500 0 l 1,5,-1
 500 100 l 1,6,-1
 400 100 l 1,7,-1
 400 300 l 1,8,-1
 300 300 l 1,9,-1
 300 400 l 1,10,-1
 400 400 l 1,11,-1
 400 600 l 1,12,-1
 500 600 l 1,13,-1
 500 700 l 1,14,-1
 700 700 l 1,15,-1
 700 600 l 1,16,-1
 600 600 l 1,17,-1
 600 400 l 1,18,-1
 500 400 l 1,19,-1
 500 300 l 1,0,-1
EndSplineSet
EndChar

StartChar: braceright
Encoding: 125 125 217
Width: 800
GlyphClass: 1
Flags: W
LayerCount: 2
Fore
SplineSet
200 400 m 1,0,-1
 200 600 l 1,1,-1
 100 600 l 1,2,-1
 100 700 l 1,3,-1
 300 700 l 1,4,-1
 300 600 l 1,5,-1
 400 600 l 1,6,-1
 400 400 l 1,7,-1
 500 400 l 1,8,-1
 500 300 l 1,9,-1
 400 300 l 1,10,-1
 400 100 l 1,11,-1
 300 100 l 1,12,-1
 300 0 l 1,13,-1
 100 0 l 1,14,-1
 100 100 l 1,15,-1
 200 100 l 1,16,-1
 200 300 l 1,17,-1
 300 300 l 1,18,-1
 300 400 l 1,19,-1
 200 400 l 1,0,-1
EndSplineSet
EndChar

StartChar: bracketleft
Encoding: 91 91 218
Width: 800
GlyphClass: 1
Flags: W
LayerCount: 2
Fore
SplineSet
300 600 m 1,0,-1
 700 600 l 1,1,-1
 700 500 l 1,2,-1
 500 500 l 1,3,-1
 500 100 l 1,4,-1
 700 100 l 1,5,-1
 700 0 l 1,6,-1
 300 0 l 1,7,-1
 300 600 l 1,0,-1
EndSplineSet
EndChar

StartChar: bracketright
Encoding: 93 93 219
Width: 800
GlyphClass: 1
Flags: W
LayerCount: 2
Fore
SplineSet
100 100 m 1,0,-1
 300 100 l 1,1,-1
 300 500 l 1,2,-1
 100 500 l 1,3,-1
 100 600 l 1,4,-1
 500 600 l 1,5,-1
 500 0 l 1,6,-1
 100 0 l 1,7,-1
 100 100 l 1,0,-1
EndSplineSet
EndChar

StartChar: quotesinglbase
Encoding: 8218 8218 220
Width: 800
GlyphClass: 1
Flags: W
LayerCount: 2
Fore
SplineSet
300 300 m 1,0,-1
 500 300 l 1,1,-1
 500 0 l 1,2,-1
 300 0 l 1,3,-1
 300 300 l 1,0,-1
EndSplineSet
EndChar

StartChar: quotedblbase
Encoding: 8222 8222 221
Width: 800
GlyphClass: 1
Flags: W
LayerCount: 2
Fore
SplineSet
100 300 m 1,0,-1
 300 300 l 1,1,-1
 300 0 l 1,2,-1
 100 0 l 1,3,-1
 100 300 l 1,0,-1
500 300 m 1,4,-1
 700 300 l 1,5,-1
 700 0 l 1,6,-1
 500 0 l 1,7,-1
 500 300 l 1,4,-1
EndSplineSet
EndChar

StartChar: quotedblleft
Encoding: 8220 8220 222
Width: 800
GlyphClass: 1
Flags: W
LayerCount: 2
Fore
SplineSet
300 600 m 1,0,-1
 300 400 l 1,1,-1
 200 400 l 1,2,-1
 200 300 l 1,3,-1
 0 300 l 1,4,-1
 0 400 l 1,5,-1
 100 400 l 1,6,-1
 100 600 l 1,7,-1
 300 600 l 1,0,-1
400 400 m 1,8,-1
 500 400 l 1,9,-1
 500 600 l 1,10,-1
 700 600 l 1,11,-1
 700 400 l 1,12,-1
 600 400 l 1,13,-1
 600 300 l 1,14,-1
 400 300 l 1,15,-1
 400 400 l 1,8,-1
EndSplineSet
EndChar

StartChar: quotedblright
Encoding: 8221 8221 223
Width: 800
GlyphClass: 1
Flags: W
LayerCount: 2
Fore
SplineSet
300 600 m 1,0,-1
 300 400 l 1,1,-1
 400 400 l 1,2,-1
 400 300 l 1,3,-1
 200 300 l 1,4,-1
 200 400 l 1,5,-1
 100 400 l 1,6,-1
 100 600 l 1,7,-1
 300 600 l 1,0,-1
500 600 m 1,8,-1
 700 600 l 1,9,-1
 700 400 l 1,10,-1
 800 400 l 1,11,-1
 800 300 l 1,12,-1
 600 300 l 1,13,-1
 600 400 l 1,14,-1
 500 400 l 1,15,-1
 500 600 l 1,8,-1
EndSplineSet
EndChar

StartChar: quoteleft
Encoding: 8216 8216 224
Width: 800
GlyphClass: 1
Flags: W
LayerCount: 2
Fore
SplineSet
300 600 m 1,0,-1
 500 600 l 1,1,-1
 500 400 l 1,2,-1
 400 400 l 1,3,-1
 400 300 l 1,4,-1
 200 300 l 1,5,-1
 200 400 l 1,6,-1
 300 400 l 1,7,-1
 300 600 l 1,0,-1
EndSplineSet
EndChar

StartChar: quoteright
Encoding: 8217 8217 225
Width: 800
GlyphClass: 1
Flags: W
LayerCount: 2
Fore
SplineSet
500 600 m 1,0,-1
 500 400 l 1,1,-1
 600 400 l 1,2,-1
 600 300 l 1,3,-1
 400 300 l 1,4,-1
 400 400 l 1,5,-1
 300 400 l 1,6,-1
 300 600 l 1,7,-1
 500 600 l 1,0,-1
EndSplineSet
EndChar

StartChar: guillemotleft
Encoding: 171 171 226
Width: 800
GlyphClass: 1
Flags: W
LayerCount: 2
Fore
SplineSet
0 300 m 1,0,-1
 100 300 l 1,1,-1
 100 400 l 1,2,-1
 200 400 l 1,3,-1
 200 500 l 1,4,-1
 400 500 l 1,5,-1
 400 400 l 1,6,-1
 300 400 l 1,7,-1
 300 300 l 1,8,-1
 200 300 l 1,9,-1
 200 200 l 1,10,-1
 300 200 l 1,11,-1
 300 100 l 1,12,-1
 400 100 l 1,13,-1
 400 0 l 1,14,-1
 200 0 l 1,15,-1
 200 100 l 1,16,-1
 100 100 l 1,17,-1
 100 200 l 1,18,-1
 0 200 l 1,19,-1
 0 300 l 1,0,-1
400 300 m 1,20,-1
 500 300 l 1,21,-1
 500 400 l 1,22,-1
 600 400 l 1,23,-1
 600 500 l 1,24,-1
 800 500 l 1,25,-1
 800 400 l 1,26,-1
 700 400 l 1,27,-1
 700 300 l 1,28,-1
 600 300 l 1,29,-1
 600 200 l 1,30,-1
 700 200 l 1,31,-1
 700 100 l 1,32,-1
 800 100 l 1,33,-1
 800 0 l 1,34,-1
 600 0 l 1,35,-1
 600 100 l 1,36,-1
 500 100 l 1,37,-1
 500 200 l 1,38,-1
 400 200 l 1,39,-1
 400 300 l 1,20,-1
EndSplineSet
EndChar

StartChar: guillemotright
Encoding: 187 187 227
Width: 800
GlyphClass: 1
Flags: W
LayerCount: 2
Fore
SplineSet
700 200 m 1,0,-1
 700 100 l 1,1,-1
 600 100 l 1,2,-1
 600 0 l 1,3,-1
 400 0 l 1,4,-1
 400 100 l 1,5,-1
 500 100 l 1,6,-1
 500 200 l 1,7,-1
 600 200 l 1,8,-1
 600 300 l 1,9,-1
 500 300 l 1,10,-1
 500 400 l 1,11,-1
 400 400 l 1,12,-1
 400 500 l 1,13,-1
 600 500 l 1,14,-1
 600 400 l 1,15,-1
 700 400 l 1,16,-1
 700 300 l 1,17,-1
 800 300 l 1,18,-1
 800 200 l 1,19,-1
 700 200 l 1,0,-1
0 100 m 1,20,-1
 100 100 l 1,21,-1
 100 200 l 1,22,-1
 200 200 l 1,23,-1
 200 300 l 1,24,-1
 100 300 l 1,25,-1
 100 400 l 1,26,-1
 0 400 l 1,27,-1
 0 500 l 1,28,-1
 200 500 l 1,29,-1
 200 400 l 1,30,-1
 300 400 l 1,31,-1
 300 300 l 1,32,-1
 400 300 l 1,33,-1
 400 200 l 1,34,-1
 300 200 l 1,35,-1
 300 100 l 1,36,-1
 200 100 l 1,37,-1
 200 0 l 1,38,-1
 0 0 l 1,39,-1
 0 100 l 1,20,-1
EndSplineSet
EndChar

StartChar: guilsinglleft
Encoding: 8249 8249 228
Width: 800
GlyphClass: 1
Flags: W
LayerCount: 2
Fore
SplineSet
200 400 m 1,0,-1
 300 400 l 1,1,-1
 300 500 l 1,2,-1
 500 500 l 1,3,-1
 500 400 l 1,4,-1
 400 400 l 1,5,-1
 400 300 l 1,6,-1
 300 300 l 1,7,-1
 300 200 l 1,8,-1
 400 200 l 1,9,-1
 400 100 l 1,10,-1
 500 100 l 1,11,-1
 500 0 l 1,12,-1
 300 0 l 1,13,-1
 300 100 l 1,14,-1
 200 100 l 1,15,-1
 200 200 l 1,16,-1
 100 200 l 1,17,-1
 100 300 l 1,18,-1
 200 300 l 1,19,-1
 200 400 l 1,0,-1
EndSplineSet
EndChar

StartChar: guilsinglright
Encoding: 8250 8250 229
Width: 800
GlyphClass: 1
Flags: W
LayerCount: 2
Fore
SplineSet
600 100 m 1,0,-1
 500 100 l 1,1,-1
 500 0 l 1,2,-1
 300 0 l 1,3,-1
 300 100 l 1,4,-1
 400 100 l 1,5,-1
 400 200 l 1,6,-1
 500 200 l 1,7,-1
 500 300 l 1,8,-1
 400 300 l 1,9,-1
 400 400 l 1,10,-1
 300 400 l 1,11,-1
 300 500 l 1,12,-1
 500 500 l 1,13,-1
 500 400 l 1,14,-1
 600 400 l 1,15,-1
 600 300 l 1,16,-1
 700 300 l 1,17,-1
 700 200 l 1,18,-1
 600 200 l 1,19,-1
 600 100 l 1,0,-1
EndSplineSet
EndChar

StartChar: quotedbl
Encoding: 34 34 230
Width: 800
GlyphClass: 1
Flags: W
LayerCount: 2
Fore
SplineSet
300 600 m 1,0,-1
 300 300 l 1,1,-1
 100 300 l 1,2,-1
 100 600 l 1,3,-1
 300 600 l 1,0,-1
500 600 m 1,4,-1
 700 600 l 1,5,-1
 700 300 l 1,6,-1
 500 300 l 1,7,-1
 500 600 l 1,4,-1
EndSplineSet
EndChar

StartChar: quotesingle
Encoding: 39 39 231
Width: 800
GlyphClass: 1
Flags: W
LayerCount: 2
Fore
SplineSet
500 600 m 1,0,-1
 500 300 l 1,1,-1
 300 300 l 1,2,-1
 300 600 l 1,3,-1
 500 600 l 1,0,-1
EndSplineSet
EndChar

StartChar: florin
Encoding: 402 402 232
Width: 800
GlyphClass: 1
Flags: W
LayerCount: 2
Fore
SplineSet
400 700 m 1,0,-1
 600 700 l 1,1,-1
 600 600 l 1,2,-1
 500 600 l 1,3,-1
 500 400 l 1,4,-1
 600 400 l 1,5,-1
 600 300 l 1,6,-1
 500 300 l 1,7,-1
 500 100 l 1,8,-1
 400 100 l 1,9,-1
 400 0 l 1,10,-1
 200 0 l 1,11,-1
 200 100 l 1,12,-1
 300 100 l 1,13,-1
 300 300 l 1,14,-1
 200 300 l 1,15,-1
 200 400 l 1,16,-1
 300 400 l 1,17,-1
 300 600 l 1,18,-1
 400 600 l 1,19,-1
 400 700 l 1,0,-1
EndSplineSet
EndChar

StartChar: musicalnote
Encoding: 9834 9834 233
AltUni2: 00e00b.ffffffff.0 00e00b.ffffffff.0
Width: 800
GlyphClass: 1
Flags: W
LayerCount: 2
Fore
SplineSet
100 0 m 1,0,-1
 0 0 l 1,1,-1
 0 100 l 1,2,-1
 100 100 l 1,3,-1
 100 200 l 1,4,-1
 300 200 l 1,5,-1
 300 700 l 1,6,-1
 500 700 l 1,7,-1
 500 600 l 1,8,-1
 600 600 l 1,9,-1
 600 500 l 1,10,-1
 700 500 l 1,11,-1
 700 400 l 1,12,-1
 500 400 l 1,13,-1
 500 500 l 1,14,-1
 400 500 l 1,15,-1
 400 0 l 1,16,-1
 300 0 l 1,17,-1
 300 -100 l 1,18,-1
 100 -100 l 1,19,-1
 100 0 l 1,0,-1
EndSplineSet
EndChar

StartChar: spade
Encoding: 9824 9824 234
Width: 800
VWidth: 0
GlyphClass: 1
Flags: W
LayerCount: 2
Fore
SplineSet
200 100 m 1,0,-1
 300 100 l 1,1,-1
 300 200 l 1,2,-1
 100 200 l 1,3,-1
 100 400 l 1,4,-1
 200 400 l 1,5,-1
 200 500 l 1,6,-1
 300 500 l 1,7,-1
 300 600 l 1,8,-1
 500 600 l 1,9,-1
 500 500 l 1,10,-1
 600 500 l 1,11,-1
 600 400 l 1,12,-1
 700 400 l 1,13,-1
 700 200 l 1,14,-1
 500 200 l 1,15,-1
 500 100 l 1,16,-1
 600 100 l 1,17,-1
 600 0 l 1,18,-1
 200 0 l 1,19,-1
 200 100 l 1,0,-1
EndSplineSet
EndChar

StartChar: club
Encoding: 9827 9827 235
Width: 800
VWidth: 0
GlyphClass: 1
Flags: W
LayerCount: 2
Fore
SplineSet
300 100 m 1,0,-1
 400 100 l 1,1,-1
 400 200 l 1,2,-1
 500 200 l 1,3,-1
 500 100 l 1,4,-1
 600 100 l 1,5,-1
 600 0 l 1,6,-1
 300 0 l 1,7,-1
 300 100 l 1,0,-1
100 400 m 1,8,-1
 300 400 l 1,9,-1
 300 600 l 1,10,-1
 600 600 l 1,11,-1
 600 400 l 1,12,-1
 800 400 l 1,13,-1
 800 200 l 1,14,-1
 500 200 l 1,15,-1
 500 400 l 1,16,-1
 400 400 l 1,17,-1
 400 200 l 1,18,-1
 100 200 l 1,19,-1
 100 400 l 1,8,-1
EndSplineSet
EndChar

StartChar: heart
Encoding: 9829 9829 236
Width: 800
VWidth: 0
GlyphClass: 1
Flags: W
LayerCount: 2
Fore
SplineSet
400 100 m 1,0,-1
 300 100 l 1,1,-1
 300 200 l 1,2,-1
 200 200 l 1,3,-1
 200 300 l 1,4,-1
 100 300 l 1,5,-1
 100 500 l 1,6,-1
 200 500 l 1,7,-1
 200 600 l 1,8,-1
 400 600 l 1,9,-1
 400 500 l 1,10,-1
 500 500 l 1,11,-1
 500 600 l 1,12,-1
 700 600 l 1,13,-1
 700 500 l 1,14,-1
 800 500 l 1,15,-1
 800 300 l 1,16,-1
 700 300 l 1,17,-1
 700 200 l 1,18,-1
 600 200 l 1,19,-1
 600 100 l 1,20,-1
 500 100 l 1,21,-1
 500 0 l 1,22,-1
 400 0 l 1,23,-1
 400 100 l 1,0,-1
EndSplineSet
EndChar

StartChar: diamond
Encoding: 9830 9830 237
Width: 800
VWidth: 0
GlyphClass: 1
Flags: W
LayerCount: 2
Fore
SplineSet
300 100 m 1,0,-1
 200 100 l 1,1,-1
 200 200 l 1,2,-1
 100 200 l 1,3,-1
 100 400 l 1,4,-1
 200 400 l 1,5,-1
 200 500 l 1,6,-1
 300 500 l 1,7,-1
 300 600 l 1,8,-1
 500 600 l 1,9,-1
 500 500 l 1,10,-1
 600 500 l 1,11,-1
 600 400 l 1,12,-1
 700 400 l 1,13,-1
 700 200 l 1,14,-1
 600 200 l 1,15,-1
 600 100 l 1,16,-1
 500 100 l 1,17,-1
 500 0 l 1,18,-1
 300 0 l 1,19,-1
 300 100 l 1,0,-1
EndSplineSet
EndChar

StartChar: at
Encoding: 64 64 238
Width: 800
GlyphClass: 1
Flags: W
LayerCount: 2
Fore
SplineSet
200 100 m 1,0,-1
 100 100 l 1,1,-1
 100 500 l 1,2,-1
 200 500 l 1,3,-1
 200 600 l 1,4,-1
 600 600 l 1,5,-1
 600 500 l 1,6,-1
 700 500 l 1,7,-1
 700 200 l 1,8,-1
 400 200 l 1,9,-1
 400 400 l 1,10,-1
 500 400 l 1,11,-1
 500 500 l 1,12,-1
 300 500 l 1,13,-1
 300 100 l 1,14,-1
 700 100 l 1,15,-1
 700 0 l 1,16,-1
 200 0 l 1,17,-1
 200 100 l 1,0,-1
EndSplineSet
EndChar

StartChar: ampersand
Encoding: 38 38 239
Width: 800
GlyphClass: 1
Flags: W
LayerCount: 2
Fore
SplineSet
200 100 m 1,0,-1
 100 100 l 1,1,-1
 100 300 l 1,2,-1
 200 300 l 1,3,-1
 200 400 l 1,4,-1
 300 400 l 1,5,-1
 300 500 l 1,6,-1
 200 500 l 1,7,-1
 200 600 l 1,8,-1
 300 600 l 1,9,-1
 300 700 l 1,10,-1
 600 700 l 1,11,-1
 600 600 l 1,12,-1
 700 600 l 1,13,-1
 700 500 l 1,14,-1
 600 500 l 1,15,-1
 600 400 l 1,16,-1
 500 400 l 1,17,-1
 500 300 l 1,18,-1
 800 300 l 1,19,-1
 800 200 l 1,20,-1
 700 200 l 1,21,-1
 700 100 l 1,22,-1
 800 100 l 1,23,-1
 800 0 l 1,24,-1
 600 0 l 1,25,-1
 600 100 l 1,26,-1
 500 100 l 1,27,-1
 500 200 l 1,28,-1
 400 200 l 1,29,-1
 400 300 l 1,30,-1
 300 300 l 1,31,-1
 300 100 l 1,32,-1
 500 100 l 1,33,-1
 500 0 l 1,34,-1
 200 0 l 1,35,-1
 200 100 l 1,0,-1
500 500 m 1,36,-1
 500 600 l 1,37,-1
 400 600 l 1,38,-1
 400 500 l 1,39,-1
 500 500 l 1,36,-1
EndSplineSet
EndChar

StartChar: paragraph
Encoding: 182 182 240
Width: 800
GlyphClass: 1
Flags: W
LayerCount: 2
Fore
SplineSet
700 700 m 1,0,-1
 700 -100 l 1,1,-1
 600 -100 l 1,2,-1
 600 700 l 1,3,-1
 700 700 l 1,0,-1
0 600 m 1,4,-1
 100 600 l 1,5,-1
 100 700 l 1,6,-1
 500 700 l 1,7,-1
 500 -100 l 1,8,-1
 400 -100 l 1,9,-1
 400 200 l 1,10,-1
 100 200 l 1,11,-1
 100 300 l 1,12,-1
 0 300 l 1,13,-1
 0 600 l 1,4,-1
400 300 m 1,14,-1
 400 600 l 1,15,-1
 200 600 l 1,16,-1
 200 300 l 1,17,-1
 400 300 l 1,14,-1
EndSplineSet
EndChar

StartChar: section
Encoding: 167 167 241
Width: 800
GlyphClass: 1
Flags: W
LayerCount: 2
Fore
SplineSet
0 100 m 1,0,-1
 200 100 l 1,1,-1
 200 0 l 1,2,-1
 300 0 l 1,3,-1
 300 100 l 1,4,-1
 200 100 l 1,5,-1
 200 200 l 1,6,-1
 100 200 l 1,7,-1
 100 400 l 1,8,-1
 200 400 l 1,9,-1
 200 500 l 1,10,-1
 300 500 l 1,11,-1
 300 600 l 1,12,-1
 400 600 l 1,13,-1
 400 700 l 1,14,-1
 700 700 l 1,15,-1
 700 600 l 1,16,-1
 800 600 l 1,17,-1
 800 500 l 1,18,-1
 600 500 l 1,19,-1
 600 600 l 1,20,-1
 500 600 l 1,21,-1
 500 500 l 1,22,-1
 600 500 l 1,23,-1
 600 400 l 1,24,-1
 700 400 l 1,25,-1
 700 200 l 1,26,-1
 600 200 l 1,27,-1
 600 100 l 1,28,-1
 500 100 l 1,29,-1
 500 0 l 1,30,-1
 400 0 l 1,31,-1
 400 -100 l 1,32,-1
 100 -100 l 1,33,-1
 100 0 l 1,34,-1
 0 0 l 1,35,-1
 0 100 l 1,0,-1
500 200 m 1,36,-1
 500 400 l 1,37,-1
 300 400 l 1,38,-1
 300 200 l 1,39,-1
 500 200 l 1,36,-1
EndSplineSet
EndChar

StartChar: copyright
Encoding: 169 169 242
Width: 800
GlyphClass: 1
Flags: W
LayerCount: 2
Fore
SplineSet
100 0 m 1,0,-1
 0 0 l 1,1,-1
 0 600 l 1,2,-1
 100 600 l 1,3,-1
 100 700 l 1,4,-1
 700 700 l 1,5,-1
 700 600 l 1,6,-1
 800 600 l 1,7,-1
 800 0 l 1,8,-1
 700 0 l 1,9,-1
 700 -100 l 1,10,-1
 100 -100 l 1,11,-1
 100 0 l 1,0,-1
200 100 m 1,12,-1
 200 0 l 1,13,-1
 600 0 l 1,14,-1
 600 100 l 1,15,-1
 700 100 l 1,16,-1
 700 500 l 1,17,-1
 600 500 l 1,18,-1
 600 600 l 1,19,-1
 200 600 l 1,20,-1
 200 500 l 1,21,-1
 100 500 l 1,22,-1
 100 100 l 1,23,-1
 200 100 l 1,12,-1
200 500 m 1,24,-1
 600 500 l 1,25,-1
 600 400 l 1,26,-1
 400 400 l 1,27,-1
 400 200 l 1,28,-1
 600 200 l 1,29,-1
 600 100 l 1,30,-1
 200 100 l 1,31,-1
 200 500 l 1,24,-1
EndSplineSet
EndChar

StartChar: registered
Encoding: 174 174 243
Width: 800
GlyphClass: 1
Flags: W
LayerCount: 2
Fore
SplineSet
100 0 m 1,0,-1
 0 0 l 1,1,-1
 0 600 l 1,2,-1
 100 600 l 1,3,-1
 100 700 l 1,4,-1
 700 700 l 1,5,-1
 700 600 l 1,6,-1
 800 600 l 1,7,-1
 800 0 l 1,8,-1
 700 0 l 1,9,-1
 700 -100 l 1,10,-1
 100 -100 l 1,11,-1
 100 0 l 1,0,-1
200 100 m 1,12,-1
 200 0 l 1,13,-1
 600 0 l 1,14,-1
 600 100 l 1,15,-1
 700 100 l 1,16,-1
 700 500 l 1,17,-1
 600 500 l 1,18,-1
 600 600 l 1,19,-1
 200 600 l 1,20,-1
 200 500 l 1,21,-1
 100 500 l 1,22,-1
 100 100 l 1,23,-1
 200 100 l 1,12,-1
200 500 m 1,24,-1
 600 500 l 1,25,-1
 600 300 l 1,26,-1
 500 300 l 1,27,-1
 500 400 l 1,28,-1
 300 400 l 1,29,-1
 300 300 l 1,30,-1
 500 300 l 1,31,-1
 500 200 l 1,32,-1
 600 200 l 1,33,-1
 600 100 l 1,34,-1
 400 100 l 1,35,-1
 400 200 l 1,36,-1
 300 200 l 1,37,-1
 300 100 l 1,38,-1
 200 100 l 1,39,-1
 200 500 l 1,24,-1
EndSplineSet
EndChar

StartChar: trademark
Encoding: 8482 8482 244
Width: 800
GlyphClass: 1
Flags: W
LayerCount: 2
Fore
SplineSet
700 700 m 1,0,-1
 800 700 l 1,1,-1
 800 200 l 1,2,-1
 700 200 l 1,3,-1
 700 400 l 1,4,-1
 600 400 l 1,5,-1
 600 300 l 1,6,-1
 500 300 l 1,7,-1
 500 400 l 1,8,-1
 400 400 l 1,9,-1
 400 200 l 1,10,-1
 300 200 l 1,11,-1
 300 600 l 1,12,-1
 200 600 l 1,13,-1
 200 200 l 1,14,-1
 100 200 l 1,15,-1
 100 600 l 1,16,-1
 0 600 l 1,17,-1
 0 700 l 1,18,-1
 400 700 l 1,19,-1
 400 600 l 1,20,-1
 500 600 l 1,21,-1
 500 500 l 1,22,-1
 600 500 l 1,23,-1
 600 600 l 1,24,-1
 700 600 l 1,25,-1
 700 700 l 1,0,-1
EndSplineSet
EndChar

StartChar: degree
Encoding: 176 176 245
Width: 800
GlyphClass: 1
Flags: W
LayerCount: 2
Fore
SplineSet
200 500 m 1,0,-1
 100 500 l 1,1,-1
 100 600 l 1,2,-1
 200 600 l 1,3,-1
 200 700 l 1,4,-1
 500 700 l 1,5,-1
 500 600 l 1,6,-1
 600 600 l 1,7,-1
 600 500 l 1,8,-1
 500 500 l 1,9,-1
 500 400 l 1,10,-1
 200 400 l 1,11,-1
 200 500 l 1,0,-1
400 500 m 1,12,-1
 400 600 l 1,13,-1
 300 600 l 1,14,-1
 300 500 l 1,15,-1
 400 500 l 1,12,-1
EndSplineSet
EndChar

StartChar: bar
Encoding: 124 124 246
Width: 800
GlyphClass: 1
Flags: W
LayerCount: 2
Fore
SplineSet
500 700 m 1,0,-1
 500 -100 l 1,1,-1
 300 -100 l 1,2,-1
 300 700 l 1,3,-1
 500 700 l 1,0,-1
EndSplineSet
EndChar

StartChar: brokenbar
Encoding: 166 166 247
Width: 800
GlyphClass: 1
Flags: W
LayerCount: 2
Fore
SplineSet
500 200 m 1,0,-1
 500 -100 l 1,1,-1
 300 -100 l 1,2,-1
 300 200 l 1,3,-1
 500 200 l 1,0,-1
300 700 m 1,4,-1
 500 700 l 1,5,-1
 500 400 l 1,6,-1
 300 400 l 1,7,-1
 300 700 l 1,4,-1
EndSplineSet
EndChar

StartChar: dagger
Encoding: 8224 8224 248
Width: 800
GlyphClass: 1
Flags: W
LayerCount: 2
Fore
SplineSet
300 400 m 1,0,-1
 200 400 l 1,1,-1
 200 500 l 1,2,-1
 300 500 l 1,3,-1
 300 600 l 1,4,-1
 400 600 l 1,5,-1
 400 500 l 1,6,-1
 500 500 l 1,7,-1
 500 400 l 1,8,-1
 400 400 l 1,9,-1
 400 100 l 1,10,-1
 300 100 l 1,11,-1
 300 400 l 1,0,-1
EndSplineSet
EndChar

StartChar: daggerdbl
Encoding: 8225 8225 249
Width: 800
GlyphClass: 1
Flags: W
LayerCount: 2
Fore
SplineSet
300 600 m 1,0,-1
 400 600 l 1,1,-1
 400 500 l 1,2,-1
 500 500 l 1,3,-1
 500 400 l 1,4,-1
 400 400 l 1,5,-1
 400 300 l 1,6,-1
 500 300 l 1,7,-1
 500 200 l 1,8,-1
 400 200 l 1,9,-1
 400 100 l 1,10,-1
 300 100 l 1,11,-1
 300 200 l 1,12,-1
 200 200 l 1,13,-1
 200 300 l 1,14,-1
 300 300 l 1,15,-1
 300 400 l 1,16,-1
 200 400 l 1,17,-1
 200 500 l 1,18,-1
 300 500 l 1,19,-1
 300 600 l 1,0,-1
EndSplineSet
EndChar

StartChar: u1F8B0
Encoding: 129200 129200 250
Width: 800
GlyphClass: 1
Flags: W
LayerCount: 2
Fore
SplineSet
500 400 m 1,0,-1
 600 400 l 1,1,-1
 600 300 l 1,2,-1
 700 300 l 1,3,-1
 700 0 l 1,4,-1
 500 0 l 1,5,-1
 500 200 l 1,6,-1
 400 200 l 1,7,-1
 400 300 l 1,8,-1
 300 300 l 1,9,-1
 300 100 l 1,10,-1
 100 100 l 1,11,-1
 100 600 l 1,12,-1
 700 600 l 1,13,-1
 700 500 l 1,14,-1
 500 500 l 1,15,-1
 500 400 l 1,0,-1
EndSplineSet
EndChar

StartChar: uni240C
Encoding: 9228 9228 251
AltUni2: 00e00c.ffffffff.0 00e00c.ffffffff.0
Width: 800
GlyphClass: 1
Flags: W
LayerCount: 2
Fore
SplineSet
0 700 m 1,0,-1
 400 700 l 1,1,-1
 400 600 l 1,2,-1
 200 600 l 1,3,-1
 200 500 l 1,4,-1
 700 500 l 1,5,-1
 700 400 l 1,6,-1
 500 400 l 1,7,-1
 500 300 l 1,8,-1
 700 300 l 1,9,-1
 700 200 l 1,10,-1
 500 200 l 1,11,-1
 500 0 l 1,12,-1
 300 0 l 1,13,-1
 300 400 l 1,14,-1
 200 400 l 1,15,-1
 200 200 l 1,16,-1
 0 200 l 1,17,-1
 0 700 l 1,0,-1
EndSplineSet
EndChar

StartChar: uni240D
Encoding: 9229 9229 252
AltUni2: 00e00d.ffffffff.0 00e00d.ffffffff.0
Width: 800
GlyphClass: 1
Flags: W
LayerCount: 2
Fore
SplineSet
400 700 m 1,0,-1
 400 600 l 1,1,-1
 200 600 l 1,2,-1
 200 300 l 1,3,-1
 300 300 l 1,4,-1
 300 500 l 1,5,-1
 800 500 l 1,6,-1
 800 200 l 1,7,-1
 700 200 l 1,8,-1
 700 100 l 1,9,-1
 800 100 l 1,10,-1
 800 0 l 1,11,-1
 600 0 l 1,12,-1
 600 100 l 1,13,-1
 500 100 l 1,14,-1
 500 0 l 1,15,-1
 300 0 l 1,16,-1
 300 200 l 1,17,-1
 0 200 l 1,18,-1
 0 700 l 1,19,-1
 400 700 l 1,0,-1
600 300 m 1,20,-1
 600 400 l 1,21,-1
 500 400 l 1,22,-1
 500 300 l 1,23,-1
 600 300 l 1,20,-1
EndSplineSet
EndChar

StartChar: uni241B
Encoding: 9243 9243 253
AltUni2: 00e01b.ffffffff.0 00e01b.ffffffff.0
Width: 800
GlyphClass: 1
Flags: W
LayerCount: 2
Fore
SplineSet
500 700 m 1,0,-1
 500 600 l 1,1,-1
 300 600 l 1,2,-1
 300 500 l 1,3,-1
 500 500 l 1,4,-1
 500 400 l 1,5,-1
 300 400 l 1,6,-1
 300 300 l 1,7,-1
 700 300 l 1,8,-1
 700 200 l 1,9,-1
 500 200 l 1,10,-1
 500 100 l 1,11,-1
 700 100 l 1,12,-1
 700 0 l 1,13,-1
 300 0 l 1,14,-1
 300 200 l 1,15,-1
 100 200 l 1,16,-1
 100 700 l 1,17,-1
 500 700 l 1,0,-1
EndSplineSet
EndChar

StartChar: cent
Encoding: 162 162 254
Width: 800
GlyphClass: 1
Flags: W
LayerCount: 2
Fore
SplineSet
300 100 m 1,0,-1
 200 100 l 1,1,-1
 200 200 l 1,2,-1
 100 200 l 1,3,-1
 100 400 l 1,4,-1
 200 400 l 1,5,-1
 200 500 l 1,6,-1
 300 500 l 1,7,-1
 300 700 l 1,8,-1
 500 700 l 1,9,-1
 500 500 l 1,10,-1
 600 500 l 1,11,-1
 600 400 l 1,12,-1
 300 400 l 1,13,-1
 300 200 l 1,14,-1
 600 200 l 1,15,-1
 600 100 l 1,16,-1
 500 100 l 1,17,-1
 500 -100 l 1,18,-1
 300 -100 l 1,19,-1
 300 100 l 1,0,-1
EndSplineSet
EndChar

StartChar: currency
Encoding: 164 164 255
Width: 800
GlyphClass: 1
Flags: W
LayerCount: 2
Fore
SplineSet
100 500 m 1,0,-1
 100 600 l 1,1,-1
 300 600 l 1,2,-1
 300 500 l 1,3,-1
 500 500 l 1,4,-1
 500 600 l 1,5,-1
 700 600 l 1,6,-1
 700 500 l 1,7,-1
 600 500 l 1,8,-1
 600 100 l 1,9,-1
 700 100 l 1,10,-1
 700 0 l 1,11,-1
 500 0 l 1,12,-1
 500 100 l 1,13,-1
 300 100 l 1,14,-1
 300 0 l 1,15,-1
 100 0 l 1,16,-1
 100 100 l 1,17,-1
 200 100 l 1,18,-1
 200 500 l 1,19,-1
 100 500 l 1,0,-1
500 200 m 1,20,-1
 500 400 l 1,21,-1
 300 400 l 1,22,-1
 300 200 l 1,23,-1
 500 200 l 1,20,-1
EndSplineSet
EndChar

StartChar: dollar
Encoding: 36 36 256
Width: 800
GlyphClass: 1
Flags: W
LayerCount: 2
Fore
SplineSet
300 100 m 1,0,-1
 100 100 l 1,1,-1
 100 200 l 1,2,-1
 500 200 l 1,3,-1
 500 300 l 1,4,-1
 200 300 l 1,5,-1
 200 400 l 1,6,-1
 100 400 l 1,7,-1
 100 500 l 1,8,-1
 200 500 l 1,9,-1
 200 600 l 1,10,-1
 300 600 l 1,11,-1
 300 700 l 1,12,-1
 500 700 l 1,13,-1
 500 600 l 1,14,-1
 700 600 l 1,15,-1
 700 500 l 1,16,-1
 300 500 l 1,17,-1
 300 400 l 1,18,-1
 600 400 l 1,19,-1
 600 300 l 1,20,-1
 700 300 l 1,21,-1
 700 200 l 1,22,-1
 600 200 l 1,23,-1
 600 100 l 1,24,-1
 500 100 l 1,25,-1
 500 0 l 1,26,-1
 300 0 l 1,27,-1
 300 100 l 1,0,-1
EndSplineSet
EndChar

StartChar: Euro
Encoding: 8364 8364 257
Width: 800
GlyphClass: 1
Flags: W
LayerCount: 2
Fore
SplineSet
200 100 m 1,0,-1
 100 100 l 1,1,-1
 100 200 l 1,2,-1
 0 200 l 1,3,-1
 0 300 l 1,4,-1
 100 300 l 1,5,-1
 100 400 l 1,6,-1
 0 400 l 1,7,-1
 0 500 l 1,8,-1
 100 500 l 1,9,-1
 100 600 l 1,10,-1
 200 600 l 1,11,-1
 200 700 l 1,12,-1
 600 700 l 1,13,-1
 600 600 l 1,14,-1
 700 600 l 1,15,-1
 700 500 l 1,16,-1
 500 500 l 1,17,-1
 500 600 l 1,18,-1
 300 600 l 1,19,-1
 300 500 l 1,20,-1
 400 500 l 1,21,-1
 400 400 l 1,22,-1
 300 400 l 1,23,-1
 300 300 l 1,24,-1
 400 300 l 1,25,-1
 400 200 l 1,26,-1
 300 200 l 1,27,-1
 300 100 l 1,28,-1
 500 100 l 1,29,-1
 500 200 l 1,30,-1
 700 200 l 1,31,-1
 700 100 l 1,32,-1
 600 100 l 1,33,-1
 600 0 l 1,34,-1
 200 0 l 1,35,-1
 200 100 l 1,0,-1
EndSplineSet
EndChar

StartChar: sterling
Encoding: 163 163 258
Width: 800
GlyphClass: 1
Flags: W
LayerCount: 2
Fore
SplineSet
100 100 m 1,0,-1
 200 100 l 1,1,-1
 200 300 l 1,2,-1
 100 300 l 1,3,-1
 100 400 l 1,4,-1
 200 400 l 1,5,-1
 200 600 l 1,6,-1
 300 600 l 1,7,-1
 300 700 l 1,8,-1
 600 700 l 1,9,-1
 600 600 l 1,10,-1
 500 600 l 1,11,-1
 500 500 l 1,12,-1
 400 500 l 1,13,-1
 400 400 l 1,14,-1
 600 400 l 1,15,-1
 600 300 l 1,16,-1
 400 300 l 1,17,-1
 400 100 l 1,18,-1
 700 100 l 1,19,-1
 700 0 l 1,20,-1
 100 0 l 1,21,-1
 100 100 l 1,0,-1
600 600 m 1,22,-1
 700 600 l 1,23,-1
 700 500 l 1,24,-1
 600 500 l 1,25,-1
 600 600 l 1,22,-1
EndSplineSet
EndChar

StartChar: yen
Encoding: 165 165 259
Width: 800
GlyphClass: 1
Flags: W
LayerCount: 2
Fore
SplineSet
300 700 m 1,0,-1
 300 500 l 1,1,-1
 500 500 l 1,2,-1
 500 700 l 1,3,-1
 700 700 l 1,4,-1
 700 500 l 1,5,-1
 600 500 l 1,6,-1
 600 400 l 1,7,-1
 500 400 l 1,8,-1
 500 300 l 1,9,-1
 600 300 l 1,10,-1
 600 200 l 1,11,-1
 500 200 l 1,12,-1
 500 0 l 1,13,-1
 300 0 l 1,14,-1
 300 200 l 1,15,-1
 200 200 l 1,16,-1
 200 300 l 1,17,-1
 300 300 l 1,18,-1
 300 400 l 1,19,-1
 200 400 l 1,20,-1
 200 500 l 1,21,-1
 100 500 l 1,22,-1
 100 700 l 1,23,-1
 300 700 l 1,0,-1
EndSplineSet
EndChar

StartChar: plus
Encoding: 43 43 260
Width: 800
GlyphClass: 1
Flags: W
LayerCount: 2
Fore
SplineSet
300 300 m 1,0,-1
 100 300 l 1,1,-1
 100 400 l 1,2,-1
 300 400 l 1,3,-1
 300 600 l 1,4,-1
 500 600 l 1,5,-1
 500 400 l 1,6,-1
 700 400 l 1,7,-1
 700 300 l 1,8,-1
 500 300 l 1,9,-1
 500 100 l 1,10,-1
 300 100 l 1,11,-1
 300 300 l 1,0,-1
EndSplineSet
EndChar

StartChar: minus
Encoding: 8722 8722 261
Width: 800
GlyphClass: 1
Flags: W
LayerCount: 2
Fore
SplineSet
100 400 m 1,0,-1
 700 400 l 1,1,-1
 700 300 l 1,2,-1
 100 300 l 1,3,-1
 100 400 l 1,0,-1
EndSplineSet
EndChar

StartChar: multiply
Encoding: 215 215 262
Width: 800
GlyphClass: 1
Flags: W
LayerCount: 2
Fore
SplineSet
300 300 m 1,0,-1
 200 300 l 1,1,-1
 200 400 l 1,2,-1
 100 400 l 1,3,-1
 100 500 l 1,4,-1
 300 500 l 1,5,-1
 300 400 l 1,6,-1
 500 400 l 1,7,-1
 500 500 l 1,8,-1
 700 500 l 1,9,-1
 700 400 l 1,10,-1
 600 400 l 1,11,-1
 600 300 l 1,12,-1
 500 300 l 1,13,-1
 500 200 l 1,14,-1
 600 200 l 1,15,-1
 600 100 l 1,16,-1
 700 100 l 1,17,-1
 700 0 l 1,18,-1
 500 0 l 1,19,-1
 500 100 l 1,20,-1
 300 100 l 1,21,-1
 300 0 l 1,22,-1
 100 0 l 1,23,-1
 100 100 l 1,24,-1
 200 100 l 1,25,-1
 200 200 l 1,26,-1
 300 200 l 1,27,-1
 300 300 l 1,0,-1
EndSplineSet
EndChar

StartChar: divide
Encoding: 247 247 263
Width: 800
GlyphClass: 1
Flags: W
LayerCount: 2
Fore
SplineSet
500 700 m 1,0,-1
 500 500 l 1,1,-1
 300 500 l 1,2,-1
 300 700 l 1,3,-1
 500 700 l 1,0,-1
100 400 m 1,4,-1
 700 400 l 1,5,-1
 700 300 l 1,6,-1
 100 300 l 1,7,-1
 100 400 l 1,4,-1
300 200 m 1,8,-1
 500 200 l 1,9,-1
 500 0 l 1,10,-1
 300 0 l 1,11,-1
 300 200 l 1,8,-1
EndSplineSet
EndChar

StartChar: equal
Encoding: 61 61 264
Width: 800
GlyphClass: 1
Flags: W
LayerCount: 2
Fore
SplineSet
100 200 m 1,0,-1
 700 200 l 1,1,-1
 700 100 l 1,2,-1
 100 100 l 1,3,-1
 100 200 l 1,0,-1
100 500 m 1,4,-1
 700 500 l 1,5,-1
 700 400 l 1,6,-1
 100 400 l 1,7,-1
 100 500 l 1,4,-1
EndSplineSet
EndChar

StartChar: notequal
Encoding: 8800 8800 265
Width: 800
GlyphClass: 1
Flags: W
LayerCount: 2
Fore
SplineSet
100 500 m 1,0,-1
 500 500 l 1,1,-1
 500 600 l 1,2,-1
 600 600 l 1,3,-1
 600 500 l 1,4,-1
 700 500 l 1,5,-1
 700 400 l 1,6,-1
 500 400 l 1,7,-1
 500 300 l 1,8,-1
 400 300 l 1,9,-1
 400 400 l 1,10,-1
 100 400 l 1,11,-1
 100 500 l 1,0,-1
100 200 m 1,12,-1
 300 200 l 1,13,-1
 300 300 l 1,14,-1
 400 300 l 1,15,-1
 400 200 l 1,16,-1
 700 200 l 1,17,-1
 700 100 l 1,18,-1
 300 100 l 1,19,-1
 300 0 l 1,20,-1
 200 0 l 1,21,-1
 200 100 l 1,22,-1
 100 100 l 1,23,-1
 100 200 l 1,12,-1
EndSplineSet
EndChar

StartChar: greater
Encoding: 62 62 266
Width: 800
GlyphClass: 1
Flags: W
LayerCount: 2
Fore
SplineSet
100 700 m 1,0,-1
 300 700 l 1,1,-1
 300 600 l 1,2,-1
 400 600 l 1,3,-1
 400 500 l 1,4,-1
 500 500 l 1,5,-1
 500 400 l 1,6,-1
 600 400 l 1,7,-1
 600 300 l 1,8,-1
 500 300 l 1,9,-1
 500 200 l 1,10,-1
 400 200 l 1,11,-1
 400 100 l 1,12,-1
 300 100 l 1,13,-1
 300 0 l 1,14,-1
 100 0 l 1,15,-1
 100 100 l 1,16,-1
 200 100 l 1,17,-1
 200 200 l 1,18,-1
 300 200 l 1,19,-1
 300 300 l 1,20,-1
 400 300 l 1,21,-1
 400 400 l 1,22,-1
 300 400 l 1,23,-1
 300 500 l 1,24,-1
 200 500 l 1,25,-1
 200 600 l 1,26,-1
 100 600 l 1,27,-1
 100 700 l 1,0,-1
EndSplineSet
EndChar

StartChar: less
Encoding: 60 60 267
Width: 800
GlyphClass: 1
Flags: W
LayerCount: 2
Fore
SplineSet
600 500 m 1,0,-1
 500 500 l 1,1,-1
 500 400 l 1,2,-1
 400 400 l 1,3,-1
 400 300 l 1,4,-1
 500 300 l 1,5,-1
 500 200 l 1,6,-1
 600 200 l 1,7,-1
 600 100 l 1,8,-1
 700 100 l 1,9,-1
 700 0 l 1,10,-1
 500 0 l 1,11,-1
 500 100 l 1,12,-1
 400 100 l 1,13,-1
 400 200 l 1,14,-1
 300 200 l 1,15,-1
 300 300 l 1,16,-1
 200 300 l 1,17,-1
 200 400 l 1,18,-1
 300 400 l 1,19,-1
 300 500 l 1,20,-1
 400 500 l 1,21,-1
 400 600 l 1,22,-1
 500 600 l 1,23,-1
 500 700 l 1,24,-1
 700 700 l 1,25,-1
 700 600 l 1,26,-1
 600 600 l 1,27,-1
 600 500 l 1,0,-1
EndSplineSet
EndChar

StartChar: greaterequal
Encoding: 8805 8805 268
Width: 800
GlyphClass: 1
Flags: W
LayerCount: 2
Fore
SplineSet
100 100 m 1,0,-1
 700 100 l 1,1,-1
 700 0 l 1,2,-1
 100 0 l 1,3,-1
 100 100 l 1,0,-1
200 300 m 1,4,-1
 300 300 l 1,5,-1
 300 400 l 1,6,-1
 400 400 l 1,7,-1
 400 500 l 1,8,-1
 300 500 l 1,9,-1
 300 600 l 1,10,-1
 200 600 l 1,11,-1
 200 700 l 1,12,-1
 400 700 l 1,13,-1
 400 600 l 1,14,-1
 500 600 l 1,15,-1
 500 500 l 1,16,-1
 600 500 l 1,17,-1
 600 400 l 1,18,-1
 500 400 l 1,19,-1
 500 300 l 1,20,-1
 400 300 l 1,21,-1
 400 200 l 1,22,-1
 200 200 l 1,23,-1
 200 300 l 1,4,-1
EndSplineSet
EndChar

StartChar: lessequal
Encoding: 8804 8804 269
Width: 800
GlyphClass: 1
Flags: W
LayerCount: 2
Fore
SplineSet
100 100 m 1,0,-1
 700 100 l 1,1,-1
 700 0 l 1,2,-1
 100 0 l 1,3,-1
 100 100 l 1,0,-1
200 500 m 1,4,-1
 300 500 l 1,5,-1
 300 600 l 1,6,-1
 400 600 l 1,7,-1
 400 700 l 1,8,-1
 600 700 l 1,9,-1
 600 600 l 1,10,-1
 500 600 l 1,11,-1
 500 500 l 1,12,-1
 400 500 l 1,13,-1
 400 400 l 1,14,-1
 500 400 l 1,15,-1
 500 300 l 1,16,-1
 600 300 l 1,17,-1
 600 200 l 1,18,-1
 400 200 l 1,19,-1
 400 300 l 1,20,-1
 300 300 l 1,21,-1
 300 400 l 1,22,-1
 200 400 l 1,23,-1
 200 500 l 1,4,-1
EndSplineSet
EndChar

StartChar: plusminus
Encoding: 177 177 270
Width: 800
GlyphClass: 1
Flags: W
LayerCount: 2
Fore
SplineSet
100 100 m 1,0,-1
 700 100 l 1,1,-1
 700 0 l 1,2,-1
 100 0 l 1,3,-1
 100 100 l 1,0,-1
100 500 m 1,4,-1
 300 500 l 1,5,-1
 300 700 l 1,6,-1
 500 700 l 1,7,-1
 500 500 l 1,8,-1
 700 500 l 1,9,-1
 700 400 l 1,10,-1
 500 400 l 1,11,-1
 500 200 l 1,12,-1
 300 200 l 1,13,-1
 300 400 l 1,14,-1
 100 400 l 1,15,-1
 100 500 l 1,4,-1
EndSplineSet
EndChar

StartChar: approxequal
Encoding: 8776 8776 271
Width: 800
GlyphClass: 1
Flags: W
LayerCount: 2
Fore
SplineSet
100 200 m 1,0,-1
 200 200 l 1,1,-1
 200 100 l 1,2,-1
 100 100 l 1,3,-1
 100 200 l 1,0,-1
100 500 m 1,4,-1
 200 500 l 1,5,-1
 200 400 l 1,6,-1
 100 400 l 1,7,-1
 100 500 l 1,4,-1
200 300 m 1,8,-1
 400 300 l 1,9,-1
 400 200 l 1,10,-1
 200 200 l 1,11,-1
 200 300 l 1,8,-1
200 600 m 1,12,-1
 400 600 l 1,13,-1
 400 500 l 1,14,-1
 200 500 l 1,15,-1
 200 600 l 1,12,-1
400 200 m 1,16,-1
 600 200 l 1,17,-1
 600 100 l 1,18,-1
 400 100 l 1,19,-1
 400 200 l 1,16,-1
400 500 m 1,20,-1
 600 500 l 1,21,-1
 600 400 l 1,22,-1
 400 400 l 1,23,-1
 400 500 l 1,20,-1
600 300 m 1,24,-1
 700 300 l 1,25,-1
 700 200 l 1,26,-1
 600 200 l 1,27,-1
 600 300 l 1,24,-1
600 600 m 1,28,-1
 700 600 l 1,29,-1
 700 500 l 1,30,-1
 600 500 l 1,31,-1
 600 600 l 1,28,-1
EndSplineSet
EndChar

StartChar: asciitilde
Encoding: 126 126 272
Width: 800
GlyphClass: 1
Flags: W
LayerCount: 2
Fore
SplineSet
100 500 m 1,0,-1
 100 600 l 1,1,-1
 300 600 l 1,2,-1
 300 500 l 1,3,-1
 400 500 l 1,4,-1
 400 400 l 1,5,-1
 600 400 l 1,6,-1
 600 500 l 1,7,-1
 700 500 l 1,8,-1
 700 300 l 1,9,-1
 600 300 l 1,10,-1
 600 200 l 1,11,-1
 400 200 l 1,12,-1
 400 300 l 1,13,-1
 300 300 l 1,14,-1
 300 400 l 1,15,-1
 100 400 l 1,16,-1
 100 300 l 1,17,-1
 0 300 l 1,18,-1
 0 500 l 1,19,-1
 100 500 l 1,0,-1
EndSplineSet
EndChar

StartChar: logicalnot
Encoding: 172 172 273
Width: 800
GlyphClass: 1
Flags: W
LayerCount: 2
Fore
SplineSet
400 300 m 1,0,-1
 100 300 l 1,1,-1
 100 400 l 1,2,-1
 600 400 l 1,3,-1
 600 0 l 1,4,-1
 400 0 l 1,5,-1
 400 300 l 1,0,-1
EndSplineSet
EndChar

StartChar: asciicircum
Encoding: 94 94 274
Width: 800
GlyphClass: 1
Flags: W
LayerCount: 2
Fore
SplineSet
600 300 m 1,0,-1
 500 300 l 1,1,-1
 500 400 l 1,2,-1
 400 400 l 1,3,-1
 400 300 l 1,4,-1
 300 300 l 1,5,-1
 300 200 l 1,6,-1
 100 200 l 1,7,-1
 100 300 l 1,8,-1
 200 300 l 1,9,-1
 200 400 l 1,10,-1
 300 400 l 1,11,-1
 300 500 l 1,12,-1
 400 500 l 1,13,-1
 400 600 l 1,14,-1
 500 600 l 1,15,-1
 500 500 l 1,16,-1
 600 500 l 1,17,-1
 600 400 l 1,18,-1
 700 400 l 1,19,-1
 700 300 l 1,20,-1
 800 300 l 1,21,-1
 800 200 l 1,22,-1
 600 200 l 1,23,-1
 600 300 l 1,0,-1
EndSplineSet
EndChar

StartChar: infinity
Encoding: 8734 8734 275
Width: 800
GlyphClass: 1
Flags: W
LayerCount: 2
Fore
SplineSet
100 600 m 1,0,-1
 300 600 l 1,1,-1
 300 500 l 1,2,-1
 400 500 l 1,3,-1
 400 400 l 1,4,-1
 500 400 l 1,5,-1
 500 200 l 1,6,-1
 700 200 l 1,7,-1
 700 400 l 1,8,-1
 500 400 l 1,9,-1
 500 600 l 1,10,-1
 700 600 l 1,11,-1
 700 500 l 1,12,-1
 800 500 l 1,13,-1
 800 100 l 1,14,-1
 700 100 l 1,15,-1
 700 0 l 1,16,-1
 500 0 l 1,17,-1
 500 100 l 1,18,-1
 400 100 l 1,19,-1
 400 200 l 1,20,-1
 300 200 l 1,21,-1
 300 400 l 1,22,-1
 100 400 l 1,23,-1
 100 200 l 1,24,-1
 300 200 l 1,25,-1
 300 0 l 1,26,-1
 100 0 l 1,27,-1
 100 100 l 1,28,-1
 0 100 l 1,29,-1
 0 500 l 1,30,-1
 100 500 l 1,31,-1
 100 600 l 1,0,-1
EndSplineSet
EndChar

StartChar: u2227
Encoding: 8743 8743 276
Width: 800
GlyphClass: 1
Flags: W
LayerCount: 2
Fore
SplineSet
0 300 m 1,0,-1
 100 300 l 1,1,-1
 100 400 l 1,2,-1
 200 400 l 1,3,-1
 200 500 l 1,4,-1
 300 500 l 1,5,-1
 300 600 l 1,6,-1
 400 600 l 1,7,-1
 400 500 l 1,8,-1
 500 500 l 1,9,-1
 500 400 l 1,10,-1
 600 400 l 1,11,-1
 600 300 l 1,12,-1
 700 300 l 1,13,-1
 700 100 l 1,14,-1
 600 100 l 1,15,-1
 600 200 l 1,16,-1
 500 200 l 1,17,-1
 500 300 l 1,18,-1
 400 300 l 1,19,-1
 400 400 l 1,20,-1
 300 400 l 1,21,-1
 300 300 l 1,22,-1
 200 300 l 1,23,-1
 200 200 l 1,24,-1
 100 200 l 1,25,-1
 100 100 l 1,26,-1
 0 100 l 1,27,-1
 0 300 l 1,0,-1
EndSplineSet
EndChar

StartChar: u2229
Encoding: 8745 8745 277
Width: 800
GlyphClass: 1
Flags: W
LayerCount: 2
Fore
SplineSet
200 700 m 1,0,-1
 600 700 l 1,1,-1
 600 600 l 1,2,-1
 700 600 l 1,3,-1
 700 0 l 1,4,-1
 500 0 l 1,5,-1
 500 600 l 1,6,-1
 300 600 l 1,7,-1
 300 0 l 1,8,-1
 100 0 l 1,9,-1
 100 600 l 1,10,-1
 200 600 l 1,11,-1
 200 700 l 1,0,-1
EndSplineSet
EndChar

StartChar: integral
Encoding: 8747 8747 278
Width: 800
GlyphClass: 1
Flags: W
LayerCount: 2
Fore
SplineSet
200 100 m 1,0,-1
 300 100 l 1,1,-1
 300 500 l 1,2,-1
 400 500 l 1,3,-1
 400 600 l 1,4,-1
 600 600 l 1,5,-1
 600 500 l 1,6,-1
 500 500 l 1,7,-1
 500 100 l 1,8,-1
 400 100 l 1,9,-1
 400 0 l 1,10,-1
 200 0 l 1,11,-1
 200 100 l 1,0,-1
EndSplineSet
EndChar

StartChar: product
Encoding: 8719 8719 279
Width: 800
GlyphClass: 1
Flags: W
LayerCount: 2
Fore
SplineSet
100 500 m 1,0,-1
 0 500 l 1,1,-1
 0 600 l 1,2,-1
 700 600 l 1,3,-1
 700 500 l 1,4,-1
 600 500 l 1,5,-1
 600 0 l 1,6,-1
 400 0 l 1,7,-1
 400 500 l 1,8,-1
 300 500 l 1,9,-1
 300 0 l 1,10,-1
 100 0 l 1,11,-1
 100 500 l 1,0,-1
EndSplineSet
EndChar

StartChar: summation
Encoding: 8721 8721 280
Width: 800
GlyphClass: 1
Flags: W
LayerCount: 2
Fore
SplineSet
200 200 m 1,0,-1
 300 200 l 1,1,-1
 300 300 l 1,2,-1
 400 300 l 1,3,-1
 400 400 l 1,4,-1
 300 400 l 1,5,-1
 300 500 l 1,6,-1
 200 500 l 1,7,-1
 200 700 l 1,8,-1
 600 700 l 1,9,-1
 600 600 l 1,10,-1
 400 600 l 1,11,-1
 400 500 l 1,12,-1
 500 500 l 1,13,-1
 500 400 l 1,14,-1
 600 400 l 1,15,-1
 600 300 l 1,16,-1
 500 300 l 1,17,-1
 500 200 l 1,18,-1
 400 200 l 1,19,-1
 400 100 l 1,20,-1
 600 100 l 1,21,-1
 600 0 l 1,22,-1
 200 0 l 1,23,-1
 200 200 l 1,0,-1
EndSplineSet
EndChar

StartChar: radical
Encoding: 8730 8730 281
Width: 800
GlyphClass: 1
Flags: W
LayerCount: 2
Fore
SplineSet
200 100 m 1,0,-1
 100 100 l 1,1,-1
 100 200 l 1,2,-1
 0 200 l 1,3,-1
 0 300 l 1,4,-1
 200 300 l 1,5,-1
 200 200 l 1,6,-1
 300 200 l 1,7,-1
 300 400 l 1,8,-1
 400 400 l 1,9,-1
 400 500 l 1,10,-1
 800 500 l 1,11,-1
 800 400 l 1,12,-1
 500 400 l 1,13,-1
 500 200 l 1,14,-1
 400 200 l 1,15,-1
 400 0 l 1,16,-1
 200 0 l 1,17,-1
 200 100 l 1,0,-1
EndSplineSet
EndChar

StartChar: uni00B5
Encoding: 181 181 282
Width: 800
GlyphClass: 1
Flags: W
LayerCount: 2
Fore
SplineSet
100 500 m 1,0,-1
 300 500 l 1,1,-1
 300 100 l 1,2,-1
 400 100 l 1,3,-1
 400 500 l 1,4,-1
 600 500 l 1,5,-1
 600 100 l 1,6,-1
 700 100 l 1,7,-1
 700 0 l 1,8,-1
 300 0 l 1,9,-1
 300 -100 l 1,10,-1
 100 -100 l 1,11,-1
 100 500 l 1,0,-1
EndSplineSet
EndChar

StartChar: partialdiff
Encoding: 8706 8706 283
Width: 800
GlyphClass: 1
Flags: W
LayerCount: 2
Fore
SplineSet
200 100 m 1,0,-1
 100 100 l 1,1,-1
 100 300 l 1,2,-1
 200 300 l 1,3,-1
 200 400 l 1,4,-1
 400 400 l 1,5,-1
 400 500 l 1,6,-1
 200 500 l 1,7,-1
 200 600 l 1,8,-1
 500 600 l 1,9,-1
 500 500 l 1,10,-1
 600 500 l 1,11,-1
 600 300 l 1,12,-1
 700 300 l 1,13,-1
 700 100 l 1,14,-1
 600 100 l 1,15,-1
 600 0 l 1,16,-1
 200 0 l 1,17,-1
 200 100 l 1,0,-1
500 100 m 1,18,-1
 500 300 l 1,19,-1
 300 300 l 1,20,-1
 300 100 l 1,21,-1
 500 100 l 1,18,-1
EndSplineSet
EndChar

StartChar: percent
Encoding: 37 37 284
Width: 800
GlyphClass: 1
Flags: W
LayerCount: 2
Fore
SplineSet
300 600 m 1,0,-1
 300 400 l 1,1,-1
 100 400 l 1,2,-1
 100 600 l 1,3,-1
 300 600 l 1,0,-1
100 200 m 1,4,-1
 200 200 l 1,5,-1
 200 300 l 1,6,-1
 300 300 l 1,7,-1
 300 400 l 1,8,-1
 400 400 l 1,9,-1
 400 500 l 1,10,-1
 500 500 l 1,11,-1
 500 600 l 1,12,-1
 700 600 l 1,13,-1
 700 500 l 1,14,-1
 600 500 l 1,15,-1
 600 400 l 1,16,-1
 500 400 l 1,17,-1
 500 300 l 1,18,-1
 400 300 l 1,19,-1
 400 200 l 1,20,-1
 300 200 l 1,21,-1
 300 100 l 1,22,-1
 200 100 l 1,23,-1
 200 0 l 1,24,-1
 100 0 l 1,25,-1
 100 200 l 1,4,-1
500 200 m 1,26,-1
 700 200 l 1,27,-1
 700 0 l 1,28,-1
 500 0 l 1,29,-1
 500 200 l 1,26,-1
EndSplineSet
EndChar

StartChar: perthousand
Encoding: 8240 8240 285
Width: 800
GlyphClass: 1
Flags: W
LayerCount: 2
Fore
SplineSet
200 600 m 1,0,-1
 200 400 l 1,1,-1
 0 400 l 1,2,-1
 0 600 l 1,3,-1
 200 600 l 1,0,-1
0 200 m 1,4,-1
 100 200 l 1,5,-1
 100 300 l 1,6,-1
 200 300 l 1,7,-1
 200 400 l 1,8,-1
 300 400 l 1,9,-1
 300 500 l 1,10,-1
 400 500 l 1,11,-1
 400 600 l 1,12,-1
 600 600 l 1,13,-1
 600 500 l 1,14,-1
 500 500 l 1,15,-1
 500 400 l 1,16,-1
 400 400 l 1,17,-1
 400 300 l 1,18,-1
 300 300 l 1,19,-1
 300 200 l 1,20,-1
 200 200 l 1,21,-1
 200 100 l 1,22,-1
 100 100 l 1,23,-1
 100 0 l 1,24,-1
 0 0 l 1,25,-1
 0 200 l 1,4,-1
300 200 m 1,26,-1
 500 200 l 1,27,-1
 500 0 l 1,28,-1
 300 0 l 1,29,-1
 300 200 l 1,26,-1
600 200 m 1,30,-1
 800 200 l 1,31,-1
 800 0 l 1,32,-1
 600 0 l 1,33,-1
 600 200 l 1,30,-1
EndSplineSet
EndChar

StartChar: u2208
Encoding: 8712 8712 286
Width: 800
GlyphClass: 1
Flags: W
LayerCount: 2
Fore
SplineSet
400 500 m 1,0,-1
 300 500 l 1,1,-1
 300 400 l 1,2,-1
 700 400 l 1,3,-1
 700 300 l 1,4,-1
 300 300 l 1,5,-1
 300 200 l 1,6,-1
 400 200 l 1,7,-1
 400 100 l 1,8,-1
 700 100 l 1,9,-1
 700 0 l 1,10,-1
 200 0 l 1,11,-1
 200 100 l 1,12,-1
 100 100 l 1,13,-1
 100 600 l 1,14,-1
 200 600 l 1,15,-1
 200 700 l 1,16,-1
 700 700 l 1,17,-1
 700 600 l 1,18,-1
 400 600 l 1,19,-1
 400 500 l 1,0,-1
EndSplineSet
EndChar

StartChar: uni222E
Encoding: 8750 8750 287
Width: 800
GlyphClass: 1
Flags: W
LayerCount: 2
Fore
SplineSet
100 0 m 1,0,-1
 200 0 l 1,1,-1
 200 200 l 1,2,-1
 300 200 l 1,3,-1
 300 400 l 1,4,-1
 200 400 l 1,5,-1
 200 500 l 1,6,-1
 300 500 l 1,7,-1
 300 600 l 1,8,-1
 400 600 l 1,9,-1
 400 700 l 1,10,-1
 600 700 l 1,11,-1
 600 600 l 1,12,-1
 500 600 l 1,13,-1
 500 400 l 1,14,-1
 400 400 l 1,15,-1
 400 200 l 1,16,-1
 500 200 l 1,17,-1
 500 100 l 1,18,-1
 400 100 l 1,19,-1
 400 0 l 1,20,-1
 300 0 l 1,21,-1
 300 -100 l 1,22,-1
 100 -100 l 1,23,-1
 100 0 l 1,0,-1
100 400 m 1,24,-1
 200 400 l 1,25,-1
 200 200 l 1,26,-1
 100 200 l 1,27,-1
 100 400 l 1,24,-1
500 400 m 1,28,-1
 600 400 l 1,29,-1
 600 200 l 1,30,-1
 500 200 l 1,31,-1
 500 400 l 1,28,-1
EndSplineSet
EndChar

StartChar: u2261
Encoding: 8801 8801 288
Width: 800
GlyphClass: 1
Flags: W
LayerCount: 2
Fore
SplineSet
100 600 m 1,0,-1
 700 600 l 1,1,-1
 700 500 l 1,2,-1
 100 500 l 1,3,-1
 100 600 l 1,0,-1
100 200 m 1,4,-1
 700 200 l 1,5,-1
 700 100 l 1,6,-1
 100 100 l 1,7,-1
 100 200 l 1,4,-1
100 400 m 1,8,-1
 700 400 l 1,9,-1
 700 300 l 1,10,-1
 100 300 l 1,11,-1
 100 400 l 1,8,-1
EndSplineSet
EndChar

StartChar: revlogicalnot
Encoding: 8976 8976 289
Width: 800
GlyphClass: 1
Flags: W
LayerCount: 2
Fore
SplineSet
200 400 m 1,0,-1
 700 400 l 1,1,-1
 700 300 l 1,2,-1
 400 300 l 1,3,-1
 400 0 l 1,4,-1
 200 0 l 1,5,-1
 200 400 l 1,0,-1
EndSplineSet
EndChar

StartChar: u2320
Encoding: 8992 8992 290
Width: 800
GlyphClass: 1
Flags: W
LayerCount: 2
Fore
SplineSet
500 500 m 1,0,-1
 500 -100 l 1,1,-1
 300 -100 l 1,2,-1
 300 500 l 1,3,-1
 400 500 l 1,4,-1
 400 600 l 1,5,-1
 700 600 l 1,6,-1
 700 500 l 1,7,-1
 800 500 l 1,8,-1
 800 300 l 1,9,-1
 600 300 l 1,10,-1
 600 500 l 1,11,-1
 500 500 l 1,0,-1
EndSplineSet
EndChar

StartChar: u2321
Encoding: 8993 8993 291
Width: 800
GlyphClass: 1
Flags: W
LayerCount: 2
Fore
SplineSet
500 700 m 1,0,-1
 500 100 l 1,1,-1
 400 100 l 1,2,-1
 400 0 l 1,3,-1
 100 0 l 1,4,-1
 100 100 l 1,5,-1
 0 100 l 1,6,-1
 0 300 l 1,7,-1
 200 300 l 1,8,-1
 200 100 l 1,9,-1
 300 100 l 1,10,-1
 300 700 l 1,11,-1
 500 700 l 1,0,-1
EndSplineSet
EndChar

StartChar: arrowup
Encoding: 8593 8593 292
Width: 800
GlyphClass: 1
Flags: W
LayerCount: 2
Fore
SplineSet
300 300 m 1,0,-1
 100 300 l 1,1,-1
 100 400 l 1,2,-1
 200 400 l 1,3,-1
 200 500 l 1,4,-1
 300 500 l 1,5,-1
 300 600 l 1,6,-1
 500 600 l 1,7,-1
 500 500 l 1,8,-1
 600 500 l 1,9,-1
 600 400 l 1,10,-1
 700 400 l 1,11,-1
 700 300 l 1,12,-1
 500 300 l 1,13,-1
 500 0 l 1,14,-1
 300 0 l 1,15,-1
 300 300 l 1,0,-1
EndSplineSet
EndChar

StartChar: arrowright
Encoding: 8594 8594 293
Width: 800
GlyphClass: 1
Flags: W
LayerCount: 2
Fore
SplineSet
100 400 m 1,0,-1
 400 400 l 1,1,-1
 400 500 l 1,2,-1
 300 500 l 1,3,-1
 300 600 l 1,4,-1
 500 600 l 1,5,-1
 500 500 l 1,6,-1
 600 500 l 1,7,-1
 600 400 l 1,8,-1
 700 400 l 1,9,-1
 700 300 l 1,10,-1
 600 300 l 1,11,-1
 600 200 l 1,12,-1
 500 200 l 1,13,-1
 500 100 l 1,14,-1
 300 100 l 1,15,-1
 300 200 l 1,16,-1
 400 200 l 1,17,-1
 400 300 l 1,18,-1
 100 300 l 1,19,-1
 100 400 l 1,0,-1
EndSplineSet
EndChar

StartChar: arrowdown
Encoding: 8595 8595 294
Width: 800
GlyphClass: 1
Flags: W
LayerCount: 2
Fore
SplineSet
500 600 m 1,0,-1
 500 300 l 1,1,-1
 700 300 l 1,2,-1
 700 200 l 1,3,-1
 600 200 l 1,4,-1
 600 100 l 1,5,-1
 500 100 l 1,6,-1
 500 0 l 1,7,-1
 300 0 l 1,8,-1
 300 100 l 1,9,-1
 200 100 l 1,10,-1
 200 200 l 1,11,-1
 100 200 l 1,12,-1
 100 300 l 1,13,-1
 300 300 l 1,14,-1
 300 600 l 1,15,-1
 500 600 l 1,0,-1
EndSplineSet
EndChar

StartChar: arrowleft
Encoding: 8592 8592 295
Width: 800
GlyphClass: 1
Flags: W
LayerCount: 2
Fore
SplineSet
100 400 m 1,0,-1
 200 400 l 1,1,-1
 200 500 l 1,2,-1
 300 500 l 1,3,-1
 300 600 l 1,4,-1
 500 600 l 1,5,-1
 500 500 l 1,6,-1
 400 500 l 1,7,-1
 400 400 l 1,8,-1
 700 400 l 1,9,-1
 700 300 l 1,10,-1
 400 300 l 1,11,-1
 400 200 l 1,12,-1
 500 200 l 1,13,-1
 500 100 l 1,14,-1
 300 100 l 1,15,-1
 300 200 l 1,16,-1
 200 200 l 1,17,-1
 200 300 l 1,18,-1
 100 300 l 1,19,-1
 100 400 l 1,0,-1
EndSplineSet
EndChar

StartChar: uni21E7
Encoding: 8679 8679 296
AltUni2: 00e001.ffffffff.0 00e001.ffffffff.0
Width: 800
GlyphClass: 1
Flags: W
LayerCount: 2
Fore
SplineSet
200 200 m 1,0,-1
 0 200 l 1,1,-1
 0 400 l 1,2,-1
 100 400 l 1,3,-1
 100 500 l 1,4,-1
 200 500 l 1,5,-1
 200 600 l 1,6,-1
 300 600 l 1,7,-1
 300 700 l 1,8,-1
 500 700 l 1,9,-1
 500 600 l 1,10,-1
 600 600 l 1,11,-1
 600 500 l 1,12,-1
 700 500 l 1,13,-1
 700 400 l 1,14,-1
 800 400 l 1,15,-1
 800 200 l 1,16,-1
 600 200 l 1,17,-1
 600 -100 l 1,18,-1
 200 -100 l 1,19,-1
 200 200 l 1,0,-1
300 300 m 1,20,-1
 300 0 l 1,21,-1
 500 0 l 1,22,-1
 500 300 l 1,23,-1
 600 300 l 1,24,-1
 600 400 l 1,25,-1
 500 400 l 1,26,-1
 500 500 l 1,27,-1
 300 500 l 1,28,-1
 300 400 l 1,29,-1
 200 400 l 1,30,-1
 200 300 l 1,31,-1
 300 300 l 1,20,-1
EndSplineSet
EndChar

StartChar: uni21E8
Encoding: 8680 8680 297
AltUni2: 00e002.ffffffff.0 00e002.ffffffff.0
Width: 800
GlyphClass: 1
Flags: W
LayerCount: 2
Fore
SplineSet
300 500 m 1,0,-1
 300 700 l 1,1,-1
 500 700 l 1,2,-1
 500 600 l 1,3,-1
 600 600 l 1,4,-1
 600 500 l 1,5,-1
 700 500 l 1,6,-1
 700 400 l 1,7,-1
 800 400 l 1,8,-1
 800 200 l 1,9,-1
 700 200 l 1,10,-1
 700 100 l 1,11,-1
 600 100 l 1,12,-1
 600 0 l 1,13,-1
 500 0 l 1,14,-1
 500 -100 l 1,15,-1
 300 -100 l 1,16,-1
 300 100 l 1,17,-1
 0 100 l 1,18,-1
 0 500 l 1,19,-1
 300 500 l 1,0,-1
400 200 m 1,20,-1
 400 100 l 1,21,-1
 500 100 l 1,22,-1
 500 200 l 1,23,-1
 600 200 l 1,24,-1
 600 400 l 1,25,-1
 500 400 l 1,26,-1
 500 500 l 1,27,-1
 400 500 l 1,28,-1
 400 400 l 1,29,-1
 100 400 l 1,30,-1
 100 200 l 1,31,-1
 400 200 l 1,20,-1
EndSplineSet
EndChar

StartChar: uni21E9
Encoding: 8681 8681 298
AltUni2: 00e003.ffffffff.0 00e003.ffffffff.0
Width: 800
GlyphClass: 1
Flags: W
LayerCount: 2
Fore
SplineSet
200 200 m 1,0,-1
 300 200 l 1,1,-1
 300 100 l 1,2,-1
 500 100 l 1,3,-1
 500 200 l 1,4,-1
 600 200 l 1,5,-1
 600 300 l 1,6,-1
 500 300 l 1,7,-1
 500 600 l 1,8,-1
 300 600 l 1,9,-1
 300 300 l 1,10,-1
 200 300 l 1,11,-1
 200 200 l 1,0,-1
0 400 m 1,12,-1
 200 400 l 1,13,-1
 200 700 l 1,14,-1
 600 700 l 1,15,-1
 600 400 l 1,16,-1
 800 400 l 1,17,-1
 800 200 l 1,18,-1
 700 200 l 1,19,-1
 700 100 l 1,20,-1
 600 100 l 1,21,-1
 600 0 l 1,22,-1
 500 0 l 1,23,-1
 500 -100 l 1,24,-1
 300 -100 l 1,25,-1
 300 0 l 1,26,-1
 200 0 l 1,27,-1
 200 100 l 1,28,-1
 100 100 l 1,29,-1
 100 200 l 1,30,-1
 0 200 l 1,31,-1
 0 400 l 1,12,-1
EndSplineSet
EndChar

StartChar: uni21E6
Encoding: 8678 8678 299
AltUni2: 00e004.ffffffff.0 00e004.ffffffff.0
Width: 800
GlyphClass: 1
Flags: W
LayerCount: 2
Fore
SplineSet
100 400 m 1,0,-1
 100 500 l 1,1,-1
 200 500 l 1,2,-1
 200 600 l 1,3,-1
 300 600 l 1,4,-1
 300 700 l 1,5,-1
 500 700 l 1,6,-1
 500 500 l 1,7,-1
 800 500 l 1,8,-1
 800 100 l 1,9,-1
 500 100 l 1,10,-1
 500 -100 l 1,11,-1
 300 -100 l 1,12,-1
 300 0 l 1,13,-1
 200 0 l 1,14,-1
 200 100 l 1,15,-1
 100 100 l 1,16,-1
 100 200 l 1,17,-1
 0 200 l 1,18,-1
 0 400 l 1,19,-1
 100 400 l 1,0,-1
300 200 m 1,20,-1
 300 100 l 1,21,-1
 400 100 l 1,22,-1
 400 200 l 1,23,-1
 700 200 l 1,24,-1
 700 400 l 1,25,-1
 400 400 l 1,26,-1
 400 500 l 1,27,-1
 300 500 l 1,28,-1
 300 400 l 1,29,-1
 200 400 l 1,30,-1
 200 200 l 1,31,-1
 300 200 l 1,20,-1
EndSplineSet
EndChar

StartChar: uni2581
Encoding: 9601 9601 300
Width: 800
VWidth: 0
GlyphClass: 1
Flags: W
LayerCount: 2
Fore
SplineSet
0 100 m 1,0,-1
 800 100 l 1,1,-1
 800 -100 l 1,2,-1
 0 -100 l 1,3,-1
 0 100 l 1,0,-1
EndSplineSet
EndChar

StartChar: dnblock
Encoding: 9604 9604 301
Width: 800
VWidth: 0
GlyphClass: 1
Flags: W
LayerCount: 2
Fore
SplineSet
0 300 m 1,0,-1
 800 300 l 1,1,-1
 800 -100 l 1,2,-1
 0 -100 l 1,3,-1
 0 300 l 1,0,-1
EndSplineSet
EndChar

StartChar: block
Encoding: 9608 9608 302
Width: 800
VWidth: 0
GlyphClass: 1
Flags: W
LayerCount: 2
Fore
SplineSet
0 700 m 1,0,-1
 800 700 l 1,1,-1
 800 -100 l 1,2,-1
 0 -100 l 1,3,-1
 0 700 l 1,0,-1
EndSplineSet
EndChar

StartChar: upblock
Encoding: 9600 9600 303
Width: 800
VWidth: 0
GlyphClass: 1
Flags: W
LayerCount: 2
Fore
SplineSet
0 700 m 1,0,-1
 800 700 l 1,1,-1
 800 300 l 1,2,-1
 0 300 l 1,3,-1
 0 700 l 1,0,-1
EndSplineSet
EndChar

StartChar: uni2594
Encoding: 9620 9620 304
Width: 800
VWidth: 0
GlyphClass: 1
Flags: W
LayerCount: 2
Fore
SplineSet
800 700 m 1,0,-1
 800 500 l 1,1,-1
 0 500 l 1,2,-1
 0 700 l 1,3,-1
 800 700 l 1,0,-1
EndSplineSet
EndChar

StartChar: uni258F
Encoding: 9615 9615 305
Width: 800
VWidth: 0
GlyphClass: 1
Flags: W
LayerCount: 2
Fore
SplineSet
0 700 m 1,0,-1
 200 700 l 1,1,-1
 200 -100 l 1,2,-1
 0 -100 l 1,3,-1
 0 700 l 1,0,-1
EndSplineSet
EndChar

StartChar: lfblock
Encoding: 9612 9612 306
Width: 800
VWidth: 0
GlyphClass: 1
Flags: W
LayerCount: 2
Fore
SplineSet
0 700 m 1,0,-1
 400 700 l 1,1,-1
 400 -100 l 1,2,-1
 0 -100 l 1,3,-1
 0 700 l 1,0,-1
EndSplineSet
EndChar

StartChar: rtblock
Encoding: 9616 9616 307
Width: 800
VWidth: 0
GlyphClass: 1
Flags: W
LayerCount: 2
Fore
SplineSet
400 700 m 1,0,-1
 800 700 l 1,1,-1
 800 -100 l 1,2,-1
 400 -100 l 1,3,-1
 400 700 l 1,0,-1
EndSplineSet
EndChar

StartChar: uni2595
Encoding: 9621 9621 308
Width: 800
VWidth: 0
GlyphClass: 1
Flags: W
LayerCount: 2
Fore
SplineSet
600 700 m 1,0,-1
 800 700 l 1,1,-1
 800 -100 l 1,2,-1
 600 -100 l 1,3,-1
 600 700 l 1,0,-1
EndSplineSet
EndChar

StartChar: uni2596
Encoding: 9622 9622 309
Width: 800
VWidth: 0
GlyphClass: 1
Flags: W
LayerCount: 2
Fore
SplineSet
0 300 m 1,0,-1
 400 300 l 1,1,-1
 400 -100 l 1,2,-1
 0 -100 l 1,3,-1
 0 300 l 1,0,-1
EndSplineSet
EndChar

StartChar: uni2597
Encoding: 9623 9623 310
Width: 800
VWidth: 0
GlyphClass: 1
Flags: W
LayerCount: 2
Fore
SplineSet
400 300 m 1,0,-1
 800 300 l 1,1,-1
 800 -100 l 1,2,-1
 400 -100 l 1,3,-1
 400 300 l 1,0,-1
EndSplineSet
EndChar

StartChar: uni2598
Encoding: 9624 9624 311
Width: 800
VWidth: 0
GlyphClass: 1
Flags: W
LayerCount: 2
Fore
SplineSet
400 700 m 1,0,-1
 400 300 l 1,1,-1
 0 300 l 1,2,-1
 0 700 l 1,3,-1
 400 700 l 1,0,-1
EndSplineSet
EndChar

StartChar: uni2599
Encoding: 9625 9625 312
Width: 800
VWidth: 0
GlyphClass: 1
Flags: W
LayerCount: 2
Fore
SplineSet
0 700 m 1,0,-1
 400 700 l 1,1,-1
 400 300 l 1,2,-1
 800 300 l 1,3,-1
 800 -100 l 1,4,-1
 0 -100 l 1,5,-1
 0 700 l 1,0,-1
EndSplineSet
EndChar

StartChar: uni259A
Encoding: 9626 9626 313
Width: 800
VWidth: 0
GlyphClass: 1
Flags: W
LayerCount: 2
Fore
SplineSet
400 300 m 1,0,-1
 800 300 l 1,1,-1
 800 -100 l 1,2,-1
 400 -100 l 1,3,-1
 400 300 l 1,0,-1
0 700 m 1,4,-1
 400 700 l 1,5,-1
 400 300 l 1,6,-1
 0 300 l 1,7,-1
 0 700 l 1,4,-1
EndSplineSet
EndChar

StartChar: uni259B
Encoding: 9627 9627 314
Width: 800
VWidth: 0
GlyphClass: 1
Flags: W
LayerCount: 2
Fore
SplineSet
0 700 m 1,0,-1
 800 700 l 1,1,-1
 800 300 l 1,2,-1
 400 300 l 1,3,-1
 400 -100 l 1,4,-1
 0 -100 l 1,5,-1
 0 700 l 1,0,-1
EndSplineSet
EndChar

StartChar: uni259C
Encoding: 9628 9628 315
Width: 800
VWidth: 0
GlyphClass: 1
Flags: W
LayerCount: 2
Fore
SplineSet
0 700 m 1,0,-1
 800 700 l 1,1,-1
 800 -100 l 1,2,-1
 400 -100 l 1,3,-1
 400 300 l 1,4,-1
 0 300 l 1,5,-1
 0 700 l 1,0,-1
EndSplineSet
EndChar

StartChar: uni259D
Encoding: 9629 9629 316
Width: 800
VWidth: 0
GlyphClass: 1
Flags: W
LayerCount: 2
Fore
SplineSet
800 700 m 1,0,-1
 800 300 l 1,1,-1
 400 300 l 1,2,-1
 400 700 l 1,3,-1
 800 700 l 1,0,-1
EndSplineSet
EndChar

StartChar: uni259E
Encoding: 9630 9630 317
Width: 800
VWidth: 0
GlyphClass: 1
Flags: W
LayerCount: 2
Fore
SplineSet
400 300 m 1,0,-1
 400 -100 l 1,1,-1
 0 -100 l 1,2,-1
 0 300 l 1,3,-1
 400 300 l 1,0,-1
400 700 m 1,4,-1
 800 700 l 1,5,-1
 800 300 l 1,6,-1
 400 300 l 1,7,-1
 400 700 l 1,4,-1
EndSplineSet
EndChar

StartChar: uni259F
Encoding: 9631 9631 318
Width: 800
VWidth: 0
GlyphClass: 1
Flags: W
LayerCount: 2
Fore
SplineSet
800 700 m 1,0,-1
 800 -100 l 1,1,-1
 0 -100 l 1,2,-1
 0 300 l 1,3,-1
 400 300 l 1,4,-1
 400 700 l 1,5,-1
 800 700 l 1,0,-1
EndSplineSet
EndChar

StartChar: shade
Encoding: 9618 9618 319
Width: 800
VWidth: 0
GlyphClass: 1
Flags: W
LayerCount: 2
Fore
SplineSet
200 700 m 1,0,-1
 200 500 l 1,1,-1
 0 500 l 1,2,-1
 0 700 l 1,3,-1
 200 700 l 1,0,-1
0 300 m 1,4,-1
 200 300 l 1,5,-1
 200 100 l 1,6,-1
 0 100 l 1,7,-1
 0 300 l 1,4,-1
200 100 m 1,8,-1
 400 100 l 1,9,-1
 400 -100 l 1,10,-1
 200 -100 l 1,11,-1
 200 100 l 1,8,-1
200 500 m 1,12,-1
 400 500 l 1,13,-1
 400 300 l 1,14,-1
 200 300 l 1,15,-1
 200 500 l 1,12,-1
400 300 m 1,16,-1
 600 300 l 1,17,-1
 600 100 l 1,18,-1
 400 100 l 1,19,-1
 400 300 l 1,16,-1
400 700 m 1,20,-1
 600 700 l 1,21,-1
 600 500 l 1,22,-1
 400 500 l 1,23,-1
 400 700 l 1,20,-1
600 100 m 1,24,-1
 800 100 l 1,25,-1
 800 -100 l 1,26,-1
 600 -100 l 1,27,-1
 600 100 l 1,24,-1
600 500 m 1,28,-1
 800 500 l 1,29,-1
 800 300 l 1,30,-1
 600 300 l 1,31,-1
 600 500 l 1,28,-1
EndSplineSet
EndChar

StartChar: uni25CF
Encoding: 9679 9679 320
Width: 800
VWidth: 0
GlyphClass: 1
Flags: W
LayerCount: 2
Fore
SplineSet
100 400 m 1,0,-1
 100 500 l 1,1,-1
 200 500 l 1,2,-1
 200 600 l 1,3,-1
 600 600 l 1,4,-1
 600 500 l 1,5,-1
 700 500 l 1,6,-1
 700 400 l 1,7,-1
 800 400 l 1,8,-1
 800 200 l 1,9,-1
 700 200 l 1,10,-1
 700 100 l 1,11,-1
 600 100 l 1,12,-1
 600 0 l 1,13,-1
 200 0 l 1,14,-1
 200 100 l 1,15,-1
 100 100 l 1,16,-1
 100 200 l 1,17,-1
 0 200 l 1,18,-1
 0 400 l 1,19,-1
 100 400 l 1,0,-1
EndSplineSet
EndChar

StartChar: circle
Encoding: 9675 9675 321
Width: 800
VWidth: 0
GlyphClass: 1
Flags: W
LayerCount: 2
Fore
SplineSet
100 400 m 1,0,-1
 100 500 l 1,1,-1
 200 500 l 1,2,-1
 200 600 l 1,3,-1
 600 600 l 1,4,-1
 600 500 l 1,5,-1
 700 500 l 1,6,-1
 700 400 l 1,7,-1
 800 400 l 1,8,-1
 800 200 l 1,9,-1
 700 200 l 1,10,-1
 700 100 l 1,11,-1
 600 100 l 1,12,-1
 600 0 l 1,13,-1
 200 0 l 1,14,-1
 200 100 l 1,15,-1
 100 100 l 1,16,-1
 100 200 l 1,17,-1
 0 200 l 1,18,-1
 0 400 l 1,19,-1
 100 400 l 1,0,-1
300 200 m 1,20,-1
 300 100 l 1,21,-1
 500 100 l 1,22,-1
 500 200 l 1,23,-1
 600 200 l 1,24,-1
 600 400 l 1,25,-1
 500 400 l 1,26,-1
 500 500 l 1,27,-1
 300 500 l 1,28,-1
 300 400 l 1,29,-1
 200 400 l 1,30,-1
 200 200 l 1,31,-1
 300 200 l 1,20,-1
EndSplineSet
EndChar

StartChar: lozenge
Encoding: 9674 9674 322
Width: 800
GlyphClass: 1
Flags: W
LayerCount: 2
Fore
SplineSet
300 100 m 1,0,-1
 200 100 l 1,1,-1
 200 200 l 1,2,-1
 100 200 l 1,3,-1
 100 400 l 1,4,-1
 200 400 l 1,5,-1
 200 500 l 1,6,-1
 300 500 l 1,7,-1
 300 600 l 1,8,-1
 500 600 l 1,9,-1
 500 500 l 1,10,-1
 600 500 l 1,11,-1
 600 400 l 1,12,-1
 700 400 l 1,13,-1
 700 200 l 1,14,-1
 600 200 l 1,15,-1
 600 100 l 1,16,-1
 500 100 l 1,17,-1
 500 0 l 1,18,-1
 300 0 l 1,19,-1
 300 100 l 1,0,-1
500 200 m 1,20,-1
 500 400 l 1,21,-1
 300 400 l 1,22,-1
 300 200 l 1,23,-1
 500 200 l 1,20,-1
EndSplineSet
EndChar

StartChar: uni25B6
Encoding: 9654 9654 323
Width: 800
VWidth: 0
GlyphClass: 1
Flags: W
LayerCount: 2
Fore
SplineSet
300 700 m 1,0,-1
 400 700 l 1,1,-1
 400 600 l 1,2,-1
 500 600 l 1,3,-1
 500 500 l 1,4,-1
 600 500 l 1,5,-1
 600 400 l 1,6,-1
 700 400 l 1,7,-1
 700 300 l 1,8,-1
 600 300 l 1,9,-1
 600 200 l 1,10,-1
 500 200 l 1,11,-1
 500 100 l 1,12,-1
 400 100 l 1,13,-1
 400 0 l 1,14,-1
 300 0 l 1,15,-1
 300 700 l 1,0,-1
EndSplineSet
EndChar

StartChar: uni25C0
Encoding: 9664 9664 324
Width: 800
VWidth: 0
GlyphClass: 1
Flags: W
LayerCount: 2
Fore
SplineSet
400 700 m 1,0,-1
 500 700 l 1,1,-1
 500 0 l 1,2,-1
 400 0 l 1,3,-1
 400 100 l 1,4,-1
 300 100 l 1,5,-1
 300 200 l 1,6,-1
 200 200 l 1,7,-1
 200 300 l 1,8,-1
 100 300 l 1,9,-1
 100 400 l 1,10,-1
 200 400 l 1,11,-1
 200 500 l 1,12,-1
 300 500 l 1,13,-1
 300 600 l 1,14,-1
 400 600 l 1,15,-1
 400 700 l 1,0,-1
EndSplineSet
EndChar

StartChar: uni25E5
Encoding: 9701 9701 325
Width: 800
VWidth: 0
GlyphClass: 1
Flags: W
LayerCount: 2
Fore
SplineSet
0 700 m 1,0,-1
 800 700 l 1,1,-1
 800 -100 l 1,2,-1
 700 -100 l 1,3,-1
 700 0 l 1,4,-1
 600 0 l 1,5,-1
 600 100 l 1,6,-1
 500 100 l 1,7,-1
 500 200 l 1,8,-1
 400 200 l 1,9,-1
 400 300 l 1,10,-1
 300 300 l 1,11,-1
 300 400 l 1,12,-1
 200 400 l 1,13,-1
 200 500 l 1,14,-1
 100 500 l 1,15,-1
 100 600 l 1,16,-1
 0 600 l 1,17,-1
 0 700 l 1,0,-1
EndSplineSet
EndChar

StartChar: uni25E2
Encoding: 9698 9698 326
Width: 800
VWidth: 0
GlyphClass: 1
Flags: W
LayerCount: 2
Fore
SplineSet
700 700 m 1,0,-1
 800 700 l 1,1,-1
 800 -100 l 1,2,-1
 0 -100 l 1,3,-1
 0 0 l 1,4,-1
 100 0 l 1,5,-1
 100 100 l 1,6,-1
 200 100 l 1,7,-1
 200 200 l 1,8,-1
 300 200 l 1,9,-1
 300 300 l 1,10,-1
 400 300 l 1,11,-1
 400 400 l 1,12,-1
 500 400 l 1,13,-1
 500 500 l 1,14,-1
 600 500 l 1,15,-1
 600 600 l 1,16,-1
 700 600 l 1,17,-1
 700 700 l 1,0,-1
EndSplineSet
EndChar

StartChar: uni25E3
Encoding: 9699 9699 327
Width: 800
VWidth: 0
GlyphClass: 1
Flags: W
LayerCount: 2
Fore
SplineSet
100 700 m 1,0,-1
 100 600 l 1,1,-1
 200 600 l 1,2,-1
 200 500 l 1,3,-1
 300 500 l 1,4,-1
 300 400 l 1,5,-1
 400 400 l 1,6,-1
 400 300 l 1,7,-1
 500 300 l 1,8,-1
 500 200 l 1,9,-1
 600 200 l 1,10,-1
 600 100 l 1,11,-1
 700 100 l 1,12,-1
 700 0 l 1,13,-1
 800 0 l 1,14,-1
 800 -100 l 1,15,-1
 0 -100 l 1,16,-1
 0 700 l 1,17,-1
 100 700 l 1,0,-1
EndSplineSet
EndChar

StartChar: uni25E4
Encoding: 9700 9700 328
Width: 800
VWidth: 0
GlyphClass: 1
Flags: W
LayerCount: 2
Fore
SplineSet
0 700 m 1,0,-1
 800 700 l 1,1,-1
 800 600 l 1,2,-1
 700 600 l 1,3,-1
 700 500 l 1,4,-1
 600 500 l 1,5,-1
 600 400 l 1,6,-1
 500 400 l 1,7,-1
 500 300 l 1,8,-1
 400 300 l 1,9,-1
 400 200 l 1,10,-1
 300 200 l 1,11,-1
 300 100 l 1,12,-1
 200 100 l 1,13,-1
 200 0 l 1,14,-1
 100 0 l 1,15,-1
 100 -100 l 1,16,-1
 0 -100 l 1,17,-1
 0 700 l 1,0,-1
EndSplineSet
EndChar

StartChar: uni2572
Encoding: 9586 9586 329
Width: 800
VWidth: 0
GlyphClass: 1
Flags: W
LayerCount: 2
Fore
SplineSet
200 700 m 1,0,-1
 200 600 l 1,1,-1
 300 600 l 1,2,-1
 300 500 l 1,3,-1
 400 500 l 1,4,-1
 400 400 l 1,5,-1
 500 400 l 1,6,-1
 500 300 l 1,7,-1
 600 300 l 1,8,-1
 600 200 l 1,9,-1
 700 200 l 1,10,-1
 700 100 l 1,11,-1
 800 100 l 1,12,-1
 800 -100 l 1,13,-1
 600 -100 l 1,14,-1
 600 0 l 1,15,-1
 500 0 l 1,16,-1
 500 100 l 1,17,-1
 400 100 l 1,18,-1
 400 200 l 1,19,-1
 300 200 l 1,20,-1
 300 300 l 1,21,-1
 200 300 l 1,22,-1
 200 400 l 1,23,-1
 100 400 l 1,24,-1
 100 500 l 1,25,-1
 0 500 l 1,26,-1
 0 700 l 1,27,-1
 200 700 l 1,0,-1
EndSplineSet
EndChar

StartChar: uni2571
Encoding: 9585 9585 330
Width: 800
VWidth: 0
GlyphClass: 1
Flags: W
LayerCount: 2
Fore
SplineSet
700 400 m 1,0,-1
 600 400 l 1,1,-1
 600 300 l 1,2,-1
 500 300 l 1,3,-1
 500 200 l 1,4,-1
 400 200 l 1,5,-1
 400 100 l 1,6,-1
 300 100 l 1,7,-1
 300 0 l 1,8,-1
 200 0 l 1,9,-1
 200 -100 l 1,10,-1
 0 -100 l 1,11,-1
 0 100 l 1,12,-1
 100 100 l 1,13,-1
 100 200 l 1,14,-1
 200 200 l 1,15,-1
 200 300 l 1,16,-1
 300 300 l 1,17,-1
 300 400 l 1,18,-1
 400 400 l 1,19,-1
 400 500 l 1,20,-1
 500 500 l 1,21,-1
 500 600 l 1,22,-1
 600 600 l 1,23,-1
 600 700 l 1,24,-1
 800 700 l 1,25,-1
 800 500 l 1,26,-1
 700 500 l 1,27,-1
 700 400 l 1,0,-1
EndSplineSet
EndChar

StartChar: uni252C
Encoding: 9516 9516 331
Width: 800
VWidth: 0
GlyphClass: 1
Flags: W
LayerCount: 2
Fore
SplineSet
800 400 m 1,0,-1
 800 200 l 1,1,-1
 500 200 l 1,2,-1
 500 -100 l 1,3,-1
 300 -100 l 1,4,-1
 300 200 l 1,5,-1
 0 200 l 1,6,-1
 0 400 l 1,7,-1
 800 400 l 1,0,-1
EndSplineSet
EndChar

StartChar: uni2510
Encoding: 9488 9488 332
Width: 800
VWidth: 0
GlyphClass: 1
Flags: W
LayerCount: 2
Fore
SplineSet
500 400 m 1,0,-1
 500 -100 l 1,1,-1
 300 -100 l 1,2,-1
 300 200 l 1,3,-1
 0 200 l 1,4,-1
 0 400 l 1,5,-1
 500 400 l 1,0,-1
EndSplineSet
EndChar

StartChar: uni250C
Encoding: 9484 9484 333
Width: 800
VWidth: 0
GlyphClass: 1
Flags: W
LayerCount: 2
Fore
SplineSet
300 400 m 1,0,-1
 800 400 l 1,1,-1
 800 200 l 1,2,-1
 500 200 l 1,3,-1
 500 -100 l 1,4,-1
 300 -100 l 1,5,-1
 300 400 l 1,0,-1
EndSplineSet
EndChar

StartChar: uni2500
Encoding: 9472 9472 334
Width: 800
VWidth: 0
GlyphClass: 1
Flags: W
LayerCount: 2
Fore
SplineSet
800 400 m 1,0,-1
 800 200 l 1,1,-1
 0 200 l 1,2,-1
 0 400 l 1,3,-1
 800 400 l 1,0,-1
EndSplineSet
EndChar

StartChar: uni2534
Encoding: 9524 9524 335
Width: 800
VWidth: 0
GlyphClass: 1
Flags: W
LayerCount: 2
Fore
SplineSet
300 400 m 1,0,-1
 300 700 l 1,1,-1
 500 700 l 1,2,-1
 500 400 l 1,3,-1
 800 400 l 1,4,-1
 800 200 l 1,5,-1
 0 200 l 1,6,-1
 0 400 l 1,7,-1
 300 400 l 1,0,-1
EndSplineSet
EndChar

StartChar: uni2518
Encoding: 9496 9496 336
Width: 800
VWidth: 0
GlyphClass: 1
Flags: W
LayerCount: 2
Fore
SplineSet
500 700 m 1,0,-1
 500 200 l 1,1,-1
 0 200 l 1,2,-1
 0 400 l 1,3,-1
 300 400 l 1,4,-1
 300 700 l 1,5,-1
 500 700 l 1,0,-1
EndSplineSet
EndChar

StartChar: uni2514
Encoding: 9492 9492 337
Width: 800
VWidth: 0
GlyphClass: 1
Flags: W
LayerCount: 2
Fore
SplineSet
500 700 m 1,0,-1
 500 400 l 1,1,-1
 800 400 l 1,2,-1
 800 200 l 1,3,-1
 300 200 l 1,4,-1
 300 700 l 1,5,-1
 500 700 l 1,0,-1
EndSplineSet
EndChar

StartChar: uni2502
Encoding: 9474 9474 338
Width: 800
VWidth: 0
GlyphClass: 1
Flags: W
LayerCount: 2
Fore
SplineSet
500 700 m 1,0,-1
 500 -100 l 1,1,-1
 300 -100 l 1,2,-1
 300 700 l 1,3,-1
 500 700 l 1,0,-1
EndSplineSet
EndChar

StartChar: uni253C
Encoding: 9532 9532 339
Width: 800
VWidth: 0
GlyphClass: 1
Flags: W
LayerCount: 2
Fore
SplineSet
500 700 m 1,0,-1
 500 400 l 1,1,-1
 800 400 l 1,2,-1
 800 200 l 1,3,-1
 500 200 l 1,4,-1
 500 -100 l 1,5,-1
 300 -100 l 1,6,-1
 300 200 l 1,7,-1
 0 200 l 1,8,-1
 0 400 l 1,9,-1
 300 400 l 1,10,-1
 300 700 l 1,11,-1
 500 700 l 1,0,-1
EndSplineSet
EndChar

StartChar: uni2524
Encoding: 9508 9508 340
Width: 800
VWidth: 0
GlyphClass: 1
Flags: W
LayerCount: 2
Fore
SplineSet
0 200 m 1,0,-1
 0 400 l 1,1,-1
 300 400 l 1,2,-1
 300 700 l 1,3,-1
 500 700 l 1,4,-1
 500 -100 l 1,5,-1
 300 -100 l 1,6,-1
 300 200 l 1,7,-1
 0 200 l 1,0,-1
EndSplineSet
EndChar

StartChar: uni251C
Encoding: 9500 9500 341
Width: 800
VWidth: 0
GlyphClass: 1
Flags: W
LayerCount: 2
Fore
SplineSet
500 700 m 1,0,-1
 500 400 l 1,1,-1
 800 400 l 1,2,-1
 800 200 l 1,3,-1
 500 200 l 1,4,-1
 500 -100 l 1,5,-1
 300 -100 l 1,6,-1
 300 700 l 1,7,-1
 500 700 l 1,0,-1
EndSplineSet
EndChar

StartChar: dieresis
Encoding: 168 168 342
Width: 800
GlyphClass: 1
Flags: W
LayerCount: 2
Fore
SplineSet
100 700 m 1,0,-1
 300 700 l 1,1,-1
 300 600 l 1,2,-1
 100 600 l 1,3,-1
 100 700 l 1,0,-1
500 700 m 1,4,-1
 700 700 l 1,5,-1
 700 600 l 1,6,-1
 500 600 l 1,7,-1
 500 700 l 1,4,-1
EndSplineSet
EndChar

StartChar: dotaccent
Encoding: 729 729 343
Width: 800
GlyphClass: 1
Flags: W
LayerCount: 2
Fore
SplineSet
300 700 m 1,0,-1
 500 700 l 1,1,-1
 500 600 l 1,2,-1
 300 600 l 1,3,-1
 300 700 l 1,0,-1
EndSplineSet
EndChar

StartChar: grave
Encoding: 96 96 344
Width: 800
GlyphClass: 1
Flags: W
LayerCount: 2
Fore
SplineSet
200 700 m 1,0,-1
 400 700 l 1,1,-1
 400 600 l 1,2,-1
 500 600 l 1,3,-1
 500 500 l 1,4,-1
 300 500 l 1,5,-1
 300 600 l 1,6,-1
 200 600 l 1,7,-1
 200 700 l 1,0,-1
EndSplineSet
EndChar

StartChar: acute
Encoding: 180 180 345
Width: 800
GlyphClass: 1
Flags: W
LayerCount: 2
Fore
SplineSet
400 700 m 1,0,-1
 600 700 l 1,1,-1
 600 600 l 1,2,-1
 500 600 l 1,3,-1
 500 500 l 1,4,-1
 300 500 l 1,5,-1
 300 600 l 1,6,-1
 400 600 l 1,7,-1
 400 700 l 1,0,-1
EndSplineSet
EndChar

StartChar: hungarumlaut
Encoding: 733 733 346
Width: 800
GlyphClass: 1
Flags: W
LayerCount: 2
Fore
SplineSet
200 700 m 1,0,-1
 400 700 l 1,1,-1
 400 600 l 1,2,-1
 300 600 l 1,3,-1
 300 500 l 1,4,-1
 100 500 l 1,5,-1
 100 600 l 1,6,-1
 200 600 l 1,7,-1
 200 700 l 1,0,-1
400 600 m 1,8,-1
 500 600 l 1,9,-1
 500 700 l 1,10,-1
 700 700 l 1,11,-1
 700 600 l 1,12,-1
 600 600 l 1,13,-1
 600 500 l 1,14,-1
 400 500 l 1,15,-1
 400 600 l 1,8,-1
EndSplineSet
EndChar

StartChar: circumflex
Encoding: 710 710 347
Width: 800
GlyphClass: 1
Flags: W
LayerCount: 2
Fore
SplineSet
100 600 m 1,0,-1
 300 600 l 1,1,-1
 300 500 l 1,2,-1
 100 500 l 1,3,-1
 100 600 l 1,0,-1
300 700 m 1,4,-1
 500 700 l 1,5,-1
 500 600 l 1,6,-1
 300 600 l 1,7,-1
 300 700 l 1,4,-1
500 600 m 1,8,-1
 700 600 l 1,9,-1
 700 500 l 1,10,-1
 500 500 l 1,11,-1
 500 600 l 1,8,-1
EndSplineSet
EndChar

StartChar: caron
Encoding: 711 711 348
Width: 800
GlyphClass: 1
Flags: W
LayerCount: 2
Fore
SplineSet
300 600 m 1,0,-1
 500 600 l 1,1,-1
 500 500 l 1,2,-1
 300 500 l 1,3,-1
 300 600 l 1,0,-1
100 700 m 1,4,-1
 300 700 l 1,5,-1
 300 600 l 1,6,-1
 100 600 l 1,7,-1
 100 700 l 1,4,-1
500 700 m 1,8,-1
 700 700 l 1,9,-1
 700 600 l 1,10,-1
 500 600 l 1,11,-1
 500 700 l 1,8,-1
EndSplineSet
EndChar

StartChar: breve
Encoding: 728 728 349
Width: 800
GlyphClass: 1
Flags: W
LayerCount: 2
Fore
SplineSet
300 600 m 1,0,-1
 500 600 l 1,1,-1
 500 500 l 1,2,-1
 300 500 l 1,3,-1
 300 600 l 1,0,-1
200 700 m 1,4,-1
 300 700 l 1,5,-1
 300 600 l 1,6,-1
 200 600 l 1,7,-1
 200 700 l 1,4,-1
500 700 m 1,8,-1
 600 700 l 1,9,-1
 600 600 l 1,10,-1
 500 600 l 1,11,-1
 500 700 l 1,8,-1
EndSplineSet
EndChar

StartChar: ring
Encoding: 730 730 350
Width: 800
GlyphClass: 1
Flags: W
LayerCount: 2
Fore
SplineSet
500 700 m 1,0,-1
 500 500 l 1,1,-1
 300 500 l 1,2,-1
 300 700 l 1,3,-1
 500 700 l 1,0,-1
EndSplineSet
EndChar

StartChar: tilde
Encoding: 732 732 351
Width: 800
GlyphClass: 1
Flags: W
LayerCount: 2
Fore
SplineSet
300 600 m 1,0,-1
 200 600 l 1,1,-1
 200 700 l 1,2,-1
 400 700 l 1,3,-1
 400 600 l 1,4,-1
 500 600 l 1,5,-1
 500 500 l 1,6,-1
 300 500 l 1,7,-1
 300 600 l 1,0,-1
100 600 m 1,8,-1
 200 600 l 1,9,-1
 200 500 l 1,10,-1
 100 500 l 1,11,-1
 100 600 l 1,8,-1
500 700 m 1,12,-1
 600 700 l 1,13,-1
 600 600 l 1,14,-1
 500 600 l 1,15,-1
 500 700 l 1,12,-1
EndSplineSet
EndChar

StartChar: macron
Encoding: 175 175 352
Width: 800
GlyphClass: 1
Flags: W
LayerCount: 2
Fore
SplineSet
200 700 m 1,0,-1
 600 700 l 1,1,-1
 600 600 l 1,2,-1
 200 600 l 1,3,-1
 200 700 l 1,0,-1
EndSplineSet
EndChar

StartChar: cedilla
Encoding: 184 184 353
Width: 800
GlyphClass: 1
Flags: W
LayerCount: 2
Fore
SplineSet
300 0 m 1,0,-1
 400 0 l 1,1,-1
 400 100 l 1,2,-1
 500 100 l 1,3,-1
 500 -100 l 1,4,-1
 300 -100 l 1,5,-1
 300 0 l 1,0,-1
EndSplineSet
EndChar

StartChar: ogonek
Encoding: 731 731 354
Width: 800
GlyphClass: 1
Flags: W
LayerCount: 2
Fore
SplineSet
400 100 m 1,0,-1
 400 0 l 1,1,-1
 500 0 l 1,2,-1
 500 -100 l 1,3,-1
 300 -100 l 1,4,-1
 300 100 l 1,5,-1
 400 100 l 1,0,-1
EndSplineSet
EndChar

StartChar: uniE005
Encoding: 57349 57349 355
Width: 800
GlyphClass: 1
Flags: W
LayerCount: 2
Fore
SplineSet
200 700 m 1,0,-1
 600 700 l 1,1,-1
 600 600 l 1,2,-1
 500 600 l 1,3,-1
 500 500 l 1,4,-1
 300 500 l 1,5,-1
 300 600 l 1,6,-1
 200 600 l 1,7,-1
 200 700 l 1,0,-1
0 600 m 1,8,-1
 100 600 l 1,9,-1
 100 500 l 1,10,-1
 200 500 l 1,11,-1
 200 400 l 1,12,-1
 300 400 l 1,13,-1
 300 300 l 1,14,-1
 200 300 l 1,15,-1
 200 200 l 1,16,-1
 100 200 l 1,17,-1
 100 100 l 1,18,-1
 0 100 l 1,19,-1
 0 600 l 1,8,-1
200 100 m 1,20,-1
 300 100 l 1,21,-1
 300 200 l 1,22,-1
 500 200 l 1,23,-1
 500 100 l 1,24,-1
 600 100 l 1,25,-1
 600 0 l 1,26,-1
 200 0 l 1,27,-1
 200 100 l 1,20,-1
500 400 m 1,28,-1
 600 400 l 1,29,-1
 600 500 l 1,30,-1
 700 500 l 1,31,-1
 700 600 l 1,32,-1
 800 600 l 1,33,-1
 800 100 l 1,34,-1
 700 100 l 1,35,-1
 700 200 l 1,36,-1
 600 200 l 1,37,-1
 600 300 l 1,38,-1
 500 300 l 1,39,-1
 500 400 l 1,28,-1
EndSplineSet
EndChar

StartChar: uniE006
Encoding: 57350 57350 356
Width: 800
GlyphClass: 1
Flags: W
LayerCount: 2
Fore
SplineSet
700 300 m 1,0,-1
 800 300 l 1,1,-1
 800 0 l 1,2,-1
 500 0 l 1,3,-1
 500 100 l 1,4,-1
 600 100 l 1,5,-1
 600 200 l 1,6,-1
 700 200 l 1,7,-1
 700 300 l 1,0,-1
0 700 m 1,8,-1
 800 700 l 1,9,-1
 800 500 l 1,10,-1
 700 500 l 1,11,-1
 700 400 l 1,12,-1
 600 400 l 1,13,-1
 600 300 l 1,14,-1
 500 300 l 1,15,-1
 500 200 l 1,16,-1
 400 200 l 1,17,-1
 400 100 l 1,18,-1
 300 100 l 1,19,-1
 300 0 l 1,20,-1
 0 0 l 1,21,-1
 0 700 l 1,8,-1
EndSplineSet
EndChar

StartChar: uniE007
Encoding: 57351 57351 357
Width: 800
GlyphClass: 1
Flags: W
LayerCount: 2
Fore
SplineSet
500 100 m 1,0,-1
 600 100 l 1,1,-1
 600 200 l 1,2,-1
 700 200 l 1,3,-1
 700 300 l 1,4,-1
 800 300 l 1,5,-1
 800 0 l 1,6,-1
 500 0 l 1,7,-1
 500 100 l 1,0,-1
0 300 m 1,8,-1
 100 300 l 1,9,-1
 100 200 l 1,10,-1
 200 200 l 1,11,-1
 200 100 l 1,12,-1
 300 100 l 1,13,-1
 300 0 l 1,14,-1
 0 0 l 1,15,-1
 0 300 l 1,8,-1
0 700 m 1,16,-1
 300 700 l 1,17,-1
 300 600 l 1,18,-1
 200 600 l 1,19,-1
 200 500 l 1,20,-1
 100 500 l 1,21,-1
 100 400 l 1,22,-1
 0 400 l 1,23,-1
 0 700 l 1,16,-1
200 400 m 1,24,-1
 300 400 l 1,25,-1
 300 500 l 1,26,-1
 500 500 l 1,27,-1
 500 400 l 1,28,-1
 600 400 l 1,29,-1
 600 300 l 1,30,-1
 500 300 l 1,31,-1
 500 200 l 1,32,-1
 300 200 l 1,33,-1
 300 300 l 1,34,-1
 200 300 l 1,35,-1
 200 400 l 1,24,-1
500 700 m 1,36,-1
 800 700 l 1,37,-1
 800 400 l 1,38,-1
 700 400 l 1,39,-1
 700 500 l 1,40,-1
 600 500 l 1,41,-1
 600 600 l 1,42,-1
 500 600 l 1,43,-1
 500 700 l 1,36,-1
EndSplineSet
EndChar

StartChar: uniE008
Encoding: 57352 57352 358
Width: 800
GlyphClass: 1
Flags: W
LayerCount: 2
Fore
SplineSet
0 400 m 1,0,-1
 100 400 l 1,1,-1
 100 300 l 1,2,-1
 200 300 l 1,3,-1
 200 200 l 1,4,-1
 300 200 l 1,5,-1
 300 300 l 1,6,-1
 400 300 l 1,7,-1
 400 400 l 1,8,-1
 500 400 l 1,9,-1
 500 500 l 1,10,-1
 600 500 l 1,11,-1
 600 600 l 1,12,-1
 700 600 l 1,13,-1
 700 700 l 1,14,-1
 800 700 l 1,15,-1
 800 500 l 1,16,-1
 700 500 l 1,17,-1
 700 400 l 1,18,-1
 600 400 l 1,19,-1
 600 300 l 1,20,-1
 500 300 l 1,21,-1
 500 200 l 1,22,-1
 400 200 l 1,23,-1
 400 100 l 1,24,-1
 300 100 l 1,25,-1
 300 0 l 1,26,-1
 200 0 l 1,27,-1
 200 100 l 1,28,-1
 100 100 l 1,29,-1
 100 200 l 1,30,-1
 0 200 l 1,31,-1
 0 400 l 1,0,-1
EndSplineSet
EndChar

StartChar: uniE009
Encoding: 57353 57353 359
Width: 800
GlyphClass: 1
Flags: W
LayerCount: 2
Fore
SplineSet
100 0 m 1,0,-1
 0 0 l 1,1,-1
 0 600 l 1,2,-1
 100 600 l 1,3,-1
 100 700 l 1,4,-1
 700 700 l 1,5,-1
 700 600 l 1,6,-1
 800 600 l 1,7,-1
 800 0 l 1,8,-1
 700 0 l 1,9,-1
 700 -100 l 1,10,-1
 100 -100 l 1,11,-1
 100 0 l 1,0,-1
600 0 m 1,12,-1
 600 600 l 1,13,-1
 200 600 l 1,14,-1
 200 0 l 1,15,-1
 600 0 l 1,12,-1
300 500 m 1,16,-1
 400 500 l 1,17,-1
 400 300 l 1,18,-1
 500 300 l 1,19,-1
 500 200 l 1,20,-1
 300 200 l 1,21,-1
 300 500 l 1,16,-1
EndSplineSet
EndChar

StartChar: uniE00A
Encoding: 57354 57354 360
Width: 800
GlyphClass: 1
Flags: W
LayerCount: 2
Fore
SplineSet
300 700 m 1,0,-1
 500 700 l 1,1,-1
 500 600 l 1,2,-1
 600 600 l 1,3,-1
 600 300 l 1,4,-1
 700 300 l 1,5,-1
 700 200 l 1,6,-1
 400 200 l 1,7,-1
 400 100 l 1,8,-1
 500 100 l 1,9,-1
 500 0 l 1,10,-1
 400 0 l 1,11,-1
 400 -100 l 1,12,-1
 300 -100 l 1,13,-1
 300 0 l 1,14,-1
 200 0 l 1,15,-1
 200 100 l 1,16,-1
 300 100 l 1,17,-1
 300 200 l 1,18,-1
 100 200 l 1,19,-1
 100 300 l 1,20,-1
 200 300 l 1,21,-1
 200 600 l 1,22,-1
 300 600 l 1,23,-1
 300 700 l 1,0,-1
EndSplineSet
EndChar

StartChar: uniE00E
Encoding: 57358 57358 361
Width: 800
GlyphClass: 1
Flags: W
LayerCount: 2
Fore
SplineSet
800 700 m 1,0,-1
 800 -100 l 1,1,-1
 700 -100 l 1,2,-1
 700 700 l 1,3,-1
 800 700 l 1,0,-1
100 100 m 1,4,-1
 300 100 l 1,5,-1
 300 200 l 1,6,-1
 400 200 l 1,7,-1
 400 400 l 1,8,-1
 500 400 l 1,9,-1
 500 700 l 1,10,-1
 600 700 l 1,11,-1
 600 200 l 1,12,-1
 500 200 l 1,13,-1
 500 0 l 1,14,-1
 400 0 l 1,15,-1
 400 -100 l 1,16,-1
 100 -100 l 1,17,-1
 100 100 l 1,4,-1
EndSplineSet
EndChar

StartChar: uniE00F
Encoding: 57359 57359 362
Width: 800
GlyphClass: 1
Flags: W
LayerCount: 2
Fore
SplineSet
0 -100 m 1,0,-1
 0 700 l 1,1,-1
 100 700 l 1,2,-1
 100 -100 l 1,3,-1
 0 -100 l 1,0,-1
200 700 m 1,4,-1
 300 700 l 1,5,-1
 300 400 l 1,6,-1
 400 400 l 1,7,-1
 400 200 l 1,8,-1
 500 200 l 1,9,-1
 500 100 l 1,10,-1
 700 100 l 1,11,-1
 700 -100 l 1,12,-1
 400 -100 l 1,13,-1
 400 0 l 1,14,-1
 300 0 l 1,15,-1
 300 200 l 1,16,-1
 200 200 l 1,17,-1
 200 700 l 1,4,-1
EndSplineSet
EndChar

StartChar: uniE010
Encoding: 57360 57360 363
Width: 800
GlyphClass: 1
Flags: W
LayerCount: 2
Fore
SplineSet
100 100 m 1,0,-1
 0 100 l 1,1,-1
 0 300 l 1,2,-1
 200 300 l 1,3,-1
 200 100 l 1,4,-1
 500 100 l 1,5,-1
 500 300 l 1,6,-1
 700 300 l 1,7,-1
 700 100 l 1,8,-1
 600 100 l 1,9,-1
 600 0 l 1,10,-1
 100 0 l 1,11,-1
 100 100 l 1,0,-1
0 600 m 1,12,-1
 100 600 l 1,13,-1
 100 700 l 1,14,-1
 600 700 l 1,15,-1
 600 600 l 1,16,-1
 700 600 l 1,17,-1
 700 400 l 1,18,-1
 500 400 l 1,19,-1
 500 600 l 1,20,-1
 200 600 l 1,21,-1
 200 400 l 1,22,-1
 0 400 l 1,23,-1
 0 600 l 1,12,-1
EndSplineSet
EndChar

StartChar: uniE011
Encoding: 57361 57361 364
Width: 800
GlyphClass: 1
Flags: W
LayerCount: 2
Fore
SplineSet
700 700 m 1,0,-1
 700 400 l 1,1,-1
 500 400 l 1,2,-1
 500 700 l 1,3,-1
 700 700 l 1,0,-1
500 300 m 1,4,-1
 700 300 l 1,5,-1
 700 0 l 1,6,-1
 500 0 l 1,7,-1
 500 300 l 1,4,-1
EndSplineSet
EndChar

StartChar: uniE012
Encoding: 57362 57362 365
Width: 800
GlyphClass: 1
Flags: W
LayerCount: 2
Fore
SplineSet
100 100 m 1,0,-1
 0 100 l 1,1,-1
 0 300 l 1,2,-1
 100 300 l 1,3,-1
 100 400 l 1,4,-1
 500 400 l 1,5,-1
 500 600 l 1,6,-1
 100 600 l 1,7,-1
 100 700 l 1,8,-1
 600 700 l 1,9,-1
 600 600 l 1,10,-1
 700 600 l 1,11,-1
 700 400 l 1,12,-1
 600 400 l 1,13,-1
 600 300 l 1,14,-1
 200 300 l 1,15,-1
 200 100 l 1,16,-1
 600 100 l 1,17,-1
 600 0 l 1,18,-1
 100 0 l 1,19,-1
 100 100 l 1,0,-1
EndSplineSet
EndChar

StartChar: uniE013
Encoding: 57363 57363 366
Width: 800
GlyphClass: 1
Flags: W
LayerCount: 2
Fore
SplineSet
100 100 m 1,0,-1
 500 100 l 1,1,-1
 500 300 l 1,2,-1
 100 300 l 1,3,-1
 100 400 l 1,4,-1
 500 400 l 1,5,-1
 500 600 l 1,6,-1
 100 600 l 1,7,-1
 100 700 l 1,8,-1
 600 700 l 1,9,-1
 600 600 l 1,10,-1
 700 600 l 1,11,-1
 700 400 l 1,12,-1
 600 400 l 1,13,-1
 600 300 l 1,14,-1
 700 300 l 1,15,-1
 700 100 l 1,16,-1
 600 100 l 1,17,-1
 600 0 l 1,18,-1
 100 0 l 1,19,-1
 100 100 l 1,0,-1
EndSplineSet
EndChar

StartChar: uniE014
Encoding: 57364 57364 367
Width: 800
GlyphClass: 1
Flags: W
LayerCount: 2
Fore
SplineSet
200 700 m 1,0,-1
 200 400 l 1,1,-1
 500 400 l 1,2,-1
 500 700 l 1,3,-1
 700 700 l 1,4,-1
 700 400 l 1,5,-1
 600 400 l 1,6,-1
 600 300 l 1,7,-1
 700 300 l 1,8,-1
 700 0 l 1,9,-1
 500 0 l 1,10,-1
 500 300 l 1,11,-1
 100 300 l 1,12,-1
 100 400 l 1,13,-1
 0 400 l 1,14,-1
 0 700 l 1,15,-1
 200 700 l 1,0,-1
EndSplineSet
EndChar

StartChar: uniE015
Encoding: 57365 57365 368
Width: 800
GlyphClass: 1
Flags: W
LayerCount: 2
Fore
SplineSet
100 100 m 1,0,-1
 500 100 l 1,1,-1
 500 300 l 1,2,-1
 100 300 l 1,3,-1
 100 400 l 1,4,-1
 0 400 l 1,5,-1
 0 600 l 1,6,-1
 100 600 l 1,7,-1
 100 700 l 1,8,-1
 600 700 l 1,9,-1
 600 600 l 1,10,-1
 200 600 l 1,11,-1
 200 400 l 1,12,-1
 600 400 l 1,13,-1
 600 300 l 1,14,-1
 700 300 l 1,15,-1
 700 100 l 1,16,-1
 600 100 l 1,17,-1
 600 0 l 1,18,-1
 100 0 l 1,19,-1
 100 100 l 1,0,-1
EndSplineSet
EndChar

StartChar: uniE016
Encoding: 57366 57366 369
Width: 800
GlyphClass: 1
Flags: W
LayerCount: 2
Fore
SplineSet
100 100 m 1,0,-1
 0 100 l 1,1,-1
 0 300 l 1,2,-1
 100 300 l 1,3,-1
 100 400 l 1,4,-1
 0 400 l 1,5,-1
 0 600 l 1,6,-1
 100 600 l 1,7,-1
 100 700 l 1,8,-1
 600 700 l 1,9,-1
 600 600 l 1,10,-1
 200 600 l 1,11,-1
 200 400 l 1,12,-1
 600 400 l 1,13,-1
 600 300 l 1,14,-1
 700 300 l 1,15,-1
 700 100 l 1,16,-1
 600 100 l 1,17,-1
 600 0 l 1,18,-1
 100 0 l 1,19,-1
 100 100 l 1,0,-1
500 100 m 1,20,-1
 500 300 l 1,21,-1
 200 300 l 1,22,-1
 200 100 l 1,23,-1
 500 100 l 1,20,-1
EndSplineSet
EndChar

StartChar: uniE017
Encoding: 57367 57367 370
Width: 800
GlyphClass: 1
Flags: W
LayerCount: 2
Fore
SplineSet
100 700 m 1,0,-1
 600 700 l 1,1,-1
 600 600 l 1,2,-1
 700 600 l 1,3,-1
 700 400 l 1,4,-1
 500 400 l 1,5,-1
 500 600 l 1,6,-1
 100 600 l 1,7,-1
 100 700 l 1,0,-1
500 300 m 1,8,-1
 700 300 l 1,9,-1
 700 0 l 1,10,-1
 500 0 l 1,11,-1
 500 300 l 1,8,-1
EndSplineSet
EndChar

StartChar: uniE018
Encoding: 57368 57368 371
Width: 800
GlyphClass: 1
Flags: W
LayerCount: 2
Fore
SplineSet
100 100 m 1,0,-1
 0 100 l 1,1,-1
 0 300 l 1,2,-1
 100 300 l 1,3,-1
 100 400 l 1,4,-1
 0 400 l 1,5,-1
 0 600 l 1,6,-1
 100 600 l 1,7,-1
 100 700 l 1,8,-1
 600 700 l 1,9,-1
 600 600 l 1,10,-1
 700 600 l 1,11,-1
 700 400 l 1,12,-1
 600 400 l 1,13,-1
 600 300 l 1,14,-1
 700 300 l 1,15,-1
 700 100 l 1,16,-1
 600 100 l 1,17,-1
 600 0 l 1,18,-1
 100 0 l 1,19,-1
 100 100 l 1,0,-1
500 100 m 1,20,-1
 500 300 l 1,21,-1
 200 300 l 1,22,-1
 200 100 l 1,23,-1
 500 100 l 1,20,-1
500 400 m 1,24,-1
 500 600 l 1,25,-1
 200 600 l 1,26,-1
 200 400 l 1,27,-1
 500 400 l 1,24,-1
EndSplineSet
EndChar

StartChar: uniE019
Encoding: 57369 57369 372
Width: 800
GlyphClass: 1
Flags: W
LayerCount: 2
Fore
SplineSet
100 100 m 1,0,-1
 500 100 l 1,1,-1
 500 300 l 1,2,-1
 100 300 l 1,3,-1
 100 400 l 1,4,-1
 0 400 l 1,5,-1
 0 600 l 1,6,-1
 100 600 l 1,7,-1
 100 700 l 1,8,-1
 600 700 l 1,9,-1
 600 600 l 1,10,-1
 700 600 l 1,11,-1
 700 400 l 1,12,-1
 600 400 l 1,13,-1
 600 300 l 1,14,-1
 700 300 l 1,15,-1
 700 100 l 1,16,-1
 600 100 l 1,17,-1
 600 0 l 1,18,-1
 100 0 l 1,19,-1
 100 100 l 1,0,-1
500 400 m 1,20,-1
 500 600 l 1,21,-1
 200 600 l 1,22,-1
 200 400 l 1,23,-1
 500 400 l 1,20,-1
EndSplineSet
EndChar

StartChar: uniE01C
Encoding: 57372 57372 373
Width: 800
GlyphClass: 1
Flags: W
LayerCount: 2
Fore
SplineSet
500 700 m 1,0,-1
 800 700 l 1,1,-1
 800 400 l 1,2,-1
 500 400 l 1,3,-1
 500 200 l 1,4,-1
 400 200 l 1,5,-1
 400 100 l 1,6,-1
 700 100 l 1,7,-1
 700 0 l 1,8,-1
 800 0 l 1,9,-1
 800 -100 l 1,10,-1
 500 -100 l 1,11,-1
 500 0 l 1,12,-1
 400 0 l 1,13,-1
 400 -100 l 1,14,-1
 300 -100 l 1,15,-1
 300 500 l 1,16,-1
 400 500 l 1,17,-1
 400 600 l 1,18,-1
 500 600 l 1,19,-1
 500 700 l 1,0,-1
EndSplineSet
EndChar

StartChar: uniE01D
Encoding: 57373 57373 374
Width: 800
GlyphClass: 1
Flags: W
LayerCount: 2
Fore
SplineSet
400 700 m 1,0,-1
 400 600 l 1,1,-1
 500 600 l 1,2,-1
 500 500 l 1,3,-1
 600 500 l 1,4,-1
 600 -100 l 1,5,-1
 500 -100 l 1,6,-1
 500 0 l 1,7,-1
 400 0 l 1,8,-1
 400 -100 l 1,9,-1
 300 -100 l 1,10,-1
 300 0 l 1,11,-1
 200 0 l 1,12,-1
 200 100 l 1,13,-1
 500 100 l 1,14,-1
 500 400 l 1,15,-1
 400 400 l 1,16,-1
 400 500 l 1,17,-1
 300 500 l 1,18,-1
 300 400 l 1,19,-1
 0 400 l 1,20,-1
 0 700 l 1,21,-1
 400 700 l 1,0,-1
100 0 m 1,22,-1
 200 0 l 1,23,-1
 200 -100 l 1,24,-1
 100 -100 l 1,25,-1
 100 0 l 1,22,-1
EndSplineSet
EndChar

StartChar: uniE01E
Encoding: 57374 57374 375
Width: 800
GlyphClass: 1
Flags: W
LayerCount: 2
Fore
SplineSet
700 700 m 1,0,-1
 800 700 l 1,1,-1
 800 400 l 1,2,-1
 700 400 l 1,3,-1
 700 500 l 1,4,-1
 600 500 l 1,5,-1
 600 600 l 1,6,-1
 700 600 l 1,7,-1
 700 700 l 1,0,-1
200 200 m 1,8,-1
 300 200 l 1,9,-1
 300 100 l 1,10,-1
 400 100 l 1,11,-1
 400 200 l 1,12,-1
 500 200 l 1,13,-1
 500 400 l 1,14,-1
 400 400 l 1,15,-1
 400 600 l 1,16,-1
 500 600 l 1,17,-1
 500 500 l 1,18,-1
 600 500 l 1,19,-1
 600 400 l 1,20,-1
 700 400 l 1,21,-1
 700 300 l 1,22,-1
 800 300 l 1,23,-1
 800 200 l 1,24,-1
 700 200 l 1,25,-1
 700 100 l 1,26,-1
 500 100 l 1,27,-1
 500 -100 l 1,28,-1
 200 -100 l 1,29,-1
 200 200 l 1,8,-1
300 700 m 1,30,-1
 400 700 l 1,31,-1
 400 600 l 1,32,-1
 300 600 l 1,33,-1
 300 700 l 1,30,-1
700 100 m 1,34,-1
 800 100 l 1,35,-1
 800 0 l 1,36,-1
 700 0 l 1,37,-1
 700 100 l 1,34,-1
EndSplineSet
EndChar

StartChar: uniE01F
Encoding: 57375 57375 376
Width: 800
GlyphClass: 1
Flags: W
LayerCount: 2
Fore
SplineSet
0 500 m 1,0,-1
 200 500 l 1,1,-1
 200 400 l 1,2,-1
 0 400 l 1,3,-1
 0 500 l 1,0,-1
0 100 m 1,4,-1
 300 100 l 1,5,-1
 300 0 l 1,6,-1
 0 0 l 1,7,-1
 0 100 l 1,4,-1
0 300 m 1,8,-1
 200 300 l 1,9,-1
 200 200 l 1,10,-1
 0 200 l 1,11,-1
 0 300 l 1,8,-1
200 400 m 1,12,-1
 300 400 l 1,13,-1
 300 300 l 1,14,-1
 200 300 l 1,15,-1
 200 400 l 1,12,-1
200 600 m 1,16,-1
 300 600 l 1,17,-1
 300 500 l 1,18,-1
 200 500 l 1,19,-1
 200 600 l 1,16,-1
300 300 m 1,20,-1
 400 300 l 1,21,-1
 400 100 l 1,22,-1
 300 100 l 1,23,-1
 300 300 l 1,20,-1
300 500 m 1,24,-1
 400 500 l 1,25,-1
 400 600 l 1,26,-1
 500 600 l 1,27,-1
 500 300 l 1,28,-1
 400 300 l 1,29,-1
 400 400 l 1,30,-1
 300 400 l 1,31,-1
 300 500 l 1,24,-1
500 700 m 1,32,-1
 600 700 l 1,33,-1
 600 600 l 1,34,-1
 500 600 l 1,35,-1
 500 700 l 1,32,-1
EndSplineSet
EndChar
